<?xml version="1.0" encoding="utf-8"?>
<!-- Generator: Adobe Illustrator 19.0.0, SVG Export Plug-In . SVG Version: 6.00 Build 0)  -->
<svg version="1.1" id="Layer_1" xmlns="http://www.w3.org/2000/svg" xmlns:xlink="http://www.w3.org/1999/xlink" x="0px" y="0px"
	 viewBox="48.5 372 903 258" style="enable-background:new 48.5 372 903 258;" xml:space="preserve">
<style type="text/css">
	.st0{fill:#FFFFFF;}
</style>
<g id="flat_title_3_">
	<g>
		<path class="st0" d="M219.2,510c0.5-0.7,1.2-1.7,1.8-2.5c2.4-0.8,4.5-1.2,6.7-1.5c1.5-0.3,3.1-0.3,4.6-0.8
			c1.4-0.4,2.9-0.3,4.2-0.8c1.5-0.5,3.1-0.4,4.6-0.8c1.4-0.4,2.8-0.3,4.1-0.7c1.6-0.5,3.2-0.4,4.7-0.9c1.4-0.4,2.7-0.4,4.1-0.7
			c0.8-0.2,1.6-0.4,2.4-0.6c0.8-0.1,1.7,0,2.5-0.3c2-0.8,4.1-0.6,6.1-0.9c2.3-0.4,4.5-0.5,6.7-0.3c2.8,0.2,5.6,0.6,8.1,1.7
			c3.3,1.5,5.6,3.9,6.9,7.1c0.6,1.5,0.9,3.1,1.1,4.8c0.1,1.4,0.2,2.8,0.1,4.2c0,1,0.2,1.9-0.3,2.9c-0.4,0.9,0.1,1.9-0.5,2.9
			c-0.2,0.4,0,0.9-0.2,1.4c-0.8,1.9-1.2,3.9-2.3,5.7c-1.3,2.2-2.6,4.5-4.5,6.4c-1.5,1.6-2.9,3.3-4.8,4.5c-0.7,0.5-1.5,1-2.2,1.6
			c1,0.4,1.8,0.6,2.6,1c2.2,0.9,4.1,2.1,5.6,4c1,1.3,2,2.5,2.7,3.9c0.7,1.6,1.4,3.3,1.4,5.3c0,0.6,0.3,1.2,0.3,1.8
			c0,0.9,0.1,1.8-0.3,2.7c-0.3,0.8-0.1,1.7-0.4,2.6c-0.3,1.1-0.5,2.2-0.8,3.3c-0.6,2.4-1.5,4.6-2.6,6.8c-1,2-2.1,3.9-3.5,5.6
			c-0.8,0.9-1.5,1.9-2.4,2.8c-1.9,1.9-4,3.5-6.2,5c-0.9,0.6-1.7,1.3-2.6,1.7c-2.5,1.3-4.9,2.9-7.7,3.5c-0.2,0.6-0.8,0.3-1.2,0.6
			c-0.3,0.2-0.8,0.1-1.1,0.4c-0.7,0.7-1.5,0.4-2.3,0.8c-1,0.5-2.1,0.5-3.2,0.7c-0.7,0.2-1.4,0.4-2.1,0.5c-0.7,0.2-1.4-0.2-2.1,0.5
			c-0.1,0.1-0.2,0-0.3,0c-2.5,0.4-5.1,0.8-7.6,1.1c-1.6,0.2-3.3,0.9-4.9,0.9c-1.2,0.7-2.4,0.4-3.6,0.7c-1.8,0.4-3.5,0.8-5.3,0.9
			c-1,0.7-2.1,0.6-3.1,0.6s-1.8,0.6-2.7,0.7c-1,0.1-2,0-2.9,0.3c-1.4,0.6-2.9,0.3-4.3,0.8c-1.7,0.6-3.4,0.5-5.2,0.9
			c-0.6-0.4-1.2-0.8-1.8-1.2c0-1.2,0-2.3,0.1-3.4c0-0.7,0.2-1.4,0.4-2.1c0.1-0.7-0.3-1.4,0.4-2.1c0.1-0.1,0-0.2,0-0.3
			c0.1-1.4,0.3-2.8,0.4-4.2c0.1-0.6,0.3-1.2,0.4-1.7c0.1-0.5-0.1-1.1,0.4-1.6c0.1-0.1,0-0.2,0-0.3c0.1-1.4,0.2-2.8,0.5-4.2
			c0.2-0.9,0.2-1.9,0.4-2.7c0.3-0.9,0.1-1.9,0.4-2.7c0.3-0.9,0.1-1.7,0.4-2.6c0.3-0.9,0.1-1.8,0.4-2.6c0.3-0.9,0.1-1.9,0.4-2.7
			c0.3-0.9,0.1-1.7,0.4-2.6c0.3-0.9,0.2-1.9,0.4-2.7c0.3-0.9,0.1-1.9,0.4-2.7c0.3-0.9,0.1-1.9,0.4-2.7c0.3-0.9,0.3-1.7,0.4-2.6
			c0.1-0.6,0.3-1.2,0.4-1.7c0.1-0.5-0.1-1.1,0.4-1.6c0.1-0.1,0-0.2,0-0.3c0.1-1.4,0.1-2.8,0.5-4.2c0.2-0.9,0.1-1.9,0.4-2.7
			c0.3-0.9,0.2-1.8,0.4-2.7c0.4-1.7,0.5-3.3,0.8-5c0.2-0.9,0.2-1.9,0.4-2.7c0.3-0.9,0.1-1.9,0.4-2.7c0.3-0.9,0.1-1.9,0.4-2.7
			c0.3-0.9,0.1-1.9,0.4-2.7c0.3-0.9,0.1-1.9,0.4-2.7c0.3-0.9,0.1-1.7,0.4-2.6c0.3-0.9,0.1-1.9,0.4-2.7c0.4-0.9,0-1.8,0.4-2.6
			s0.2-1.6,0.4-2.4C218.8,511.9,219,511.1,219.2,510z M232.3,559.8c-0.1,1.2,0,2.2-0.4,3.3c-0.3,0.8-0.1,1.7-0.4,2.6
			c-0.3,0.9-0.1,1.8-0.4,2.7c-0.3,0.9-0.1,1.8-0.4,2.7c-0.3,0.9-0.2,1.8-0.4,2.7c-0.3,1.3-0.3,2.6-0.5,3.9c0,0.2,0,0.4-0.1,0.5
			c-0.6,1-0.2,1.9-0.3,2.8c1.3-0.2,2.5-0.3,3.7-0.7c1.4-0.4,2.8-0.3,4.2-0.8c1.5-0.5,3-0.4,4.6-0.8c1.4-0.4,2.8-0.3,4.2-0.8
			c1.5-0.4,3-0.5,4.6-0.8c1.8-0.4,3.4-1,5-1.9c2.6-1.4,4.8-3.3,6.3-5.8c0.6-0.9,1.1-1.8,1.5-2.7c0.4-1,0.6-2,0.7-3
			c0.1-0.8,0-1.7-0.2-2.5c-0.5-2.7-2.2-4.1-4.5-5.1c-0.5-0.2-1.2-0.1-1.8-0.3c-0.7-0.3-1.5,0.2-2.1,0c-0.6-0.2-1.3-0.2-1.9-0.1
			c-0.4,0.1-0.8,0.4-1.2,0.4c-1,0.1-1.9,0.2-2.9,0.3c-0.9,0.1-1.8,0.4-2.7,0.6c-1.2,0.2-2.4,0.1-3.6,0.7c-0.8,0.3-1.7,0.2-2.5,0.3
			c-0.9,0.1-1.7,0.5-2.6,0.6C236.5,558.8,234.5,559.8,232.3,559.8z M238.3,522c-0.1,0.6-0.4,1.2-0.4,1.8c0,0.7-0.3,1.4-0.4,2.1
			c-0.2,1.4-0.3,2.8-0.4,4.2c0,0.1,0,0.3,0,0.3c-0.6,0.6-0.2,1.3-0.4,1.9c-0.1,0.6-0.3,1.3-0.4,1.9c-0.2,1.4-0.3,2.7-0.4,4.1
			c0,0.1,0,0.2,0,0.3c-0.6,1-0.2,1.9-0.3,2.8c0.9-0.1,1.7-0.6,2.5-0.6c1.1-0.1,2.1-0.1,3.2-0.6c0.8-0.4,1.8-0.2,2.7-0.3
			s1.7-0.4,2.6-0.6c1.2-0.2,2.4-0.1,3.6-0.7c0.8-0.3,1.7-0.2,2.5-0.3c0.9-0.1,1.7-0.5,2.6-0.6c0.8-0.1,1.5-0.3,2.2-0.6
			c2.5-0.9,4.6-2.6,6.1-4.8c1.7-2.4,2.7-5.1,2.7-8.1c0-2.2-0.8-3.8-2.5-5c-1.6-1.1-3.4-1.3-5.3-1.3c-0.6,0-1.3,0.3-1.9,0.5
			c-0.9,0.3-1.8,0.2-2.7,0.3s-1.7,0.4-2.6,0.6c-1.2,0.2-2.4,0.1-3.6,0.7c-0.8,0.3-1.7,0.2-2.5,0.3c-0.9,0.1-1.7,0.4-2.6,0.6
			C241.1,521.3,239.8,521.2,238.3,522z M266.9,571.4c0.2-0.4,0.3-0.7,0.6-1.2c-0.5,0.1-0.9,0.1-1.4,0.1c-0.3,0.3-0.5,0.7-1,1.3
			C265.9,571.5,266.4,571.5,266.9,571.4z M276.2,520.5c0-0.1,0.1-0.2,0.1-0.3c-0.4-0.3-0.7-0.6-1.1-1c-0.3,0.4-0.5,0.6-0.8,1
			c0.3,0.2,0.6,0.3,0.8,0.4C275.4,520.6,275.8,520.6,276.2,520.5z M216.2,559.1c0.5-0.1,0.9-0.1,1.3-0.1c0-0.5,0-0.9,0-1.3
			C216.3,558,216.3,558,216.2,559.1z M257.5,507.2c-0.3-0.5-0.4-0.9-0.7-1.4c-0.4,0.3-0.8,0.5-1.1,0.7c0.2,0.3,0.3,0.6,0.5,0.9
			C256.6,507.3,257,507.3,257.5,507.2z M234.6,512.9c-0.4-0.3-0.6-0.4-1-0.7c-0.1,0.3-0.1,0.5-0.2,0.7c-0.1,0.2-0.2,0.4-0.3,0.6
			c0.2,0.3,0.3,0.4,0.5,0.6C233.8,513.8,234.1,513.5,234.6,512.9z M229.1,556.7c0.5-0.6,0.8-1,1.2-1.6c-0.7,0.1-1.1,0.1-1.7,0.2
			C228.7,555.8,228.9,556.1,229.1,556.7z M272.4,554.2c-0.9,0.7-0.9,0.7-0.9,1.5c0.3,0,0.5-0.1,0.8-0.1
			C272.4,555.2,272.4,554.8,272.4,554.2z M230.4,547.4c-0.2,0.3-0.3,0.6-0.5,1c0.4,0,0.9-0.1,1.3-0.1c0-0.4,0-0.7-0.1-0.9
			C230.9,547.3,230.6,547.3,230.4,547.4z M226.5,586.8c-0.3,0.3-0.6,0.6-1,0.9c0.3,0.2,0.5,0.3,0.8,0.5c0.3-0.3,0.5-0.6,0.7-0.9
			C226.8,587.1,226.7,586.9,226.5,586.8z M223.3,548.8c-0.6,0.9-0.7,1.2-0.1,1.4c0.2-0.3,0.5-0.6,0.8-0.9
			C223.7,549.1,223.5,549,223.3,548.8z M271.1,538c-0.2-0.4-0.3-0.6-0.5-1.2c-0.2,0.7-0.4,1.1-0.4,1.4c0,0.1,0.1,0.2,0.2,0.4
			C270.7,538.3,271,538.1,271.1,538z M231.8,537.7c-0.3,0.1-0.5,0.3-0.9,0.5c0.5,0.2,0.8,0.3,1.5,0.5
			C232,538.1,231.9,537.8,231.8,537.7z M223.6,562.4c0.1-0.1,0.2-0.2,0.2-0.2c0-0.1-0.1-0.3-0.1-0.5c-0.2,0.1-0.4,0.1-0.8,0.2
			C223.3,562.2,223.5,562.3,223.6,562.4z M272.1,506.7c0-0.2,0-0.4,0-0.7c-0.2,0.1-0.4,0.1-0.6,0.2c0,0.2,0.1,0.4,0.1,0.6
			C271.8,506.7,271.9,506.7,272.1,506.7z M280,516.3c-0.2,0-0.4,0-0.7,0.1c0,0.2,0.1,0.4,0.1,0.6c0.2-0.1,0.4-0.1,0.6-0.2
			C280,516.6,280,516.5,280,516.3z M241,586.2c-0.1,0.1-0.2,0.2-0.2,0.2c0,0.1,0.1,0.3,0.1,0.5c0.2-0.1,0.4-0.1,0.8-0.2
			C241.3,586.4,241.2,586.3,241,586.2z M277.3,528.5c-0.1,0-0.1,0-0.2,0c0,0.2,0,0.4,0,0.7c0.1,0,0.1,0,0.2,0
			C277.3,528.9,277.3,528.7,277.3,528.5z M259.3,550.9c0-0.1,0-0.2,0-0.3c-0.2,0.1-0.4,0.1-0.6,0.2c0,0.1,0,0.1,0,0.2
			C259,551,259.2,551,259.3,550.9z M268.5,552.8c0,0.1,0,0.2,0,0.3c0.2-0.1,0.4-0.1,0.6-0.2c0-0.1,0-0.1,0-0.2
			C268.9,552.7,268.7,552.7,268.5,552.8z M265.8,509.4c0,0.1,0,0.2,0,0.3c0.2-0.1,0.4-0.1,0.6-0.2c0-0.1,0-0.1,0-0.2
			C266.2,509.4,266,509.4,265.8,509.4z M224.5,556.3h-0.1c0,0.1,0,0.2,0,0.3h0.1C224.5,556.5,224.5,556.4,224.5,556.3z M226,536.8
			h-0.1c0,0.1,0,0.2,0,0.3h0.1C226,537.1,226,537,226,536.8z M231.1,526.8L231.1,526.8c0.1,0.1,0.2,0.1,0.3,0.1v-0.1
			C231.3,526.7,231.2,526.8,231.1,526.8z M279.1,512.9L279.1,512.9c-0.1-0.1-0.2-0.1-0.3-0.1v0.1C278.9,512.9,279,512.9,279.1,512.9
			z M281.4,522.7h-0.1c0,0.1,0,0.2,0,0.3h0.1C281.4,522.9,281.4,522.8,281.4,522.7z M222.8,526.5h0.1c0-0.1,0-0.2,0-0.3h-0.1
			C222.8,526.3,222.8,526.4,222.8,526.5z M268.2,505.9v0.1c0.1,0,0.2,0,0.3,0v-0.1C268.4,505.9,268.3,505.9,268.2,505.9z M232,588
			L232,588c-0.1-0.1-0.2-0.1-0.3-0.1v0.1C231.8,588.1,231.9,588,232,588z M215.4,578.8L215.4,578.8c-0.1-0.1-0.2-0.1-0.3-0.1v0.1
			C215.1,578.8,215.3,578.8,215.4,578.8z"/>
	</g>
	<g>
		<path class="st0" d="M741.9,453.4c0,0.9,0,1.9-0.1,2.8c-0.1,0.7-0.2,1.5-0.4,2.2c-0.1,0.7,0.3,1.5-0.4,2.2
			c0.2,1.5-0.6,2.9-0.8,4.3c-0.2,1.3-0.7,2.7-1.2,4c-1.1,3.2-2.4,6.3-4,9.3c-0.8,1.4-1.6,2.7-2.4,4.1c-1.1,1.9-2.4,3.6-3.5,5.4
			c-0.5,0.8-1.1,1.5-1.7,2.2c-1,1.2-2,2.4-3,3.6s-2,2.4-3.1,3.4c-2.1,1.9-4.2,3.9-6.4,5.7c-2.6,2.2-5.4,4-8.2,5.9
			c-1.6,1.1-3.4,1.9-5.1,3c-1.8,1.1-3.7,1.8-5.6,2.6c-1.9,0.9-3.9,1.6-5.9,2.2c-1.7,0.5-3.4,1-5.1,1.4c-1.4,0.3-2.9,0.3-4.2,0.8
			c-1.6,0.5-3.1,0.5-4.6,0.7c-0.8,0.1-1.6-0.1-2.4,0c-0.8,0-1.7,0.3-2.5,0.2c-2.6-0.3-5.3-0.5-7.9-1c-2.5-0.5-4.9-1.2-7.1-2.2
			c-2.2-1-4.3-2.1-6.3-3.5c-1.5-1.1-2.9-2.3-4.3-3.6c-1.7-1.6-3.1-3.5-4.3-5.6c-0.6-0.9-1.1-1.8-1.6-2.8c-0.6-1.1-2.1-5.1-2.5-7
			c-0.1-0.6-0.1-1.4-0.3-1.8c-0.4-0.6-0.1-1.2-0.3-1.7c-0.5-1.2-0.2-2.5-0.3-3.7c0-0.5-0.2-0.9-0.3-1.3c0-0.5,0-1,0-1.5
			c0.1-0.9,0.3-1.7,0.4-2.6c0.1-0.9-0.2-1.9,0.1-2.6c0.5-1,0-2,0.6-3c0.4-0.8,0.2-1.9,0.5-2.9c0.8-2.3,1.3-4.6,2.2-6.9
			c1-2.5,2.1-5,3.4-7.3c1.2-2.2,2.3-4.4,3.8-6.4c1.2-1.6,2.3-3.3,3.4-5c0.1-0.1,0.2-0.2,0.2-0.3c1.9-2.1,3.6-4.3,5.6-6.3
			c1.9-2,3.9-3.9,6.1-5.6c2-1.6,4-3.1,6.1-4.6c2.5-1.7,5.2-3.1,7.7-4.8c1.1-0.7,6.7-3.1,8.2-3.5c0.9-0.3,1.8-0.5,2.6-1
			c0.8-0.4,1.6-0.4,2.5-0.8c0.9-0.5,2-0.5,3-0.7c0.9-0.2,1.8-0.5,2.7-0.6s1.9,0,2.7-0.3c1.2-0.6,2.4-0.7,3.6-0.6
			c1.6,0.1,3.2-0.2,4.7-0.2c0.7,0,1.3,0.1,2,0.1c0.6,0,1.2,0.1,1.9,0.1s1.3,0.4,2,0.1c1.7,0.6,3.6,0.6,5.3,1.2
			c1.1,0.4,2.1,0.8,3.3,1c1.1,0.3,2.1,0.8,3.1,1.4c1.2,0.7,2.4,1.3,3.5,2c2.4,1.6,3.6,2.6,5.6,4.7c1,1.1,1.9,2.2,2.8,3.4
			c0.9,1.1,1.4,2.3,2.1,3.5c0.4,0.7,0.8,1.4,1.1,2.1s0.4,1.6,0.8,2.3c0.4,0.7,0.3,1.6,0.9,2.2c-0.1,1.4,0.8,2.5,0.6,4
			c0.7,1,0.2,2.4,0.5,3.5C742.2,450.7,741.9,452.1,741.9,453.4z M657.9,477.7c0,0.9-0.1,1.8,0,2.7c0,0.9,0.1,1.8,0.3,2.7
			c0.4,1.5,0.7,3,1.4,4.3c0.9,1.6,1.5,3.3,2.8,4.7c0.3,0.4,0.6,0.8,1,1.1c0.3,0.3,0.8,0.6,1,1c0.2,0.5,0.8,0.5,1.1,0.9
			c2.2,2.1,4.9,3.4,7.9,4.1c2.5,0.6,5.1,1,7.8,0.7c1.3-0.2,2.6-0.2,3.9-0.4c1-0.2,2.1-0.4,3-0.7c1.1-0.4,2.1-0.8,3.2-1.2
			c2.2-0.8,4.3-2,6.4-3.1c1.2-0.6,2.3-1.5,3.4-2.3c2.4-1.9,4.9-3.7,6.9-6c1.7-2,3.5-3.8,5-6c1.2-1.8,2.4-3.6,3.4-5.5
			c0.7-1.2,1.3-2.5,1.7-3.8s1.2-2.6,1.1-4c0.9-1.5,0.5-3.2,1.1-4.7c0-2.9,0.3-5.9-0.5-8.7c-0.2-0.6-0.2-1.2-0.4-1.8
			c-0.6-1.4-1.2-2.8-2-4.1c-0.6-1-1.2-2-2-2.8c-0.9-0.9-1.8-1.9-2.8-2.7c-2.1-1.6-4.4-2.9-7.1-3.6c-1.3-0.3-2.7-0.6-4-0.7
			c-1.5-0.1-3-0.1-4.4-0.1c-1.1,0-2.3,0.1-3.6,0.6c-1,0.4-2.1,0.3-3.2,0.7c-1.2,0.5-2.5,0.7-3.7,1.2c-3.2,1.4-6.3,3.1-9.2,5.2
			c-2.1,1.5-4.1,3.2-6,5c-2.2,2.2-4.2,4.5-6,7c-1.3,1.8-2.4,3.7-3.5,5.6c-0.7,1.2-1.3,2.5-1.7,3.8c-0.5,1.3-1.1,2.6-1.3,3.9
			c-0.3,1.6-0.9,3.3-0.8,4.9C658,476.3,657.9,477,657.9,477.7z M652.9,456.7c0.1-0.3,0.3-0.7,0.4-1.1c-0.5-0.4-0.9-0.8-1.2-1.1
			c-0.2,0.2-0.3,0.4-0.5,0.5c0,0.6,0,1.2,0,1.8C652,456.8,652.4,456.8,652.9,456.7z M724.2,451.4c0,0.4,0,0.8,0,1.2
			c0.7,0.1,1.1-0.1,1.3-0.8C725.2,451.2,724.8,451.1,724.2,451.4z M731.4,471.8c0.2-0.4,0.4-0.8,0.6-1.3c-0.5,0.1-1,0.1-1.4,0.1
			c0,0.5,0,0.8,0,1.2C730.9,471.9,731.1,471.9,731.4,471.8z M725.9,466.6c0-0.2-0.1-0.3-0.1-0.5c-0.5,0.1-1,0.1-1.5,0.2
			c-0.2,0.2-0.3,0.3-0.4,0.5c0.1,0.2,0.3,0.4,0.4,0.5C724.9,467,725.4,466.8,725.9,466.6z M729.9,449.8c0,0.4,0,0.6,0,0.9
			c0.6-0.1,1.1-0.1,1.7-0.2C731,450,730.8,449.4,729.9,449.8z M651.7,494.7c-0.7-0.7-1.1-0.9-1.5-0.4c0.2,0.3,0.3,0.7,0.5,1
			C651.1,495,651.3,494.9,651.7,494.7z M701.1,433.8c0-0.5,0-0.9,0-1.4c-0.4,0.1-0.7,0.1-0.9,0.2
			C700.1,433.3,700.3,433.7,701.1,433.8z M677,508.9c-0.1,1-0.1,1,0.8,1.2c0-0.4,0-0.8,0-1.2C677.6,508.9,677.3,508.9,677,508.9z
			 M710.2,435.2c0-0.5,0-0.9,0-1.4c-0.4,0.1-0.7,0.1-0.9,0.2C709.2,434.6,709.3,435.1,710.2,435.2z M682.3,433.5c0-0.5,0-0.8,0-1.4
			c-0.5,0.3-0.9,0.5-1.6,0.9C681.5,433.3,681.8,433.4,682.3,433.5z M715.6,436.8c0.4,0,0.9-0.1,1.3-0.1c0-0.2,0-0.4,0-0.6
			c-0.4,0-0.9,0.1-1.3,0.1C715.6,436.5,715.6,436.6,715.6,436.8z M723.2,428.8c0.1-0.1,0.2-0.2,0.2-0.3c-0.2-0.2-0.4-0.5-0.5-0.7
			c-0.2,0.2-0.4,0.4-0.6,0.6C722.7,428.5,723,428.7,723.2,428.8z M652.9,498.9c0-0.1,0-0.3,0-0.4c-0.3,0-0.7,0.1-1.1,0.1
			c0,0.2,0.1,0.4,0.1,0.6C652.3,499.1,652.6,499,652.9,498.9z M697.2,430.2c-0.4,0-0.7,0.1-1.1,0.1c0.4,0.3,0.7,0.6,1.1,0.9
			C697.2,430.7,697.2,430.5,697.2,430.2z M698.3,426.3c0.3,0,0.6-0.1,1-0.1c0-0.2,0-0.4,0-0.6c-0.3,0-0.6,0.1-1,0.1
			C698.3,425.9,698.3,426.1,698.3,426.3z M720.4,480.5c0-0.1,0-0.2,0-0.4c-0.2,0-0.4-0.1-0.7-0.1c0,0.4,0,0.7,0,1
			C720,480.8,720.2,480.7,720.4,480.5z M649.7,487.1c0-0.7-0.2-0.7-0.7-0.4c0,0.2,0.1,0.3,0.1,0.5
			C649.3,487.1,649.5,487.1,649.7,487.1z M667.9,437.8c0.2,0,0.4,0,0.7-0.1c0-0.2-0.1-0.4-0.1-0.6c-0.2,0.1-0.4,0.1-0.6,0.2
			C667.9,437.5,667.9,437.6,667.9,437.8z M657.7,449c0,0.7,0.2,0.7,0.7,0.4c0-0.2-0.1-0.3-0.1-0.5C658.1,448.9,658,448.9,657.7,449z
			 M680.8,505.5c0,0.5,0,0.7,0,1c0.2-0.1,0.4-0.1,0.7-0.2C681.2,506.1,681.1,505.9,680.8,505.5z M667.2,442.2c0.5-0.1,0.8-0.1,1-0.1
			c0-0.2-0.1-0.4-0.1-0.7C667.8,441.6,667.6,441.8,667.2,442.2z M689.9,433c-0.1,0.5-0.1,0.5,0.7,0.4
			C690.3,433.2,690.1,433.1,689.9,433z M730.2,476.6c-0.1-0.3-0.1-0.4-0.1-0.3c-0.1,0.1-0.4,0.2-0.8,0.4
			C729.7,476.7,729.9,476.7,730.2,476.6z M664.7,507.9c-0.1,0-0.3,0-0.5,0.1c0,0.2,0.1,0.4,0.1,0.8
			C664.5,508.3,664.6,508.1,664.7,507.9z M662,446.9c-0.1,0-0.2,0-0.3,0.1c0,0.2,0.1,0.4,0.1,0.5c0.1,0,0.1,0,0.2,0
			C662,447.2,662,447.1,662,446.9z M731.3,467v0.1c0.1,0,0.2,0,0.3,0V467C731.5,467,731.4,467,731.3,467z"/>
	</g>
	<g>
		<path class="st0" d="M341.6,549.7c-1.2,0.1-2.4,0.2-3.5,0.4c-0.8,0.1-1.6,0.4-2.4,0.6c-0.8,0.1-1.7,0-2.5,0.3
			c-1.4,0.6-2.7,0.5-4.1,0.7c-0.7,0.1-1.3,0.3-1.8,0.7c0.2,1.5-0.6,3-0.4,4.6c-0.6,0.7-0.3,1.5-0.4,2.2c-0.1,0.6-0.2,1.2-0.4,1.7
			c-0.1,0.5,0.2,1.1-0.3,1.6c-0.1,0.1,0,0.2-0.1,0.3c-0.1,1.4-0.3,2.7-0.4,4.1c-0.1,0.6-0.2,1.3-0.4,1.9c-0.1,0.6,0.3,1.3-0.4,1.9
			c-0.1,0.1,0,0.2,0,0.3c-0.1,1.4-0.2,2.7-0.4,4.1c-0.2,1.4-0.4,2.8-0.8,4.1c-0.2,0.7-0.7,1.4-1.3,1.9c-0.9,0.8-2,1.4-3.2,1.6
			c-2.4,0.4-4.8,0.6-7.1,1.1c-1.7,0.4-3.3,0.5-4.9,0.9c-0.7,0.2-1.4,0.4-2.1,0.3c-1-0.1-1.5-0.8-2.2-1.4c0-0.9,0-1.9,0.1-2.9
			c0.1-0.6,0.4-1.2,0.4-1.9c0-0.6-0.1-1.2,0.4-1.7c-0.2-1.2,0.5-2.4,0.4-3.6c0-0.7,0.2-1.4,0.4-2.1c0.1-0.7-0.3-1.4,0.4-2.1
			c0.1-0.1,0-0.2,0-0.3c0.1-1.4,0.2-2.8,0.5-4.2c0.3-1.8,0.5-3.5,0.8-5.3c0.2-0.9,0.1-1.7,0.4-2.6c0.3-0.9,0.3-1.7,0.3-2.6
			c0-0.6,0.5-1.2,0.4-1.9c-0.1-0.6-0.2-1.2,0.3-1.7c0.1-0.1,0-0.2,0-0.3c0.1-1.4,0.3-2.7,0.4-4.1c0.1-0.6,0.2-1.2,0.4-1.7
			c0.1-0.6-0.1-1.2,0.3-1.9c0.3-0.5-0.1-1.3,0.1-1.8c0.4-0.9,0.1-1.8,0.4-2.6s0.3-1.6,0.4-2.4c0.1-0.6,0.3-1.3,0.4-1.9
			c0.1-0.6-0.1-1.3,0.4-1.9c0.1-0.1,0-0.2,0-0.3c0.1-1.4,0.2-2.8,0.5-4.2c0.2-0.9,0.1-1.8,0.4-2.6c0.3-0.9,0.1-1.8,0.4-2.6
			c0.3-0.9,0.1-1.9,0.4-2.7c0.3-0.9,0.1-1.7,0.4-2.6c0.3-1,0.1-2,0.4-2.9c0.3-1,0.2-1.8,0.4-2.7c0.1-0.5,0.3-1,0.3-1.6
			c0-0.5-0.1-1,0.2-1.6c0.3-0.4,0.1-1.1,0.2-1.6c0-0.6,0.5-1.2,0.4-1.9c-0.1-0.6-0.1-1.2,0.3-1.7c0.1-0.1,0-0.4,0-0.7
			c0.1-1.4,0.1-2.7,0.5-4.1c0.3-1,0.1-1.9,0.4-2.7c0.4-0.9,0.2-1.7,0.3-2.5c0.5-0.9,0.9-1.8,1.6-2.5c0.9-0.9,1.9-1.4,3-1.6
			c2.1-0.2,4.2-1.1,6.3-1c1.4-0.7,3-0.4,4.4-0.8c1.4-0.5,2.9-0.3,4.2-0.8c1.7-0.5,3.3-0.4,4.9-0.9c1.4-0.4,2.9-0.3,4.2-0.8
			c1.5-0.5,3-0.4,4.4-0.8c1.5-0.5,3-0.3,4.4-0.8c1.5-0.5,3-0.4,4.4-0.8c3.1-0.9,6.1-0.8,9.1-1.3c1.6,0.3,3.2,0,4.8,0.4
			c0.9,0.2,1.9,0.2,2.9,0.4c1.6,0.4,3.1,0.9,4.6,1.6c2.5,1.1,4.3,2.9,6.2,4.7c1.2,1.1,1.9,2.6,2.6,4.1c0.8,1.6,1.2,3.4,1.6,5.1
			c0.9,3.3,0.4,6.8,0.4,10.2c0,0.7-0.4,1.5-0.4,2.2s-0.2,1.4-0.4,2.1c-0.2,0.7-0.4,1.4-0.6,2.2c-0.2,0.7-0.3,1.4-0.5,2
			c-0.2,0.7-0.3,1.5-0.7,2.1c-1.1,1.7-1.3,3.8-2.8,5.4c-0.7,2-2,3.7-3.2,5.4s-2.7,3.2-4.1,4.8c-2.1,2.4-4.7,4.4-7.2,6.4
			c-1.3,1-2.9,1.8-4.3,2.8c0.9,1.3,1.9,2.6,2.8,3.9c1.2,1.6,2.5,3.1,3.7,4.7c0.5,0.7,1.1,1.3,1.5,2s1,1.4,1.5,2.1
			c1,1.2,1.9,2.6,2.8,3.9c1.5,2.2,3.1,4.4,4.6,6.6c0.2,0.3,0.5,0.6,0.7,1c-0.2,0.7,0.1,1.4-0.3,2.2c-0.6,1.3-1.7,2-2.9,2.2
			c-2.1,0.3-4.2,1.1-6.3,1c-1.5,0.7-3.1,0.4-4.6,0.9c-1.4,0.4-2.8,0.5-4.3,0.7c-0.4,0.1-0.7,0.3-1,0.4c-1.2,0.3-2.3,0.1-3.3-0.1
			c-1.1-0.2-1.7-1.1-2.4-1.9c-1.2-1.6-2.4-3.3-3.7-4.9c-0.8-0.9-1.4-1.9-2.1-2.9c-1.3-1.7-2.5-3.6-3.9-5.3c-1.5-1.8-2.7-3.9-4.1-5.8
			c-0.8-1.1-1.6-2.3-2.4-3.4C341.9,550.2,341.8,549.9,341.6,549.7z M330.1,533.9c0.5-0.2,1-0.4,1.4-0.5c1.4-0.3,2.7-0.3,4.1-0.7
			c1.5-0.5,3.2-0.4,4.7-0.9c1.3-0.4,2.7-0.1,4.1-0.8c2.3,0,4.5-1,6.8-1c0.7,0,1.4-0.5,2.1-0.5c0.8,0,1.4-0.3,2.1-0.6
			c1.3-0.6,2.6-1,3.8-1.9c2.1-1.4,3.7-3.3,5.4-5.2c0.5-0.6,1.1-1.2,1.4-1.9c1.3-2.5,2.2-5.2,2.5-7.9c0.2-1.6,0.2-3.2-0.1-4.9
			c-0.3-1.4-0.8-2.6-1.4-3.8c-0.5-1-1.2-1.9-2.1-2.3c-1.7-0.7-3.6-1.4-5.6-1.1c-1.4,0.2-2.7,0.1-4.1,0.7c-0.9,0.4-1.9,0.2-2.8,0.4
			c-1,0.2-1.9,0.4-2.9,0.6c-1.1,0.2-2.1,0.3-3.2,0.6c-1.6,0.5-3.3,0.6-4.9,0.8c-2.3,0.3-4.5,1.1-6.7,1.1c-0.2,1.7-0.4,3.2-0.5,4.8
			c0,0.1,0,0.3,0,0.3c-0.5,0.5-0.3,1-0.4,1.6s-0.3,1.2-0.4,1.7c-0.2,1.4-0.3,2.8-0.4,4.2c0,0.1,0,0.3,0,0.3
			c-0.7,0.6-0.2,1.3-0.4,1.9c-0.1,0.6-0.3,1.3-0.4,1.9c-0.2,1.4-0.1,2.7-0.5,4.1c-0.2,0.9-0.1,1.8-0.4,2.6s-0.3,1.4-0.3,2.1
			c0,0.8-0.5,1.5-0.4,2.2C330.4,532.5,330.2,533.1,330.1,533.9z M333.5,536.5c-0.9,0.8-1.7,1.5-2.8,2.4c0.6,0.3,1,0.6,1.4,0.8
			c0.4-0.2,0.7-0.4,1-0.6c0.3-0.6,0.5-1.1,0.8-1.6C333.8,537.2,333.7,536.9,333.5,536.5z M359.2,556.2c0.3,0,0.5-0.1,0.8-0.1
			c0.2-0.4,0.4-0.8,0.5-1.1c-0.2-0.3-0.4-0.6-0.6-1c-0.4,0.2-0.7,0.4-0.9,0.6C359.1,555.2,359.2,555.6,359.2,556.2z M324.2,512.1
			c-0.4-0.5-0.8-0.9-1.2-1.4c-0.1-0.1-0.3,0-0.5,0c0,0.5,0,0.9,0,1.2C323,512.6,323.5,512.3,324.2,512.1z M376.3,515.1
			c0.7-0.5,0.6-1.1,0.4-1.6c-0.4,0.3-0.9,0.5-1.2,0.9c-0.2,0.2-0.2,0.5-0.4,0.9C375.6,515.1,376,515.1,376.3,515.1z M358.4,560.2
			c0.4,0,0.9-0.1,1.3-0.1c0-0.3,0-0.6,0-0.9c-0.4,0-0.9,0.1-1.3,0.1C358.4,559.6,358.4,559.9,358.4,560.2z M356.6,560.5
			c-0.3-0.1-0.6-0.2-0.9-0.3c-0.1,0.6-0.3,1.2,0.4,1.5c0.1,0.1,0.3,0,0.5,0C356.6,561.3,356.6,561,356.6,560.5z M315.9,515.7
			c0.1,0,0.3,0,0.4,0.1c0.2-0.7,0.5-1.5,0.7-2.2l-0.1-0.1c-0.1,0-0.3,0-0.5,0C316.3,514.2,316.1,514.9,315.9,515.7z M335.6,542.2
			c0.3-0.4,0.5-0.6,0.8-1c-0.4-0.2-0.6-0.4-1-0.6c-0.2,0.4-0.4,0.7-0.5,1.1C335.1,541.8,335.3,541.9,335.6,542.2z M348.9,550.3
			c0,0.3,0,0.6,0,1c0.4-0.1,0.7-0.1,1-0.2C349.8,550.5,349.6,550.2,348.9,550.3z M350.5,538.1c0.4,0,0.8-0.1,1.3-0.1
			c0-0.2,0-0.4,0-0.6c-0.4,0-0.8,0.1-1.3,0.1C350.5,537.7,350.5,537.9,350.5,538.1z M338.7,491.7c-0.5,0.1-0.9,0.2-1.4,0.2
			c0.5,0.5,0.8,0.7,1.4,0.3C338.6,492.2,338.7,492.1,338.7,491.7z M342.6,496.9c-0.1,0.1-0.2,0.1-0.3,0.2c0,0.3,0.1,0.6,0.1,1.1
			c0.4-0.4,0.6-0.6,0.9-0.8C343,497.2,342.8,497.1,342.6,496.9z M325,530.3c0.3,0.2,0.6,0.3,1.1,0.5c-0.1-0.6-0.1-0.9-0.2-1.4
			C325.6,529.8,325.3,530.1,325,530.3z M328.5,523.8c-0.3,0-0.6,0.1-1,0.1c0,0.2,0,0.4,0,0.6c0.3,0,0.6-0.1,1-0.1
			C328.5,524.2,328.5,524,328.5,523.8z M363.1,494.7c-0.3,0.3-0.6,0.6-0.8,0.9c0.2,0,0.5,0,0.8-0.1
			C363.1,495.1,363.1,494.9,363.1,494.7z M359.4,550.2c0,0.5,0,0.7,0,1c0.2-0.1,0.4-0.1,0.7-0.2
			C359.8,550.7,359.7,550.6,359.4,550.2z M317.5,521.6c0-0.7-0.2-0.7-0.7-0.4c0,0.2,0.1,0.3,0.1,0.5
			C317.1,521.6,317.3,521.6,317.5,521.6z M323.1,559.7c-0.5,0.1-0.8,0.1-1,0.1c0,0.2,0.1,0.4,0.1,0.7
			C322.5,560.3,322.6,560.1,323.1,559.7z M363.1,537.8c0-0.5,0-0.7,0-1c-0.2,0.1-0.4,0.1-0.7,0.2
			C362.7,537.2,362.8,537.4,363.1,537.8z M312.3,560.5c-0.2,0-0.4,0-0.7,0.1c0,0.2,0.1,0.4,0.1,0.6c0.2-0.1,0.4-0.1,0.6-0.2
			C312.3,560.8,312.3,560.7,312.3,560.5z M365.1,553.3c-0.1,0.5-0.1,0.5,0.7,0.4C365.4,553.5,365.2,553.4,365.1,553.3z M371.2,526.9
			c-0.2,0.1-0.4,0.2-0.7,0.3l0.1,0.1c0.2,0,0.4,0,0.6-0.1C371.2,527,371.2,526.9,371.2,526.9z M378.9,504.1c0.1,0,0.3,0,0.5-0.1
			c0-0.2-0.1-0.4-0.1-0.8C379.1,503.7,379,503.9,378.9,504.1z M316.8,559.6h0.1c0-0.1,0-0.2,0-0.3h-0.1
			C316.8,559.4,316.8,559.5,316.8,559.6z M353.2,547.8h-0.1c0,0.1,0,0.2,0,0.3h0.1C353.2,548,353.2,547.9,353.2,547.8z M320.4,566.9
			h0.1c0-0.1,0-0.2,0-0.3h-0.1C320.4,566.7,320.4,566.8,320.4,566.9z M372.8,562.9L372.8,562.9c0.1,0.1,0.2,0.1,0.3,0.1v-0.1
			C373,562.8,372.9,562.8,372.8,562.9z M313.4,546h0.1c0-0.1,0-0.2,0-0.3h-0.1C313.4,545.8,313.4,545.9,313.4,546z"/>
	</g>
	<g>
		<path class="st0" d="M825.3,450.4c0.3-1.3,0.4-2.4,0.6-3.6c0.1-0.9,0.1-1.9,0.3-2.7c0.3-0.9,0.1-1.7,0.4-2.6
			c0.3-0.9,0.2-1.8,0.4-2.7c0.2-0.9,0.1-1.8,0.4-2.6c0.3-0.9,0.1-1.8,0.3-2.6c0.3-0.9,0.3-1.7,0.3-2.6c0-0.6,0.5-1.2,0.4-1.9
			c-0.1-0.6-0.1-1.2,0.3-1.7c0.1-0.1,0-0.2,0-0.3c0.1-1.4,0.1-2.8,0.4-4.2c0.2-0.9,0.1-1.8,0.4-2.6c0.3-0.9,0.1-1.8,0.3-2.6
			c0.3-0.9,0.1-1.9,0.4-2.7c0.3-0.9,0.1-1.7,0.4-2.6c0.3-1,0.1-2,0.4-2.9c0.3-1,0.1-1.8,0.3-2.7c0.1-0.5,0.3-1,0.3-1.6
			c0-0.5-0.1-1,0.2-1.6c0.2-0.5,0.1-1.1,0.2-1.6c0-0.6,0.5-1.2,0.4-1.9c0-0.5,0.2-1.2,0.3-1.7c0.5-1.7,1.9-2.7,3.7-3.1
			c0.8-0.2,1.6-0.4,2.4-0.6c0.8-0.1,1.6,0,2.3-0.3c1.5-0.6,3-0.3,4.4-0.8c2.2-0.7,4.3-0.5,6.4-1c0.5,0.5,1,1,1.6,1.6
			c0,0.7,0,1.7,0,2.6c0,0.7-0.2,1.4-0.3,2.1c-0.1,0.6,0.3,1.3-0.3,1.9c-0.1,0.1,0,0.2,0,0.3c-0.1,1.4-0.2,2.8-0.4,4.2
			c-0.1,0.6-0.3,1.2-0.3,1.7c-0.1,0.5,0.1,1.1-0.4,1.6c-0.1,0.1,0,0.2,0,0.3c-0.1,1.4-0.1,2.8-0.4,4.2c-0.2,0.9-0.1,1.9-0.4,2.7
			c-0.3,0.9-0.2,1.8-0.4,2.7c-0.4,1.7-0.4,3.3-0.7,5c-0.2,1-0.1,2-0.4,2.9c-0.3,1,0,1.9-0.4,2.7c-0.3,0.9-0.1,1.8-0.4,2.6
			c-0.3,0.9-0.3,1.7-0.3,2.6c0,0.6-0.5,1.2-0.4,1.9c0.1,0.6,0.2,1.2-0.3,1.7c-0.1,0.1,0,0.3,0,0.5c0,0.8,0,1.6-0.3,2.4
			c-0.3,0.7,0.1,1.5-0.4,2.2c0,0,0,0.1,0,0.2c-0.1,1.4-0.3,2.8-0.4,4.2c0,0.6-0.5,1.2-0.4,1.9c0.1,0.5,0,1.1-0.3,1.7s0.1,1.3-0.1,2
			c-0.4,1.7-0.4,3.3-0.7,5c-0.2,0.9-0.1,1.9-0.4,2.7c-0.3,0.9-0.1,1.9-0.4,2.7c-0.3,0.9-0.1,1.9-0.4,2.7c-0.3,0.9-0.2,1.7-0.3,2.6
			c-0.3,1.8-0.4,3.5-0.8,5.3c-0.2,0.9-0.1,1.7-0.3,2.6c-0.3,0.9-0.3,1.7-0.3,2.6c0,0.6-0.5,1.2-0.4,1.9c0.1,0.5,0.1,1.1-0.3,1.7
			c-0.2,0.3,0,0.8,0,1.1c0,0.9-0.3,1.8-0.8,2.6c-0.7,1.1-1.7,1.9-3,1.7c-1.3-0.5-2.4-1.3-3.4-2.2c-0.6-0.5-1.3-1-2-1.5
			c-0.6-0.4-1-1.2-1.9-1.3c-0.1,0-0.2-0.2-0.4-0.3c-1.4-1.1-2.7-2.3-4.1-3.3c-1.9-1.4-3.7-2.8-5.5-4.2c-1.8-1.4-3.6-2.7-5.4-4.2
			c-1.8-1.5-3.8-2.9-5.6-4.4c-1.7-1.3-3.4-2.6-5.1-3.9c-1.8-1.4-3.7-2.8-5.5-4.2c-1.7-1.4-3.5-2.7-5.2-4c-1.9-1.5-3.8-2.9-5.6-4.4
			c-1.9-1.6-3.9-3-6-4.5c-0.2,0.2-0.4,0.4-0.5,0.5c-0.2,1.6-0.2,3.2-0.5,4.7c-0.2,0.9-0.1,1.9-0.4,2.7c-0.3,0.9-0.1,1.9-0.4,2.7
			c-0.3,0.9-0.1,1.8-0.4,2.6c-0.4,0.9-0.1,1.8-0.4,2.6c-0.3,0.9-0.1,1.9-0.4,2.7c-0.3,0.9-0.1,1.7-0.4,2.6c-0.3,0.9-0.1,1.9-0.4,2.7
			c-0.3,0.9-0.1,1.9-0.4,2.7c-0.3,0.9-0.1,1.8-0.4,2.6c-0.4,0.9-0.1,1.8-0.4,2.6c-0.3,0.9-0.1,1.9-0.4,2.7c-0.3,0.9-0.1,1.8-0.4,2.6
			c-0.3,0.9-0.1,1.9-0.4,2.7c-0.3,0.9-0.1,1.9-0.4,2.7c-0.3,0.9-0.1,1.7-0.4,2.6c-0.2,0.8-0.1,1.7-0.4,2.4c-0.5,1.2-0.2,2.3-0.6,3.5
			c-0.8,2.1-2.4,3.1-4.2,3.6c-0.7,0.2-1.4,0-2,0.3c-1.6,0.5-3.2,0.4-4.7,0.9c-1.5,0.4-2.9,0.5-4.4,0.7c-0.6,0.1-1.1,0.4-1.7,0.5
			c-0.6,0.1-1.1,0.1-1.5,0.2c-1.1-0.4-1.8-0.9-2.3-2.1c0.2-0.7-0.2-1.5,0.3-2.5c0.4-0.8-0.3-1.8,0.4-2.7c0.1-0.1,0-0.3,0-0.5
			c0.1-1.4,0.1-2.8,0.4-4.2c0.2-0.9,0.1-1.8,0.4-2.6c0.4-0.9,0.1-1.8,0.4-2.6c0.3-0.9,0.1-1.9,0.4-2.7c0.3-0.9,0.1-1.7,0.4-2.6
			c0.3-0.9,0.1-1.9,0.4-2.7c0.3-0.9,0.1-1.9,0.4-2.7c0.3-0.9,0.1-1.8,0.4-2.6c0.4-0.9,0.1-1.8,0.4-2.6c0.3-0.9,0.1-1.9,0.4-2.7
			c0.3-0.9,0.1-1.7,0.4-2.6c0.3-0.9,0.1-1.9,0.4-2.7c0.3-0.9,0.1-1.9,0.4-2.7c0.3-0.9,0.1-1.8,0.4-2.6c0.4-0.9,0.1-1.8,0.4-2.6
			c0.3-0.9,0.1-1.9,0.4-2.7c0.3-0.9,0.1-1.7,0.4-2.6c0.3-0.9,0.1-1.9,0.4-2.7c0.3-0.9,0.1-1.9,0.4-2.7c0.3-0.9,0.1-1.7,0.4-2.6
			c0.3-0.9,0.1-1.8,0.4-2.6c0.3-0.9,0.1-1.9,0.4-2.7c0.3-0.9,0.1-1.7,0.4-2.6c0.3-0.9,0.1-1.9,0.4-2.7c0.3-0.9,0.1-1.9,0.4-2.7
			c0.3-0.9,0.1-1.7,0.4-2.6c0.3-0.9,0.1-1.8,0.4-2.6c0.3-0.9,0.1-1.9,0.4-2.7c0.3-0.9,0.1-1.7,0.4-2.6c0.3-0.9,0.1-1.9,0.4-2.7
			c0.3-0.9,0.1-1.9,0.4-2.7c0.2-0.8,0.3-1.5,0.3-2.2c0.3-0.4,0.5-0.8,0.9-1.4c0.8-0.6,1.8-0.4,3-0.6c0.9,0.6,1.9,1.3,2.9,2
			c1.6,1.3,3.1,2.7,4.8,3.9c0.9,0.6,1.7,1.6,2.7,2.1c1.5,0.8,2.4,2.3,4,3c0.2,0.1,0.3,0.3,0.5,0.4c1.6,1.4,3.2,2.8,4.9,4
			c1.2,0.8,2.1,1.8,3.2,2.6c2.1,1.5,4.1,3.2,6.1,4.8c1.1,0.9,2.1,1.8,3.2,2.6c2.2,1.6,4.2,3.3,6.3,5c2,1.6,4.1,3.2,6.1,4.8
			c1.1,0.8,2,1.7,3.1,2.5c2.3,1.7,4.6,3.5,6.8,5.4C825,450.4,825.1,450.3,825.3,450.4z M842.6,429.2c-0.5,0.1-0.8,0.5-0.8,0.9
			c0,0.5,0.3,0.8,0.8,0.8s0.9-0.5,0.9-1C843.4,429.4,843.1,429.1,842.6,429.2z M846.3,419.1c0-0.4,0-0.6,0-0.8
			c-0.2,0-0.4-0.1-0.6-0.1c-0.2-0.1-0.3-0.2-0.5-0.3c-0.4,0.3-0.7,0.5-1.3,0.9c0.4,0.1,0.7,0.2,1,0.3c-0.1,0.1-0.1,0.1-0.2,0.2
			C845.2,419.2,845.7,419.2,846.3,419.1z M792.2,443.1c-0.2,1,0,1.3,0.7,1.3c0.4,0,0.8-0.4,0.8-1c-0.1-0.1-0.3-0.2-0.6-0.4
			C792.8,443.1,792.5,443.1,792.2,443.1z M819.3,465.6c-0.1-0.8-0.5-0.9-1.2-0.8c-0.2,0.2-0.4,0.5-0.6,0.8c0.3,0.2,0.5,0.4,0.8,0.6
			C818.5,466,818.9,465.8,819.3,465.6z M769.5,483.2c0,0-0.1,0.2-0.2,0.2c-0.2,0.1-0.4,0.2-0.6,0.3c0,0.3,0,0.6,0.1,0.8
			c0.5-0.1,0.8-0.1,1.2-0.1c0.2-0.3,0.3-0.5,0.6-0.8C770.1,483.5,769.8,483.4,769.5,483.2z M835.3,458.1c0.8,0.4,1.2,0,1.6-0.7
			c-0.3-0.2-0.5-0.4-0.9-0.7C835.7,457.2,835.5,457.6,835.3,458.1z M839.7,411.2c-0.3-0.1-0.6-0.2-1-0.3c0,0.5,0,0.9,0,1.3
			c0.2,0.1,0.5,0.3,0.9,0.5C839.6,412.1,839.7,411.7,839.7,411.2z M836.4,467.4c0.1,0.1,0.2,0.2,0.3,0.3c0.1,0.2,0.1,0.3,0.1,0.5
			c0.8-0.3,1-0.7,0.8-1.3c-0.3-0.1-0.6-0.2-0.8-0.3C836.7,466.8,836.5,467,836.4,467.4z M767.2,436.1c0.9-0.5,0.8-1.1,0.7-1.6
			c-0.4,0.4-0.8,0.8-1.2,1.3c0,0,0.2,0.2,0.3,0.3C767,436.1,767.1,436.1,767.2,436.1z M844.5,421.7c0.1-1.4,0.1-1.4-0.8-1.1
			C843.4,421.2,843.7,421.6,844.5,421.7z M836.8,417.4c0.2-0.9,0.1-1.3-0.2-1.3c-0.3,0.1-0.6,0.2-1,0.4
			C836.1,416.9,836.4,417,836.8,417.4z M765.9,467.5c0.3-0.4,0.4-0.6,0.6-0.9c-0.8-0.5-1.2-0.5-1.4,0
			C765.3,466.9,765.5,467.1,765.9,467.5z M795.7,437.8c-0.7,0.1-0.9,0.7-1.5,1.1c0.7-0.1,1.1-0.1,1.5-0.2
			C795.7,438.4,795.7,438.1,795.7,437.8z M785.7,429.5c0-0.3,0-0.7,0-0.9c-0.3,0-0.6,0.1-0.9,0.1c0,0.4,0.1,0.7,0.1,0.9
			C785.2,429.6,785.4,429.5,785.7,429.5z M843.9,400.4c0,0.4,0,0.7,0,1c0.4-0.1,0.7-0.1,0.9-0.2c0-0.4,0-0.6,0-0.9
			C844.5,400.4,844.2,400.4,843.9,400.4z M782.1,424.8c-0.5,0.4-0.8,0.6-1.2,0.9c0.3,0.2,0.5,0.3,0.7,0.5c0.1-0.1,0.2-0.3,0.4-0.4
			C782.1,425.5,782.1,425.2,782.1,424.8z M783.7,435.6c0.1,0.1,0.2,0.1,0.3,0.2c0.3-0.2,0.5-0.4,0.7-0.6c-0.2-0.2-0.3-0.4-0.5-0.6
			C784,434.9,783.8,435.2,783.7,435.6z M779.4,446.5c0-0.3,0-0.7,0-1c-0.2,0.1-0.4,0.1-0.6,0.2c0,0.3,0,0.6,0.1,0.9
			C779.1,446.5,779.3,446.5,779.4,446.5z M769.2,457.6c0.3,0.3-0.3,1.1,0.7,0.9c0-0.3,0-0.6,0-0.9
			C769.7,457.5,769.6,457.5,769.2,457.6z M803.9,455.8c0.5-0.1,0.8-0.1,1-0.1c0-0.2-0.1-0.4-0.1-0.7
			C804.5,455.3,804.4,455.4,803.9,455.8z M835.6,438c-0.5,0.1-0.8,0.1-1,0.1c0,0.2,0.1,0.4,0.1,0.7C835,438.5,835.2,438.4,835.6,438
			z M766.7,480.1c0.5-0.1,0.8-0.1,1-0.1c0-0.2-0.1-0.4-0.1-0.7C767.3,479.5,767.1,479.7,766.7,480.1z M775.5,450.8
			c-0.1-0.1-0.1-0.1-0.2-0.2c-0.2,0-0.3,0.1-0.5,0.2c0,0.2,0.1,0.4,0.1,0.8C775.2,451.2,775.3,451,775.5,450.8z"/>
	</g>
	<g>
		<path class="st0" d="M874.5,454.2c0.6-0.1,1.1,0,1.6-0.2c1-0.3,1.9,0.1,2.5,0.5c1.1,0.8,2.4,1.2,3.7,1.7c1.1,0.5,2.5,0.8,3.7,1.2
			c1.6,0.6,3.3,0.9,5,1.2c1.6,0.3,3.4,0.5,5,0.7c1.1,0.2,2.3-0.1,3.5,0.2c1.1,0.2,2.3-0.2,3.5-0.3c1.2-0.1,2.5-0.2,3.7-0.4
			c0.6-0.1,1.1-0.4,1.7-0.5c0.5-0.1,1.1,0,1.5-0.5c1.5-0.1,2.9-0.8,4.3-1.5c2.1-0.9,4.1-2.1,5.8-3.6c0.7-0.6,1.4-1.3,2.1-2
			c1.3-1.3,2.1-2.9,2.6-4.5c0.8-2.4-0.3-5.1-2.5-6.3c-2.4-1.4-4.6-1.6-6.9-1.6c-1.1-0.6-2.4,0.2-3.6-0.2c-0.7-0.2-1.6,0-2.4-0.1
			c-1.3-0.2-2.7,0-4,0.1c-0.8,0.1-1.5-0.3-2.4-0.1c-0.7,0.2-1.5,0.3-2.2-0.1c-0.1-0.1-0.3,0-0.5,0c-0.8,0.1-1.5,0.2-2.2-0.1
			c-0.7-0.2-1.4,0.2-2.2-0.1c-0.7-0.2-1.6-0.1-2.4-0.1c-1.4,0-2.8-0.3-4.2-0.3c-0.8,0-1.6-0.2-2.4-0.4c-0.8-0.2-1.5-0.6-2.3-0.7
			c-1.9-0.3-3.5-1.2-5.1-2c-2.2-1.1-4-2.7-5.7-4.5c-1.3-1.4-2.2-3-2.6-4.9c-0.3-1.2-0.6-2.5-0.6-3.8c0-1.1,0-2.2,0-3.3
			c0.2-3.2,0.8-6.4,2-9.6c0.6-1.7,1.3-3.4,2.2-5c0.7-1.4,1.6-2.6,2.4-3.9c1-1.6,2.3-2.9,3.6-4.2c2.1-2,4.3-3.9,6.8-5.5
			c1.1-0.7,2.1-1.5,3.2-2.1c2.6-1.4,5.2-2.8,8-3.9c0.7-0.3,1.4-0.6,2.1-0.8c0.7-0.2,1.4-0.6,2.2-0.7s1.5-0.4,2.2-0.7
			c0.8-0.3,1.6-0.1,2.2-0.6c0.7-0.5,1.4-0.2,2.1-0.5c1.3-0.5,2.6-0.4,3.9-0.8c2-0.7,4.1-0.6,6.1-0.9c1.1-0.2,2.2-0.3,3.4-0.3
			c0.7,0,1.5,0,2.2,0.1c0.7,0,1.5-0.4,2.2,0.1c0.1,0.1,0.3,0,0.5,0c1.9-0.2,3.7,0.2,5.4,0.5c1.6,0.3,3.2,0.6,4.7,1.1
			c2,0.7,4.2,1.1,6,2.3c0.6,0.4,1.3,0.4,1.9,0.8c0.8,0.5,1.6,1.1,2.3,1.6c0,1.1,0,2.1,0,3c-1.1,2-2.7,3.5-3.9,5.3
			c-0.5,0.8-1.2,1.4-1.7,2.1c-1.4,2-3,3.8-4.5,5.7c-0.8,1-1.7,1.6-3,1.6c-0.4,0-0.9,0.1-1.3,0c-1.9-0.7-3.8-1.5-5.7-2.2
			c-2.2-0.8-4.6-1.4-7.1-1.6c-1.4-0.1-2.7-0.2-4.1-0.3c-2.5-0.2-5,0.3-7.4,0.6c-1.4,0.2-2.9,0.6-4.3,1.1c-1.4,0.5-2.8,1.1-4.2,1.7
			s-2.6,1.4-3.8,2.2c-1.8,1.1-3.1,2.7-4.2,4.5c-0.5,0.8-0.7,1.7-0.8,2.6c-0.2,1-0.1,2,0.3,2.8c0.4,0.6,0.5,1.5,1.5,1.5
			c1.1,1,2.5,1.3,4,1.6c0.8,0.1,1.5,0.4,2.3,0.3c1.6-0.1,3.1,0.5,4.7,0.2c0.8,0.6,1.9-0.2,2.7,0.4c1.2-0.3,2.2,0.1,3.4,0
			c0.8-0.1,1.6,0,2.4,0.1c0.7,0,1.6-0.5,2.2,0.1c0.1,0,0.2,0,0.3,0c1.3-0.4,2.6,0,3.9,0c2,0,4.1,0.1,6.1,0.4
			c1.4,0.2,2.8,0.2,4.1,0.5s2.5,0.7,3.8,0.9c1.5,0.3,2.9,0.9,4.1,1.6c1.4,0.8,2.8,1.5,3.9,2.7c1.1,1.3,2.5,2.4,3.1,4.1
			c0.5,1.4,1,2.8,1.3,4.3c0.4,2.2,0.1,4.4,0.2,6.5c0,0.8-0.1,1.6-0.3,2.4s0.2,1.6-0.4,2.4c0.1,1.7-0.9,3.2-1.1,4.9
			c-0.1,0.6-0.5,1.3-0.8,1.9c-0.5,1-0.7,2.2-1.3,3.1c-0.7,1-1.2,2-1.8,3c-1.7,2.8-3.9,5.2-6.3,7.4c-2,1.9-4.2,3.5-6.5,5
			c-3.5,2.3-6,3.4-9.6,5c-1.7,0.8-3.6,1.3-5.3,1.9c-0.8,0.3-1.5,0.3-2.2,0.6c-0.7,0.3-1.4,0.4-2.1,0.5c-0.6,0.1-1.2,0.6-1.9,0.6
			c-0.6,0-1.1,0.2-1.7,0.4c-0.9,0.3-1.9,0.3-2.8,0.4c-2.2,0.2-4.4,0.9-6.6,1.1c-1,0.1-1.9-0.2-2.9-0.1s-2.1,0.4-3,0.3
			c-0.8-0.1-1.6-0.1-2.4,0c-0.8,0.1-1.6-0.1-2.4-0.1c-1.9-0.1-3.8-0.3-5.6-0.7c-1.5-0.3-2.9-0.6-4.4-1.1c-1.7-0.6-3.3-1.3-5-1.9
			c-2-0.7-3.8-1.8-5.5-3c-0.2-0.1-0.4-0.1-0.5-0.2c-0.3-0.5-0.5-0.9-0.8-1.5c-0.2-1.6,0.6-3,1.8-4.5c1.1-1.4,2.2-2.7,3.1-4.2
			c0.3-0.6,0.9-1.1,1.4-1.7c1.1-1.6,2.3-3.1,3.6-4.6C873.4,455.1,874,454.6,874.5,454.2z M903.4,466.2c-0.4-0.2-0.7-0.4-1.1-0.6
			c-0.3,0.2-0.6,0.4-0.9,0.5c0,0.2,0,0.4,0,0.7c0.6,0.2,1.2,0.6,2,0.2C903.4,466.8,903.4,466.5,903.4,466.2z M879.8,466.2
			c-0.5,0.4-0.9,0.7-1.2,1.1c0,0.3,0,0.5,0,0.7c0.5-0.1,0.9-0.1,1.2-0.1c0.2-0.4,0.3-0.8,0.5-1.1C880.1,466.6,880,466.4,879.8,466.2
			z M875.9,416.1c0,0.4,0,0.8,0,1.2c0.3,0,0.6-0.1,0.8-0.1c0.2-0.7,1-1.5-0.1-1.9C876.4,415.6,876.1,415.9,875.9,416.1z
			 M917.3,423.7c-0.9-0.2-1.2,0.5-1.6,0.9c0.6,0.4,0.6,0.4,1.6,0.2C917.3,424.6,917.3,424.2,917.3,423.7z M927.1,429.3
			c0.5-0.1,0.9-0.1,1.3-0.1c0-0.3,0-0.5,0-0.7s0-0.4-0.1-0.6C927.1,428.1,927.1,428.1,927.1,429.3z M904.9,467.4
			c0.3,0.2,0.6,0.4,0.8,0.5c0.6-0.9,0.7-1.2,0.1-1.4C905.6,466.7,905.3,466.9,904.9,467.4z M889.3,399.6c0-0.3,0-0.7,0-0.9
			c-0.3,0-0.6,0.1-0.9,0.1c0,0.4,0.1,0.7,0.1,0.9C888.8,399.7,889,399.6,889.3,399.6z M904.9,423.4c-0.4,0-0.8,0.1-1.3,0.1
			c0,0.2,0,0.4,0,0.6c0.4,0,0.8-0.1,1.3-0.1C904.9,423.7,904.9,423.6,904.9,423.4z M887,411.3c-0.3-0.2-0.5-0.3-0.8-0.4
			c-0.2,0.2-0.4,0.4-0.6,0.6c0.2,0.2,0.5,0.3,0.8,0.6C886.6,411.8,886.8,411.6,887,411.3z M903,395.2c-0.1-0.5-0.1-0.8-0.2-1.3
			c-0.4,0.5-0.7,0.8-1.1,1.3C902.2,395.2,902.5,395.2,903,395.2z M901,468.9c0.3,0.2,0.6,0.3,1.1,0.5c-0.1-0.6-0.1-0.9-0.2-1.4
			C901.6,468.4,901.3,468.6,901,468.9z M910.6,466.4c0.3-0.1,0.4-0.1,0.7-0.2c0-0.3,0-0.6-0.1-1c-0.3,0.1-0.4,0.1-0.6,0.2
			C910.6,465.7,910.6,466,910.6,466.4z M890.2,473.5c0-0.2,0-0.4,0-0.7c-0.2,0.1-0.4,0.1-0.6,0.2c0,0.2,0.1,0.4,0.1,0.6
			C889.9,473.5,890,473.5,890.2,473.5z M932,427.1c0-0.5,0-0.7,0-1c-0.2,0.1-0.4,0.1-0.7,0.2C931.5,426.6,931.7,426.7,932,427.1z
			 M880.4,400.2c0,0.7,0.2,0.7,0.7,0.4c0-0.2-0.1-0.3-0.1-0.5C880.8,400.2,880.6,400.2,880.4,400.2z M917.4,392.6
			c-0.1-0.3-0.1-0.4-0.1-0.3c-0.1,0.1-0.4,0.2-0.8,0.4C916.9,392.7,917.1,392.7,917.4,392.6z M900.6,433.7c0.1,0,0.3,0,0.5-0.1
			c0-0.2-0.1-0.4-0.1-0.8C900.8,433.2,900.7,433.5,900.6,433.7z M933.9,448c0,0.1,0,0.1,0,0.2c0.2,0,0.4,0,0.7-0.1
			c0-0.1,0-0.1,0-0.2C934.3,448,934.1,448,933.9,448z M912.6,431.6v0.1c0.1,0,0.2,0,0.3,0v-0.1C912.8,431.6,912.7,431.6,912.6,431.6
			z M940.1,441.6L940.1,441.6c0.1-0.1,0.1-0.2,0.1-0.3h-0.1C940.1,441.4,940.1,441.5,940.1,441.6z M929.8,456.2v-0.1
			c-0.1,0-0.2,0-0.3,0v0.1C929.5,456.3,929.7,456.3,929.8,456.2z M908.6,426.1V426c-0.1,0-0.2,0-0.3,0v0.1
			C908.4,426.2,908.5,426.2,908.6,426.1z M899.4,393.2L899.4,393.2c-0.1,0.1-0.1,0.2-0.1,0.3h0.1
			C899.4,393.4,899.4,393.3,899.4,393.2z"/>
	</g>
	<g>
		<path class="st0" d="M499.5,547.9c-0.4,1.7-1.5,2.2-2.8,2.8c-2,0-4.1,1-6.4,1c-1.5,0.7-3.1,0.4-4.6,0.9c-2.3,0.8-4.5,0.5-6.7,1
			c-1.3-0.7-2.2-1.6-2.7-3c-0.9-2.3-1.8-4.6-2.9-6.8c-0.5-0.9-0.8-1.9-1.2-2.9c-1.1,0.1-2.2,0-3.2,0.4c-1.5,0.5-3.1,0.4-4.6,0.8
			c-1.4,0.4-2.8,0.3-4.1,0.7c-1.6,0.5-3.2,0.4-4.7,0.9c-1.4,0.4-2.8,0.3-4.1,0.7c-1.5,0.5-3.1,0.4-4.6,0.8c-1.4,0.4-2.9,0.3-4.2,0.8
			c-1.7,0.5-3.3,0.4-4.9,0.9c-1.4,0.4-2.8,0.3-4.1,0.7c-1.6,0.5-3.2,0.6-4.8,0.8c-0.6,0.1-1.1,0.4-1.7,0.6c-0.3,0.4-0.5,1-0.9,1.5
			c-1.1,1.8-2.1,3.6-3.2,5.4c-1.3,2.1-2.5,4.3-3.8,6.4c-0.7,1.1-1.8,1.9-2.9,2.6c-0.1,0.1-0.3,0.2-0.4,0.2c-1.4,0.1-2.7,0.7-4.1,0.8
			c-1.9,0.1-3.8,0.9-5.8,0.9c-1.4,0.7-2.9,0.5-4.4,0.8c-0.7,0.1-1.4,0.4-2.1,0.5c-1.5,0.2-2.7-0.1-3.2-1.7c0.5-2.2,1.8-4,3-5.9
			c1.6-2.5,3.1-5.1,4.7-7.6s3.1-5,4.7-7.5c1.3-2.1,2.7-4.2,4-6.3c1-1.7,2-3.3,3.2-4.9c0.7-1,1.4-2.1,1.9-3.1
			c0.8-1.5,1.9-2.9,2.7-4.4c1.2-2.3,2.7-4.4,4.1-6.6c1.3-2.2,2.7-4.3,4.1-6.5c1.5-2.4,3.1-4.8,4.5-7.3c1.5-2.6,3.3-5,4.8-7.6
			c1.3-2.1,2.7-4.2,3.9-6.3c1.4-2.5,3.2-4.9,4.7-7.5c1.3-2.2,2.8-4.2,4-6.5c0.6-1.3,1.6-2.4,2.4-3.6c1.1-1.7,2.1-3.4,3.1-5.1
			c1-1.6,2.1-3.3,3.1-4.9c1.1-0.6,2-1.7,3.5-1.2c0.6,0.2,1,0.4,1.2,1c0.6,1.3,1.2,2.5,1.6,3.8c0.3,0.9,0.8,1.7,1.1,2.6
			c1.2,2.6,2.4,5.3,3.5,7.9c1,2.3,2,4.5,2.9,6.8c0.7,1.6,1.4,3.2,2.1,4.9c0.7,1.8,1.5,3.6,2.3,5.4s1.6,3.7,2.5,5.5
			c0.5,0.9,1,1.9,1.2,2.8c0.3,1,0.9,1.7,1.1,2.8c0.2,1.2,1.1,2.2,1.5,3.3c0.7,1.9,1.6,3.7,2.3,5.6c0.5,1.2,1.1,2.4,1.7,3.6
			c0.8,1.9,1.7,3.8,2.5,5.8c0.3,0.8,0.7,1.6,1.1,2.4c0.9,1.9,1.6,3.8,2.5,5.7c0.5,1.3,1.1,2.5,1.6,3.8s1.1,2.5,1.6,3.8
			c0.4,1,0.9,2,1.4,2.9C499.4,545.4,499.6,546.8,499.5,547.9z M456.1,502.7c-5.2,8.8-10.3,17.5-15.5,26.4c1.1-0.2,2.1-0.2,3.2-0.6
			c0.8-0.3,1.7-0.2,2.5-0.3c0.9-0.1,1.7-0.4,2.6-0.6c1.2-0.2,2.5,0,3.7-0.7c2.3,0,4.5-0.8,6.8-1.1c1.7-0.2,3.5-0.6,5.3-1
			C461.8,517.4,459,510.1,456.1,502.7z M469,508.7c0.4,0.1,0.7,0.2,1.1,0.3c0.2-0.5,0.4-0.8,0.6-1.2c-0.2-0.4-0.5-0.8-0.8-1.3
			c-0.4,0.4-0.7,0.7-0.9,0.9C469,507.9,469,508.3,469,508.7z M447.8,539.5c0-0.5,0-0.9,0-1.3c-0.4-0.2-0.8-0.4-1.2-0.5
			c-0.2,0.2-0.3,0.4-0.5,0.6c0.2,0.4,0.4,0.7,0.6,1.1c0.1,0.1,0.2,0.1,0.3,0.2C447.3,539.6,447.5,539.6,447.8,539.5z M457.1,482.8
			c0-0.5-0.3-0.8-0.8-0.8c-0.6,0-1,0.4-0.9,1c0,0.4,0.4,0.7,0.8,0.7C456.7,483.7,457,483.3,457.1,482.8z M466,495.2
			c-0.2-0.1-0.5-0.3-0.7-0.4c-0.3,0-0.7,0.1-1.1,0.1c0,0.5,0,0.9,0,1.3C464.9,496.1,465.6,496.2,466,495.2z M487.1,531.4
			c-0.2-0.6-0.4-1-0.9-0.8c-0.3,0.1-0.6,0.3-0.9,0.5C485.8,531.8,486.4,531.5,487.1,531.4z M463.3,508.3c0,0.5,0,1.1,0,1.6
			c0.2,0,0.4,0,0.6-0.1c0-0.5,0-1.1,0-1.6C463.7,508.3,463.5,508.3,463.3,508.3z M463.7,530.3c-0.5,0.4-0.8,0.8-0.4,1.3
			c0.3,0,0.6-0.1,0.9-0.1c0-0.3,0-0.6,0-0.8C464,530.5,463.9,530.4,463.7,530.3z M477,531.3c-0.8-0.5-1.1-0.5-1.4,0
			c0.3,0.2,0.6,0.3,0.9,0.5C476.7,531.7,476.8,531.5,477,531.3z M474.1,501.6c-0.4,0.1-1-0.3-1,0.7c0.4,0,0.7-0.1,1-0.1
			C474.1,501.9,474.1,501.8,474.1,501.6z M462.3,504.5c-0.5,0.1-0.8,0.1-1,0.1c0,0.2,0.1,0.4,0.1,0.7
			C461.7,505,461.9,504.9,462.3,504.5z M422.3,542.8c0.2,0,0.4,0,0.7-0.1c0-0.2-0.1-0.4-0.1-0.6c-0.2,0.1-0.4,0.1-0.6,0.2
			C422.3,542.5,422.3,542.6,422.3,542.8z M458.5,533.4c0.3,0,0.6-0.1,1.3-0.1c-0.6-0.2-0.9-0.3-1.2-0.4
			C458.5,533.1,458.5,533.2,458.5,533.4z M462.1,500.8c0.8,0,0.8-0.3,0.5-0.7c-0.2,0.1-0.3,0.1-0.5,0.1
			C462.1,500.4,462.1,500.5,462.1,500.8z M462.7,535c0-0.1,0-0.2,0-0.3c-0.2,0.1-0.4,0.1-0.6,0.2c0,0.1,0,0.1,0,0.2
			C462.4,535,462.5,535,462.7,535z M482.2,541c0.1,0,0.1,0,0.2,0c0-0.2,0-0.4,0-0.7c-0.1,0-0.1,0-0.2,0
			C482.3,540.5,482.2,540.7,482.2,541z M468.1,514.1H468c0,0.1,0,0.2,0,0.3h0.1C468.1,514.4,468.1,514.2,468.1,514.1z M416.8,549.4
			L416.8,549.4c-0.1-0.1-0.2-0.1-0.3-0.1v0.1C416.6,549.4,416.7,549.4,416.8,549.4z M455.4,487.5h0.1c0-0.1,0-0.2,0-0.3h-0.1
			C455.4,487.3,455.4,487.4,455.4,487.5z"/>
	</g>
	<g>
		<path class="st0" d="M51.9,542.1c0-2.5-0.4-2.5,1.5-4.4c0.6-0.2,1.1-0.4,1.6-0.6c0.6-0.1,1.2,0,1.7-0.2c1.4-0.6,2.9-0.4,4.3-0.8
			c1.5-0.5,3.1-0.4,4.6-0.8c2.1-0.7,4.1-0.6,6.1-0.9c1.4-0.2,2.8,0.6,3.2,1.9c0.4,1.7,1.1,3.2,1.6,4.8c0.6,1.5,0.9,3.2,1.8,4.5
			c0.7,3.2,2.1,6.2,3.2,9.2c1.1,2.9,2.2,5.8,3.3,8.7c0.8,2.1,1.6,4.4,2.3,6.5c0.7,2,1.5,4.1,2.3,6.1c0.7,1.7,1.3,3.4,1.9,5.1
			c0,0,0.1,0,0.2,0c0.3-0.4,0.7-0.9,1-1.4c1.7-2.9,3.4-5.8,5.2-8.7c1-1.6,1.8-3.2,2.8-4.9c1.1-2,2.4-4,3.5-6c0.9-1.7,2-3.3,3-5
			c1.2-2,2.5-4.1,3.7-6.1c0.8-1.4,1.6-2.8,2.4-4.1c1.4-2.4,2.9-4.8,4.3-7.2c0.8-1.4,1.7-2.9,2.5-4.3c1.3-2.3,2.6-4.6,4-6.8
			c0.8-1.3,2.1-2.1,3.5-2.6c1.1-0.4,2.2-0.6,3.4-0.7c1.9-0.2,3.8-0.9,5.8-0.9c1.3-0.7,2.7-0.5,4.1-0.8c0.6-0.1,1.1-0.4,1.7-0.5
			c1.2-0.2,2.5-0.4,3.8,0.1c0.6,0.7,0.2,1.9,0.3,2.8c-1.2,2.4-2.6,4.6-3.9,6.8c-1.8,3-3.7,5.9-5.4,8.9c-1.8,3.1-3.7,6.1-5.5,9.2
			c-1.9,3.3-4,6.6-5.9,9.9c-1,1.7-2.1,3.3-3.1,5s-1.9,3.3-2.9,5c-2.1,3.3-4,6.7-6.1,10.1c-1.9,3.1-3.8,6.2-5.7,9.4
			c-1.1,1.8-2.2,3.6-3.2,5.4c-0.9,1.5-1.7,2.9-2.6,4.4c-1.1,1.9-2.3,3.8-3.5,5.7c-1.1,1.8-2.2,3.6-3.2,5.4c-1.3,2.2-2.7,4.3-4,6.5
			c-1,1.9-2.2,3.7-3.3,5.5c-0.5,0.8-1.2,1.6-1.8,2.3c-0.9,0.1-1.7,0.2-2.4,0.2c-1.4-0.7-1.6-2.3-2.2-3.5c-0.7-1.7-1.3-3.4-1.9-5.1
			c-0.6-1.6-1.3-3.2-1.9-4.8s-1.2-3.3-1.9-5c-0.7-1.7-1.3-3.4-1.9-5.1c-0.6-1.6-1.3-3.2-1.9-4.8c-0.6-1.7-1.2-3.4-1.9-5.1
			c-0.6-1.6-1.3-3.2-1.9-4.8c-0.6-1.7-1.2-3.4-1.9-5.1c-0.6-1.5-1.2-3-1.7-4.5c-0.9-2.3-1.8-4.7-2.7-7c-0.6-1.7-1.2-3.3-1.9-5
			c-0.6-1.6-1.3-3.1-1.9-4.6c-0.7-1.7-1.2-3.4-1.9-5.1c-0.6-1.6-1.3-3.2-1.9-4.8c-0.7-1.8-1.3-3.5-1.9-5.3
			C52.6,543.5,52.2,542.9,51.9,542.1z M98.1,591.5c-0.4,0.5-0.8,1.1-1.2,1.6c-0.1,0.2,0,0.5,0,0.8c0.3,0,0.5-0.1,0.9-0.1
			c0.5-0.5,1.2-1.1,1.2-2c0-0.1-0.1-0.3-0.1-0.4C98.6,591.5,98.4,591.5,98.1,591.5z M85.6,598.4c0-0.5,0-1.1,0-1.6
			c-0.2-0.2-0.4-0.3-0.7-0.5c-0.3,0.5-0.4,0.8-0.6,1.2c0.2,0.3,0.4,0.7,0.5,1C85.2,598.5,85.4,598.5,85.6,598.4z M93,587.9
			c-0.8,0.5-1.2,0.9-0.9,1.6c0.3,0,0.5-0.1,0.9-0.1C93,588.9,93,588.5,93,587.9z M102.4,578c0.4,0,0.7-0.1,1-0.1c0-0.4,0-0.7,0-0.9
			c-0.4,0-0.6,0.1-0.9,0.1C102.4,577.4,102.4,577.7,102.4,578z M65,542.2c-0.3,0.3-0.7,0.7-0.2,1.4c0.3-0.3,0.6-0.6,1-0.9
			C65.5,542.4,65.3,542.3,65,542.2z M81.8,578c-0.4,0-0.8,0.1-1.3,0.1c0,0.2,0,0.3,0,0.6c0.4,0,0.8-0.1,1.3-0.1
			C81.8,578.3,81.8,578.2,81.8,578z M70.6,572c0.3,0,0.7-0.1,1.1-0.1c0-0.2-0.1-0.4-0.1-0.6c-0.3,0.1-0.6,0.1-0.9,0.2
			C70.6,571.7,70.6,571.8,70.6,572z M68.1,561.3c0-0.3,0-0.6,0-0.9c-0.2,0-0.4,0-0.6,0.1c0,0.3,0,0.6,0,0.9
			C67.8,561.4,67.9,561.4,68.1,561.3z M71.2,549c0.2,0,0.4,0,0.7-0.1c0-0.2-0.1-0.4-0.1-0.6c-0.2,0.1-0.4,0.1-0.6,0.2
			C71.2,548.7,71.2,548.8,71.2,549z M88.9,583.4c-0.3-0.2-0.4-0.4-0.8-0.7c0.1,0.5,0.1,0.7,0.2,0.9
			C88.4,583.5,88.6,583.5,88.9,583.4z M83.9,599.5c-0.5-0.1-0.5-0.1-0.5,0.8C83.6,599.8,83.8,599.6,83.9,599.5z M86.2,585.1
			L86.2,585.1c0.1-0.1,0.1-0.2,0.1-0.3h-0.1C86.2,584.9,86.2,585,86.2,585.1z M80.2,594L80.2,594c0.1-0.1,0.1-0.2,0.1-0.3h-0.1
			C80.2,593.8,80.2,593.9,80.2,594z M106.8,576.1L106.8,576.1c0.1,0.1,0.2,0.1,0.3,0.1v-0.1C107,576,106.9,576,106.8,576.1z
			 M69.3,561.9L69.3,561.9c0.1-0.1,0.1-0.2,0.1-0.3h-0.1C69.3,561.7,69.3,561.8,69.3,561.9z"/>
	</g>
	<g>
		<path class="st0" d="M525.9,469.4c-1.3,0.1-2.3,0.1-3.3,0.4c-1.7,0.5-3.4,0.4-5.1,0.9c-1.4,0.4-2.7,0.3-4.1,0.7
			c-1.5,0.5-3.1,0.4-4.6,0.8c-1.4,0.4-2.8,0.5-4.2,0.7c-0.6,0.1-1.1,0.4-1.7,0.5c-1.2,0.1-2.4,0.1-3.6,0.2c-0.4-0.5-0.8-1-1.2-1.6
			c0.2-1.6,0.2-3.4,0.6-5.1c0.2-0.8,0.1-1.6,0.3-2.4c0.4-1.7,0.5-3.3,0.8-5c0.3-1.9,2.4-4,4.3-4.2c2.1-0.2,4.2-1,6.3-1
			c1.4-0.7,2.9-0.4,4.2-0.8c1.5-0.5,3.1-0.4,4.6-0.8c1.4-0.4,2.7-0.3,4.1-0.7c1.6-0.5,3.2-0.4,4.7-0.9c1.3-0.4,2.6-0.3,3.9-0.7
			c1.7-0.5,3.4-0.4,5.1-0.9c1.4-0.4,2.9-0.3,4.2-0.8c1.5-0.5,3.1-0.4,4.6-0.8c1.4-0.4,2.7-0.3,4.1-0.7c1.6-0.5,3.2-0.4,4.7-0.9
			c1.3-0.4,2.6-0.3,3.9-0.7c1.6-0.5,3.3-0.4,4.9-0.9c1.2-0.4,2.4-0.4,3.6-0.6c0.9-0.2,1.8-0.5,2.7-0.6c0.9-0.2,2,0,2.8-0.4
			c0.9-0.4,1.7-0.4,2.5-0.5c0.4,0.2,0.7,0.5,1.1,0.5c0.9,0.2,1.1,0.9,1.1,1.6c0,1.2,0.1,2.4-0.3,3.7c-0.4,1.3-0.2,2.7-0.5,4.1
			c-0.4,1.8-0.2,3.6-1.1,5.4c-0.1,0.1,0,0.3,0,0.6c-0.9,0.7-1.8,1.5-2.7,2.2c-2.2,0.3-4.2,1-6.2,1c-1.3,0.7-2.7,0.4-4.1,0.8
			c-1.6,0.5-3.2,0.4-4.7,0.9c-1.4,0.4-2.7,0.4-4.1,0.7c-0.8,0.2-1.6,0.4-2.4,0.6c-0.8,0.1-1.7,0.1-2.5,0.3c-0.5,0.1-1.1,0.5-1.5,0.8
			c-0.2,1.7-0.3,3.2-0.5,4.7c-0.2,1-0.2,1.9-0.4,2.9s-0.1,2-0.4,2.9c-0.3,0.8-0.1,1.7-0.4,2.4c-0.4,0.9-0.2,1.6-0.3,2.4
			c-0.1,0.6-0.5,1.2-0.4,1.9c0.1,0.6,0.2,1.2-0.3,1.7c-0.1,0.1,0,0.2,0,0.3c-0.1,1.4-0.2,2.8-0.4,4.2c-0.1,0.6-0.4,1.1-0.4,1.7
			c0,0.5,0.1,1-0.2,1.6c-0.3,0.5,0,1.2-0.2,1.8c-0.4,0.9-0.1,1.9-0.4,2.7c-0.3,0.9-0.1,1.7-0.4,2.6c-0.3,1-0.1,2-0.4,2.9
			c-0.3,1-0.1,1.9-0.4,2.7c-0.3,0.9-0.1,1.8-0.4,2.6c-0.3,0.9-0.3,1.7-0.4,2.6c-0.1,0.6-0.3,1.2-0.3,1.7c-0.1,0.5,0.1,1.1-0.4,1.6
			c-0.1,0.1,0,0.2,0,0.3c-0.1,1.4-0.2,2.7-0.4,4.1c-0.2,1-0.2,1.9-0.4,2.9s-0.2,1.9-0.4,2.9c-0.1,0.5-0.3,1-0.3,1.6
			c0,0.5,0.1,1-0.2,1.6c-0.3,0.4,0,1.1-0.2,1.6c-0.4,1-0.1,2-0.4,2.9c-0.3,0.9-0.1,1.9-0.4,2.7c-0.3,1-0.1,1.9-0.4,2.7
			c-0.3,0.9-0.2,1.7-0.3,2.3c-0.3,0.7-0.5,1.2-0.8,1.7c-0.6,1.4-2.3,2.4-3.5,2.5c-1,0.1-1.9,0.6-2.9,0.7c-1,0.1-2.1,0-3,0.4
			c-1.5,0.5-3.1,0.3-4.6,0.8c-1.7,0.6-3.4,0.5-5,0.8c-0.4-0.3-0.8-0.5-1.2-0.8c-0.2-0.9-1.1-1.7-0.5-3c0.1-0.2,0.1-0.4,0.2-0.6
			c0.1-1.3,0.1-2.6,0.5-3.9c0.2-0.9,0.1-1.9,0.4-2.7c0.3-0.9,0.1-1.9,0.4-2.7c0.3-0.9,0.1-1.9,0.4-2.7c0.3-0.9,0.1-1.7,0.4-2.6
			c0.3-0.9,0.2-1.8,0.4-2.7s0.2-1.8,0.4-2.6c0.3-0.9,0.1-1.8,0.4-2.6c0.3-0.9,0.3-1.7,0.3-2.6c0-0.6,0.5-1.2,0.4-1.9
			c-0.1-0.6-0.2-1.2,0.3-1.7c0.1-0.1,0-0.2,0-0.3c0.1-1.4,0.3-2.7,0.4-4.1c0.1-0.6,0.2-1.2,0.4-1.7c0.1-0.6-0.1-1.2,0.3-1.9
			c0.3-0.5-0.1-1.3,0.1-1.8c0.4-0.9,0.1-1.8,0.4-2.6c0.3-0.8,0.3-1.6,0.3-2.4c0.1-0.6,0.3-1.3,0.4-1.9c0.1-0.6-0.1-1.3,0.4-1.9
			c0.1-0.1,0-0.2,0-0.3c0.1-1.4,0.1-2.8,0.5-4.2c0.2-0.9,0.1-1.8,0.4-2.6c0.3-0.9,0.1-1.8,0.4-2.6c0.3-0.9,0.1-1.9,0.4-2.7
			c0.3-0.9,0.1-1.7,0.4-2.6c0.3-1,0.1-2,0.4-2.9c0.3-1,0.1-1.9,0.4-2.7C525.5,472.5,525.5,471,525.9,469.4z M524.6,516
			c0.3,0.2,0.5,0.5,0.8,0.7c0.3-0.2,0.6-0.3,0.9-0.5c0-0.4,0-0.8-0.1-1.2c-0.3,0-0.6,0.1-0.8,0.1C525.2,515.4,524.9,515.7,524.6,516
			z M524.5,534.5c1.4-0.2,1.4-0.2,1.4-1.5c-0.4,0.2-0.8,0.3-1,0.5C524.7,533.6,524.7,534,524.5,534.5z M537.5,489.3
			c-0.2-0.3-0.4-0.5-0.8-0.9c-0.2,0.7-0.4,1.1-0.5,1.5c0,0.1,0.1,0.3,0.1,0.4c0.3,0,0.5-0.1,0.7-0.1
			C537.1,490,537.3,489.7,537.5,489.3z M523.4,526.2c-0.8,0.5-1.2,0.9-0.9,1.6c0.3-0.1,0.6-0.1,0.8-0.2
			C523.4,527.1,523.4,526.8,523.4,526.2z M522.4,457.3c0,0.6,0,0.8,0,1.3c0.5-0.3,0.9-0.5,1.7-0.8
			C523.3,457.6,522.9,457.5,522.4,457.3z M534.4,493c0.2,0.2,0.5,0.3,0.8,0.5c0.3-0.4,0.5-0.7,0.8-1.1c-0.5,0-0.8,0-1,0
			C534.7,492.7,534.6,492.9,534.4,493z M532.9,522c0,0.7,0.2,0.7,0.7,0.4c0-0.2-0.1-0.3-0.1-0.5C533.3,522,533.2,522,532.9,522z
			 M534,478.9c-0.8,0-0.8,0.3-0.5,0.7c0.2-0.1,0.3-0.1,0.5-0.1C534,479.3,534,479.2,534,478.9z M520.9,462.7c0,0.1,0,0.2,0,0.3
			c0.2-0.1,0.4-0.1,0.5-0.2c0-0.1,0-0.1,0-0.2C521.3,462.6,521.1,462.7,520.9,462.7z M557.5,456.1L557.5,456.1
			c-0.1,0.1-0.1,0.2-0.1,0.3h0.1C557.5,456.4,557.5,456.2,557.5,456.1z"/>
	</g>
	<g>
		<path class="st0" d="M155.9,611.7c-0.4-0.3-0.8-0.7-1-0.9c-0.1-0.6-0.2-0.9-0.3-1.3c0-0.1-0.1-0.3-0.1-0.5c0-0.1,0-0.3,0-0.3
			c0.7-0.9,0.1-1.9,0.6-2.9c0.1-0.1,0.2-0.3,0.2-0.4c0.2-1.4,0.3-2.7,0.5-4.1c0.1-0.6,0.2-1.3,0.4-1.9c0.1-0.6-0.3-1.3,0.4-1.9
			c0.1-0.1,0-0.2,0-0.3c0.1-1.4,0.3-2.8,0.4-4.2c0.1-0.6,0.5-1.2,0.4-1.9c-0.1-0.6-0.1-1.2,0.4-1.7c-0.2-1.2,0.4-2.4,0.4-3.6
			c0-0.7,0.2-1.4,0.4-2.1c0.1-0.7-0.3-1.4,0.4-2.1c0.1-0.1,0-0.2,0-0.3c0.1-1.4,0.2-2.8,0.5-4.2c0.2-0.9,0.2-1.8,0.4-2.7
			s0.1-1.8,0.4-2.6c0.3-0.9,0.1-1.7,0.4-2.6c0.3-0.9,0.4-1.7,0.4-2.6c0-0.6,0.5-1.2,0.4-1.9c-0.1-0.5-0.2-1.2,0.3-1.7
			c0.1-0.1,0-0.2,0-0.3c0.1-1.4,0.3-2.8,0.4-4.2c0.1-0.6,0.3-1.2,0.4-1.7c0.1-0.5-0.1-1.1,0.4-1.6c0.1-0.1,0-0.2,0-0.3
			c0.1-1.4,0.2-2.8,0.5-4.2c0.2-0.9,0.1-1.9,0.4-2.7c0.3-0.9,0.1-1.9,0.4-2.7c0.3-0.9,0.1-1.9,0.4-2.7c0.3-0.9,0.2-1.7,0.4-2.6
			c0.3-0.9,0.1-1.9,0.4-2.7c0.4-0.9,0-1.8,0.4-2.6c0.4-0.9,0.1-1.8,0.4-2.6c0.3-0.8,0.3-1.6,0.4-2.4c0.1-0.6,0.3-1.3,0.4-1.9
			c0.1-0.6-0.1-1.3,0.4-1.9c0.1-0.2,0.1-0.4,0-0.7c-0.2-0.9,0.4-1.8,0.4-2.7c0.1-0.9,0.2-1.8,0.4-2.7c0.2-1.1,1.7-2.8,2.9-3.3
			c0.6-0.3,1.2-0.5,1.9-0.5c2.1-0.1,4.2-1,6.3-1c1.3-0.7,2.7-0.5,4.1-0.8c0.6-0.1,1.3-0.4,1.9-0.5c0.7-0.1,1.3-0.2,2-0.2
			c1,0.3,1.8,0.9,2.2,2.1c-0.1,0.6,0.1,1.4-0.3,2.3c-0.4,0.8,0.2,1.7-0.4,2.6c-0.1,0.1,0,0.2,0,0.3c-0.1,1.4-0.3,2.8-0.4,4.2
			c-0.1,0.6-0.3,1.2-0.4,1.7c-0.1,0.5,0.1,1.1-0.4,1.6c-0.1,0.1,0,0.2,0,0.3c-0.1,1.4-0.2,2.8-0.5,4.2c-0.2,0.9-0.2,1.9-0.4,2.7
			c-0.3,0.9-0.1,1.9-0.4,2.7c-0.3,0.9-0.1,1.7-0.4,2.6c-0.3,0.9-0.1,1.8-0.4,2.6c-0.3,0.9-0.1,1.9-0.4,2.7c-0.3,0.9-0.1,1.7-0.4,2.6
			c-0.3,0.9-0.2,1.9-0.4,2.7c-0.3,0.9-0.1,1.9-0.4,2.7c-0.3,0.9-0.1,1.7-0.4,2.6c-0.3,0.9-0.1,1.8-0.4,2.6c-0.3,0.9-0.1,1.9-0.4,2.7
			c-0.3,0.9-0.1,1.7-0.4,2.6c-0.3,0.9-0.2,1.9-0.4,2.7c-0.3,0.9-0.1,1.9-0.4,2.7c-0.3,0.9-0.1,1.9-0.4,2.7c-0.3,0.9-0.3,1.7-0.4,2.6
			c-0.1,0.6-0.3,1.2-0.4,1.7c-0.1,0.5,0.1,1.1-0.4,1.6c-0.1,0.1,0,0.2,0,0.3c-0.1,1.4-0.1,2.8-0.5,4.2c-0.2,0.9-0.1,1.9-0.4,2.7
			c-0.3,0.9-0.2,1.8-0.4,2.7c-0.4,1.7-0.5,3.3-0.8,5c-0.2,0.9-0.2,1.9-0.4,2.7c-0.3,0.9-0.1,1.9-0.4,2.7c-0.3,0.9-0.1,1.9-0.4,2.7
			c-0.3,0.9-0.2,1.8-0.4,2.7c-0.5,2-1.4,3.8-3.6,4.5c-0.6,0.2-1.3,0.5-1.9,0.5c-2.3,0.1-4.5,1.1-6.8,1c-1.4,0.7-2.8,0.5-4.3,0.8
			c-0.4,0.1-0.8,0.3-1.2,0.4C157.4,612.1,156.7,611.6,155.9,611.7z M180.2,544.5c-0.1-0.3-0.3-0.5-0.4-0.8c-0.3,0-0.5,0.1-0.8,0.1
			c-0.1,0.7-0.2,1.2,0.4,1.6C179.7,545.1,179.9,544.8,180.2,544.5z M170.3,552.8c-1.1-0.1-1.2,0-1.3,0.9
			C169.7,553.8,170.1,553.6,170.3,552.8z M164.7,600c0.3-0.4,0.5-0.7,0.8-1.1c-0.7-0.2-1.1-0.1-1.4,0.5
			C164.3,599.6,164.4,599.7,164.7,600z M165.6,595.1c0,0.3,0,0.7,0,0.9c0.4,0,0.6-0.1,0.9-0.1c0-0.4,0-0.7-0.1-0.9
			C166.1,595,165.9,595.1,165.6,595.1z M177.6,536.9c0-0.3,0-0.7,0-1c-0.2,0.1-0.4,0.1-0.6,0.2c0,0.3,0,0.6,0.1,0.9
			C177.3,536.9,177.4,536.9,177.6,536.9z M169,562.7c0.3,0,0.6-0.1,1-0.1c0-0.2,0-0.3,0-0.6c-0.3,0-0.6,0.1-1,0.1
			C169.1,562.4,169.1,562.5,169,562.7z M164.3,586.5c-0.1,0.1-0.2,0.2-0.3,0.3c0.2,0.3,0.3,0.5,0.5,0.8c0.2-0.2,0.4-0.4,0.6-0.6
			C164.8,586.8,164.5,586.7,164.3,586.5z M169.1,588.3c0.2,0,0.3,0,0.7,0.1c0-0.4-0.1-0.7-0.1-1.1
			C169.4,587.7,169.3,588,169.1,588.3z"/>
	</g>
	<g>
		<path class="st0" d="M607.4,526.8c-0.3,0.6-0.5,1-0.7,1.5c-0.6,1.6-2.5,2.5-3.6,2.6c-0.9,0.1-1.8,0.5-2.7,0.6
			c-0.9,0.2-2,0-2.8,0.4c-1.6,0.6-3.2,0.4-4.7,0.8c-1.6,0.5-3.2,0.5-4.7,0.8c-0.9-0.3-1.6-0.7-2-1.6c0-0.8,0.1-1.7,0-2.5
			c-0.1-0.7,0.3-1.4,0.4-2.1c0.1-0.6-0.3-1.3,0.3-1.9c0.1-0.1,0-0.2,0-0.3c0.1-1.4,0.2-2.7,0.4-4.1c0.1-0.6,0.3-1.3,0.4-1.9
			c0.1-0.6-0.2-1.3,0.4-1.9c0.1-0.1,0-0.2,0-0.3c0.1-1.4,0.2-2.7,0.4-4.1c0.1-0.9,0.2-1.9,0.4-2.7c0.3-1,0-1.9,0.4-2.7
			c0.3-0.9,0.1-1.8,0.4-2.6c0.3-0.9,0.3-1.7,0.3-2.6c0-0.6,0.5-1.2,0.4-1.9c-0.1-0.6-0.2-1.2,0.3-1.7c0.1-0.1,0-0.2,0-0.3
			c0.1-1.4,0.2-2.8,0.4-4.2c0.2-0.9,0.1-1.8,0.4-2.6c0.3-0.9,0.1-1.8,0.4-2.6c0.3-0.9,0.1-1.9,0.4-2.7c0.3-0.9,0.1-1.7,0.4-2.6
			c0.3-1,0.1-2,0.4-2.9c0.3-1,0.1-1.9,0.4-2.7c0.3-0.8,0.1-1.7,0.4-2.4c0.3-0.8,0.3-1.6,0.3-2.4c0-0.6,0.5-1.2,0.4-1.9
			c-0.1-0.5-0.2-1.2,0.3-1.7c0.1-0.1,0-0.2,0-0.3c0.1-1.4,0.2-2.7,0.4-4.1c0.1-0.9,0.3-1.8,0.4-2.7c0.1-0.9,0.1-1.9,0.4-2.7
			c0.3-0.9,0.1-1.8,0.4-2.6c0.3-0.9,0.3-1.7,0.3-2.6c0-0.6,0.5-1.2,0.4-1.9c-0.1-0.6-0.1-1.2,0.3-1.7c0.1-0.1,0-0.4,0-0.7
			c0.1-1.4,0.1-2.7,0.5-4.1c0.2-0.9,0.1-1.8,0.4-2.6c0.3-0.8,0.3-1.6,0.3-2.4c1.2-2.1,1.2-2.1,3-3.4c1.2-0.3,2.1-0.6,3.1-0.8
			c0.9-0.2,2,0,2.8-0.4c1.4-0.6,2.9-0.3,4.2-0.8c2.2-0.7,4.3-0.5,6.5-1c0.5,0.5,1,1.1,1.6,1.7c-0.2,1.8-0.3,3.7-0.5,5.5
			c-0.1,0.5-0.3,1-0.3,1.6c0,0.5,0.1,1-0.2,1.6c-0.2,0.5-0.1,1.1-0.2,1.6c0,0.6-0.5,1.2-0.4,1.9c0.1,0.5,0.2,1.2-0.3,1.7
			c-0.1,0.1,0,0.2,0,0.3c-0.1,1.4-0.1,2.8-0.4,4.2c-0.2,0.9-0.2,1.8-0.4,2.7c-0.2,0.9-0.1,1.9-0.4,2.7c-0.2,0.9-0.1,1.8-0.4,2.6
			c-0.4,0.9-0.1,1.8-0.4,2.6c-0.3,0.9-0.1,1.9-0.4,2.7c-0.3,0.9-0.1,1.7-0.4,2.6c-0.3,1-0.1,2-0.4,2.9c-0.3,1-0.1,1.8-0.4,2.7
			c-0.1,0.5-0.3,1-0.3,1.6c0,0.5,0.1,1-0.2,1.6c-0.3,0.4-0.1,1.1-0.2,1.6c-0.1,0.6-0.5,1.2-0.4,1.9c0.1,0.6,0.2,1.2-0.3,1.7
			c-0.1,0.1,0,0.2,0,0.3c-0.1,1.4-0.1,2.8-0.4,4.2c-0.2,0.9-0.1,1.9-0.4,2.7c-0.3,0.9-0.1,1.9-0.4,2.7c-0.3,0.9-0.1,1.8-0.4,2.6
			c-0.4,0.9-0.1,1.8-0.4,2.6c-0.3,0.9-0.1,1.9-0.4,2.7c-0.3,0.9-0.1,1.7-0.4,2.6c-0.3,0.9-0.1,1.9-0.4,2.7c-0.3,0.9-0.1,1.9-0.4,2.7
			c-0.3,0.9-0.1,1.8-0.4,2.6c-0.3,0.9-0.1,1.6-0.4,2.4c-0.3,1-0.1,2-0.4,2.9c-0.3,1-0.1,1.9-0.4,2.7c-0.3,1-0.1,1.9-0.4,2.7
			C607.4,525.3,607.5,526.2,607.4,526.8z M610.8,448.9c-0.6,0.5-0.5,1-0.4,1.6c1.2-0.1,1.2-0.2,1.2-1.3
			C611.4,449.1,611.1,449,610.8,448.9z M607.4,498c-0.7,0.6-1.1,1-0.8,1.6c0.4,0,0.8-0.1,1.4-0.2C607.8,498.9,607.6,498.5,607.4,498
			z M608.9,475.1c0-0.3,0.1-0.6,0.1-1c-0.5,0.1-0.9,0.1-1.3,0.1c0.2,0.3,0.3,0.6,0.5,0.9C608.3,475.1,608.6,475.1,608.9,475.1z
			 M605.7,509c-0.5,0-1,0-1.3,0.7c0.4,0,0.8-0.1,1.3-0.1C605.7,509.4,605.7,509.3,605.7,509z M595.8,511.7c-0.1,0.1-0.2,0.2-0.3,0.3
			c0.2,0.2,0.4,0.5,0.5,0.7c0.2-0.2,0.4-0.4,0.6-0.6C596.3,511.9,596,511.8,595.8,511.7z M604.2,498.2c-0.4,0-0.7,0.1-1.2,0.1
			c0.4,0.3,0.7,0.4,1.1,0.7C604.1,498.7,604.2,498.5,604.2,498.2z M598.2,504.7c0.3,0,0.5,0,0.8,0.1c0-0.4,0-0.7,0-1.2
			C598.7,504,598.5,504.3,598.2,504.7z M602.8,519c-0.3-0.3-0.4-0.5-0.6-0.7c-0.3,0.3-0.5,0.5-0.8,0.9
			C601.9,519.1,602.2,519,602.8,519z M610.2,457c-0.2,0-0.4,0-0.7,0.1c0,0.2,0.1,0.4,0.1,0.6c0.2-0.1,0.4-0.1,0.6-0.2
			C610.2,457.3,610.2,457.2,610.2,457z M594.2,508.6c0-0.2,0-0.4,0-0.7c-0.2,0.1-0.4,0.1-0.6,0.2c0,0.2,0.1,0.4,0.1,0.6
			C593.9,508.6,594,508.6,594.2,508.6z M600,512.5c0.5,0.1,0.5,0.1,0.5-0.8C600.3,512.1,600.1,512.3,600,512.5z M610.4,445.6
			c-0.1,0-0.2,0-0.3,0c0,0.2,0.1,0.4,0.1,0.5c0.1,0,0.1,0,0.2,0C610.4,446,610.4,445.8,610.4,445.6z"/>
	</g>
</g>
</svg>
