<?xml version="1.0" encoding="utf-8"?>
<!-- Generator: Adobe Illustrator 19.0.0, SVG Export Plug-In . SVG Version: 6.00 Build 0)  -->
<svg version="1.1" id="Layer_1" xmlns="http://www.w3.org/2000/svg" xmlns:xlink="http://www.w3.org/1999/xlink" x="0px" y="0px"
	 viewBox="-298 122 903 258" style="enable-background:new -298 122 903 258;" xml:space="preserve">
<style type="text/css">
	.st0{fill:#003F5C;}
</style>
<g id="flat_title_3_">
	<g>
		<path class="st0" d="M-127.3,260c0.5-0.7,1.2-1.7,1.8-2.5c2.4-0.8,4.5-1.2,6.7-1.5c1.5-0.3,3.1-0.3,4.6-0.8
			c1.4-0.4,2.9-0.3,4.2-0.8c1.5-0.5,3.1-0.4,4.6-0.8c1.4-0.4,2.8-0.3,4.1-0.7c1.6-0.5,3.2-0.4,4.7-0.9c1.4-0.4,2.7-0.4,4.1-0.7
			c0.8-0.2,1.6-0.4,2.4-0.6c0.8-0.1,1.7,0,2.5-0.3c2-0.8,4.1-0.6,6.1-0.9c2.3-0.4,4.5-0.5,6.7-0.3c2.8,0.2,5.6,0.6,8.1,1.7
			c3.3,1.5,5.6,3.9,6.9,7.1c0.6,1.5,0.9,3.1,1.1,4.8c0.1,1.4,0.2,2.8,0.1,4.2c0,1,0.2,1.9-0.3,2.9c-0.4,0.9,0.1,1.9-0.5,2.9
			c-0.2,0.4,0,0.9-0.2,1.4c-0.8,1.9-1.2,3.9-2.3,5.7c-1.3,2.2-2.6,4.5-4.5,6.4c-1.5,1.6-2.9,3.3-4.8,4.5c-0.7,0.5-1.5,1-2.2,1.6
			c1,0.4,1.8,0.6,2.6,1c2.2,0.9,4.1,2.1,5.6,4c1,1.3,2,2.5,2.7,3.9c0.7,1.6,1.4,3.3,1.4,5.3c0,0.6,0.3,1.2,0.3,1.8
			c0,0.9,0.1,1.8-0.3,2.7c-0.3,0.8-0.1,1.7-0.4,2.6c-0.3,1.1-0.5,2.2-0.8,3.3c-0.6,2.4-1.5,4.6-2.6,6.8c-1,2-2.1,3.9-3.5,5.6
			c-0.8,0.9-1.5,1.9-2.4,2.8c-1.9,1.9-4,3.5-6.2,5c-0.9,0.6-1.7,1.3-2.6,1.7c-2.5,1.3-4.9,2.9-7.7,3.5c-0.2,0.6-0.8,0.3-1.2,0.6
			c-0.3,0.2-0.8,0.1-1.1,0.4c-0.7,0.7-1.5,0.4-2.3,0.8c-1,0.5-2.1,0.5-3.2,0.7c-0.7,0.2-1.4,0.4-2.1,0.5c-0.7,0.2-1.4-0.2-2.1,0.5
			c-0.1,0.1-0.2,0-0.3,0c-2.5,0.4-5.1,0.8-7.6,1.1c-1.6,0.2-3.3,0.9-4.9,0.9c-1.2,0.7-2.4,0.4-3.6,0.7c-1.8,0.4-3.5,0.8-5.3,0.9
			c-1,0.7-2.1,0.6-3.1,0.6s-1.8,0.6-2.7,0.7c-1,0.1-2,0-2.9,0.3c-1.4,0.6-2.9,0.3-4.3,0.8c-1.7,0.6-3.4,0.5-5.2,0.9
			c-0.6-0.4-1.2-0.8-1.8-1.2c0-1.2,0-2.3,0.1-3.4c0-0.7,0.2-1.4,0.4-2.1c0.1-0.7-0.3-1.4,0.4-2.1c0.1-0.1,0-0.2,0-0.3
			c0.1-1.4,0.3-2.8,0.4-4.2c0.1-0.6,0.3-1.2,0.4-1.7c0.1-0.5-0.1-1.1,0.4-1.6c0.1-0.1,0-0.2,0-0.3c0.1-1.4,0.2-2.8,0.5-4.2
			c0.2-0.9,0.2-1.9,0.4-2.7c0.3-0.9,0.1-1.9,0.4-2.7c0.3-0.9,0.1-1.7,0.4-2.6c0.3-0.9,0.1-1.8,0.4-2.6c0.3-0.9,0.1-1.9,0.4-2.7
			c0.3-0.9,0.1-1.7,0.4-2.6c0.3-0.9,0.2-1.9,0.4-2.7c0.3-0.9,0.1-1.9,0.4-2.7c0.3-0.9,0.1-1.9,0.4-2.7c0.3-0.9,0.3-1.7,0.4-2.6
			c0.1-0.6,0.3-1.2,0.4-1.7c0.1-0.5-0.1-1.1,0.4-1.6c0.1-0.1,0-0.2,0-0.3c0.1-1.4,0.1-2.8,0.5-4.2c0.2-0.9,0.1-1.9,0.4-2.7
			c0.3-0.9,0.2-1.8,0.4-2.7c0.4-1.7,0.5-3.3,0.8-5c0.2-0.9,0.2-1.9,0.4-2.7c0.3-0.9,0.1-1.9,0.4-2.7c0.3-0.9,0.1-1.9,0.4-2.7
			c0.3-0.9,0.1-1.9,0.4-2.7c0.3-0.9,0.1-1.9,0.4-2.7c0.3-0.9,0.1-1.7,0.4-2.6c0.3-0.9,0.1-1.9,0.4-2.7c0.4-0.9,0-1.8,0.4-2.6
			c0.4-0.8,0.2-1.6,0.4-2.4C-127.7,261.9-127.5,261.1-127.3,260z M-114.2,309.8c-0.1,1.2,0,2.2-0.4,3.3c-0.3,0.8-0.1,1.7-0.4,2.6
			c-0.3,0.9-0.1,1.8-0.4,2.7c-0.3,0.9-0.1,1.8-0.4,2.7c-0.3,0.9-0.2,1.8-0.4,2.7c-0.3,1.3-0.3,2.6-0.5,3.9c0,0.2,0,0.4-0.1,0.5
			c-0.6,1-0.2,1.9-0.3,2.8c1.3-0.2,2.5-0.3,3.7-0.7c1.4-0.4,2.8-0.3,4.2-0.8c1.5-0.5,3-0.4,4.6-0.8c1.4-0.4,2.8-0.3,4.2-0.8
			c1.5-0.4,3-0.5,4.6-0.8c1.8-0.4,3.4-1,5-1.9c2.6-1.4,4.8-3.3,6.3-5.8c0.6-0.9,1.1-1.8,1.5-2.7c0.4-1,0.6-2,0.7-3
			c0.1-0.8,0-1.7-0.2-2.5c-0.5-2.7-2.2-4.1-4.5-5.1c-0.5-0.2-1.2-0.1-1.8-0.3c-0.7-0.3-1.5,0.2-2.1,0s-1.3-0.2-1.9-0.1
			c-0.4,0.1-0.8,0.4-1.2,0.4c-1,0.1-1.9,0.2-2.9,0.3c-0.9,0.1-1.8,0.4-2.7,0.6c-1.2,0.2-2.4,0.1-3.6,0.7c-0.8,0.3-1.7,0.2-2.5,0.3
			c-0.9,0.1-1.7,0.5-2.6,0.6C-110,308.8-112,309.8-114.2,309.8z M-108.2,272c-0.1,0.6-0.4,1.2-0.4,1.8c0,0.7-0.3,1.4-0.4,2.1
			c-0.2,1.4-0.3,2.8-0.4,4.2c0,0.1,0,0.3,0,0.3c-0.6,0.6-0.2,1.3-0.4,1.9c-0.1,0.6-0.3,1.3-0.4,1.9c-0.2,1.4-0.3,2.7-0.4,4.1
			c0,0.1,0,0.2,0,0.3c-0.6,1-0.2,1.9-0.3,2.8c0.9-0.1,1.7-0.6,2.5-0.6c1.1-0.1,2.1-0.1,3.2-0.6c0.8-0.4,1.8-0.2,2.7-0.3
			s1.7-0.4,2.6-0.6c1.2-0.2,2.4-0.1,3.6-0.7c0.8-0.3,1.7-0.2,2.5-0.3c0.9-0.1,1.7-0.5,2.6-0.6c0.8-0.1,1.5-0.3,2.2-0.6
			c2.5-0.9,4.6-2.6,6.1-4.8c1.7-2.4,2.7-5.1,2.7-8.1c0-2.2-0.8-3.8-2.5-5c-1.6-1.1-3.4-1.3-5.3-1.3c-0.6,0-1.3,0.3-1.9,0.5
			c-0.9,0.3-1.8,0.2-2.7,0.3s-1.7,0.4-2.6,0.6c-1.2,0.2-2.4,0.1-3.6,0.7c-0.8,0.3-1.7,0.2-2.5,0.3c-0.9,0.1-1.7,0.4-2.6,0.6
			C-105.4,271.3-106.7,271.2-108.2,272z M-79.6,321.4c0.2-0.4,0.3-0.7,0.6-1.2c-0.5,0.1-0.9,0.1-1.4,0.1c-0.3,0.3-0.5,0.7-1,1.3
			C-80.6,321.5-80.1,321.5-79.6,321.4z M-70.3,270.5c0-0.1,0.1-0.2,0.1-0.3c-0.4-0.3-0.7-0.6-1.1-1c-0.3,0.4-0.5,0.6-0.8,1
			c0.3,0.2,0.6,0.3,0.8,0.4C-71.1,270.6-70.7,270.6-70.3,270.5z M-130.3,309.1c0.5-0.1,0.9-0.1,1.3-0.1c0-0.5,0-0.9,0-1.3
			C-130.2,308-130.2,308-130.3,309.1z M-89,257.2c-0.3-0.5-0.4-0.9-0.7-1.4c-0.4,0.3-0.8,0.5-1.1,0.7c0.2,0.3,0.3,0.6,0.5,0.9
			C-89.9,257.3-89.5,257.3-89,257.2z M-111.9,262.9c-0.4-0.3-0.6-0.4-1-0.7c-0.1,0.3-0.1,0.5-0.2,0.7c-0.1,0.2-0.2,0.4-0.3,0.6
			c0.2,0.3,0.3,0.4,0.5,0.6C-112.7,263.8-112.4,263.5-111.9,262.9z M-117.4,306.7c0.5-0.6,0.8-1,1.2-1.6c-0.7,0.1-1.1,0.1-1.7,0.2
			C-117.8,305.8-117.6,306.1-117.4,306.7z M-74.1,304.2c-0.9,0.7-0.9,0.7-0.9,1.5c0.3,0,0.5-0.1,0.8-0.1
			C-74.1,305.2-74.1,304.8-74.1,304.2z M-116.1,297.4c-0.2,0.3-0.3,0.6-0.5,1c0.4,0,0.9-0.1,1.3-0.1c0-0.4,0-0.7-0.1-0.9
			C-115.6,297.3-115.9,297.3-116.1,297.4z M-120,336.8c-0.3,0.3-0.6,0.6-1,0.9c0.3,0.2,0.5,0.3,0.8,0.5c0.3-0.3,0.5-0.6,0.7-0.9
			C-119.7,337.1-119.8,336.9-120,336.8z M-123.2,298.8c-0.6,0.9-0.7,1.2-0.1,1.4c0.2-0.3,0.5-0.6,0.8-0.9
			C-122.8,299.1-123,299-123.2,298.8z M-75.4,288c-0.2-0.4-0.3-0.6-0.5-1.2c-0.2,0.7-0.4,1.1-0.4,1.4c0,0.1,0.1,0.2,0.2,0.4
			C-75.8,288.3-75.5,288.1-75.4,288z M-114.7,287.7c-0.3,0.1-0.5,0.3-0.9,0.5c0.5,0.2,0.8,0.3,1.5,0.5
			C-114.5,288.1-114.6,287.8-114.7,287.7z M-122.9,312.4c0.1-0.1,0.2-0.2,0.2-0.2c0-0.1-0.1-0.3-0.1-0.5c-0.2,0.1-0.4,0.1-0.8,0.2
			C-123.2,312.2-123,312.3-122.9,312.4z M-74.4,256.7c0-0.2,0-0.4,0-0.7c-0.2,0.1-0.4,0.1-0.6,0.2c0,0.2,0.1,0.4,0.1,0.6
			C-74.7,256.7-74.6,256.7-74.4,256.7z M-66.5,266.3c-0.2,0-0.4,0-0.7,0.1c0,0.2,0.1,0.4,0.1,0.6c0.2-0.1,0.4-0.1,0.6-0.2
			C-66.5,266.6-66.5,266.5-66.5,266.3z M-105.5,336.2c-0.1,0.1-0.2,0.2-0.2,0.2c0,0.1,0.1,0.3,0.1,0.5c0.2-0.1,0.4-0.1,0.8-0.2
			C-105.2,336.4-105.3,336.3-105.5,336.2z M-69.2,278.5c-0.1,0-0.1,0-0.2,0c0,0.2,0,0.4,0,0.7c0.1,0,0.1,0,0.2,0
			C-69.2,278.9-69.2,278.7-69.2,278.5z M-87.2,300.9c0-0.1,0-0.2,0-0.3c-0.2,0.1-0.4,0.1-0.6,0.2c0,0.1,0,0.1,0,0.2
			C-87.5,301-87.3,301-87.2,300.9z M-78,302.8c0,0.1,0,0.2,0,0.3c0.2-0.1,0.4-0.1,0.6-0.2c0-0.1,0-0.1,0-0.2
			C-77.6,302.7-77.8,302.7-78,302.8z M-80.7,259.4c0,0.1,0,0.2,0,0.3c0.2-0.1,0.4-0.1,0.6-0.2c0-0.1,0-0.1,0-0.2
			C-80.3,259.4-80.5,259.4-80.7,259.4z M-122,306.3L-122,306.3c-0.1,0.1-0.1,0.2-0.1,0.3h0.1C-122,306.5-122,306.4-122,306.3z
			 M-120.5,286.8h-0.1c0,0.1,0,0.2,0,0.3h0.1C-120.5,287.1-120.5,287-120.5,286.8z M-115.4,276.8L-115.4,276.8
			c0.1,0.1,0.2,0.1,0.3,0.1v-0.1C-115.2,276.7-115.3,276.8-115.4,276.8z M-67.4,262.9L-67.4,262.9c-0.1-0.1-0.2-0.1-0.3-0.1v0.1
			C-67.6,262.9-67.5,262.9-67.4,262.9z M-65.1,272.7h-0.1c0,0.1,0,0.2,0,0.3h0.1C-65.1,272.9-65.1,272.8-65.1,272.7z M-123.7,276.5
			L-123.7,276.5c0.1-0.1,0.1-0.2,0.1-0.3h-0.1C-123.7,276.3-123.7,276.4-123.7,276.5z M-78.3,255.9L-78.3,255.9
			c0.1,0.1,0.2,0.1,0.3,0.1v-0.1C-78.1,255.9-78.2,255.9-78.3,255.9z M-114.5,338L-114.5,338c-0.1-0.1-0.2-0.1-0.3-0.1v0.1
			C-114.7,338.1-114.6,338-114.5,338z M-131.1,328.8L-131.1,328.8c-0.1-0.1-0.2-0.1-0.3-0.1v0.1
			C-131.4,328.8-131.2,328.8-131.1,328.8z"/>
	</g>
	<g>
		<path class="st0" d="M395.4,203.4c0,0.9,0,1.9-0.1,2.8c-0.1,0.7-0.2,1.5-0.4,2.2c-0.1,0.7,0.3,1.5-0.4,2.2
			c0.2,1.5-0.6,2.9-0.8,4.3c-0.2,1.3-0.7,2.7-1.2,4c-1.1,3.2-2.4,6.3-4,9.3c-0.8,1.4-1.6,2.7-2.4,4.1c-1.1,1.9-2.4,3.6-3.5,5.4
			c-0.5,0.8-1.1,1.5-1.7,2.2c-1,1.2-2,2.4-3,3.6s-2,2.4-3.1,3.4c-2.1,1.9-4.2,3.9-6.4,5.7c-2.6,2.2-5.4,4-8.2,5.9
			c-1.6,1.1-3.4,1.9-5.1,3c-1.8,1.1-3.7,1.8-5.6,2.6c-1.9,0.9-3.9,1.6-5.9,2.2c-1.7,0.5-3.4,1-5.1,1.4c-1.4,0.3-2.9,0.3-4.2,0.8
			c-1.6,0.5-3.1,0.5-4.6,0.7c-0.8,0.1-1.6-0.1-2.4,0c-0.8,0-1.7,0.3-2.5,0.2c-2.6-0.3-5.3-0.5-7.9-1c-2.5-0.5-4.9-1.2-7.1-2.2
			c-2.2-1-4.3-2.1-6.3-3.5c-1.5-1.1-2.9-2.3-4.3-3.6c-1.7-1.6-3.1-3.5-4.3-5.6c-0.6-0.9-1.1-1.8-1.6-2.8c-0.6-1.1-2.1-5.1-2.5-7
			c-0.1-0.6-0.1-1.4-0.3-1.8c-0.4-0.6-0.1-1.2-0.3-1.7c-0.5-1.2-0.2-2.5-0.3-3.7c0-0.5-0.2-0.9-0.3-1.3c0-0.5,0-1,0-1.5
			c0.1-0.9,0.3-1.7,0.4-2.6c0.1-0.9-0.2-1.9,0.1-2.6c0.5-1,0-2,0.6-3c0.4-0.8,0.2-1.9,0.5-2.9c0.8-2.3,1.3-4.6,2.2-6.9
			c1-2.5,2.1-5,3.4-7.3c1.2-2.2,2.3-4.4,3.8-6.4c1.2-1.6,2.3-3.3,3.4-5c0.1-0.1,0.2-0.2,0.2-0.3c1.9-2.1,3.6-4.3,5.6-6.3
			c1.9-2,3.9-3.9,6.1-5.6c2-1.6,4-3.1,6.1-4.6c2.5-1.7,5.2-3.1,7.7-4.8c1.1-0.7,6.7-3.1,8.2-3.5c0.9-0.3,1.8-0.5,2.6-1
			c0.8-0.4,1.6-0.4,2.5-0.8c0.9-0.5,2-0.5,3-0.7c0.9-0.2,1.8-0.5,2.7-0.6s1.9,0,2.7-0.3c1.2-0.6,2.4-0.7,3.6-0.6
			c1.6,0.1,3.2-0.2,4.7-0.2c0.7,0,1.3,0.1,2,0.1c0.6,0,1.2,0.1,1.9,0.1s1.3,0.4,2,0.1c1.7,0.6,3.6,0.6,5.3,1.2
			c1.1,0.4,2.1,0.8,3.3,1c1.1,0.3,2.1,0.8,3.1,1.4c1.2,0.7,2.4,1.3,3.5,2c2.4,1.6,3.6,2.6,5.6,4.7c1,1.1,1.9,2.2,2.8,3.4
			c0.9,1.1,1.4,2.3,2.1,3.5c0.4,0.7,0.8,1.4,1.1,2.1s0.4,1.6,0.8,2.3c0.4,0.7,0.3,1.6,0.9,2.2c-0.1,1.4,0.8,2.5,0.6,4
			c0.7,1,0.2,2.4,0.5,3.5C395.7,200.7,395.4,202.1,395.4,203.4z M311.4,227.7c0,0.9-0.1,1.8,0,2.7c0,0.9,0.1,1.8,0.3,2.7
			c0.4,1.5,0.7,3,1.4,4.3c0.9,1.6,1.5,3.3,2.8,4.7c0.3,0.4,0.6,0.8,1,1.1c0.3,0.3,0.8,0.6,1,1c0.2,0.5,0.8,0.5,1.1,0.9
			c2.2,2.1,4.9,3.4,7.9,4.1c2.5,0.6,5.1,1,7.8,0.7c1.3-0.2,2.6-0.2,3.9-0.4c1-0.2,2.1-0.4,3-0.7c1.1-0.4,2.1-0.8,3.2-1.2
			c2.2-0.8,4.3-2,6.4-3.1c1.2-0.6,2.3-1.5,3.4-2.3c2.4-1.9,4.9-3.7,6.9-6c1.7-2,3.5-3.8,5-6c1.2-1.8,2.4-3.6,3.4-5.5
			c0.7-1.2,1.3-2.5,1.7-3.8s1.2-2.6,1.1-4c0.9-1.5,0.5-3.2,1.1-4.7c0-2.9,0.3-5.9-0.5-8.7c-0.2-0.6-0.2-1.2-0.4-1.8
			c-0.6-1.4-1.2-2.8-2-4.1c-0.6-1-1.2-2-2-2.8c-0.9-0.9-1.8-1.9-2.8-2.7c-2.1-1.6-4.4-2.9-7.1-3.6c-1.3-0.3-2.7-0.6-4-0.7
			c-1.5-0.1-3-0.1-4.4-0.1c-1.1,0-2.3,0.1-3.6,0.6c-1,0.4-2.1,0.3-3.2,0.7c-1.2,0.5-2.5,0.7-3.7,1.2c-3.2,1.4-6.3,3.1-9.2,5.2
			c-2.1,1.5-4.1,3.2-6,5c-2.2,2.2-4.2,4.5-6,7c-1.3,1.8-2.4,3.7-3.5,5.6c-0.7,1.2-1.3,2.5-1.7,3.8c-0.5,1.3-1.1,2.6-1.3,3.9
			c-0.3,1.6-0.9,3.3-0.8,4.9C311.5,226.3,311.4,227,311.4,227.7z M306.4,206.7c0.1-0.3,0.3-0.7,0.4-1.1c-0.5-0.4-0.9-0.8-1.2-1.1
			c-0.2,0.2-0.3,0.4-0.5,0.5c0,0.6,0,1.2,0,1.8C305.5,206.8,305.9,206.8,306.4,206.7z M377.7,201.4c0,0.4,0,0.8,0,1.2
			c0.7,0.1,1.1-0.1,1.3-0.8C378.7,201.2,378.3,201.1,377.7,201.4z M384.9,221.8c0.2-0.4,0.4-0.8,0.6-1.3c-0.5,0.1-1,0.1-1.4,0.1
			c0,0.5,0,0.8,0,1.2C384.4,221.9,384.6,221.9,384.9,221.8z M379.4,216.6c0-0.2-0.1-0.3-0.1-0.5c-0.5,0.1-1,0.1-1.5,0.2
			c-0.2,0.2-0.3,0.3-0.4,0.5c0.1,0.2,0.3,0.4,0.4,0.5C378.4,217,378.9,216.8,379.4,216.6z M383.4,199.8c0,0.4,0,0.6,0,0.9
			c0.6-0.1,1.1-0.1,1.7-0.2C384.5,200,384.3,199.4,383.4,199.8z M305.2,244.7c-0.7-0.7-1.1-0.9-1.5-0.4c0.2,0.3,0.3,0.7,0.5,1
			C304.6,245,304.8,244.9,305.2,244.7z M354.6,183.8c0-0.5,0-0.9,0-1.4c-0.4,0.1-0.7,0.1-0.9,0.2
			C353.6,183.3,353.8,183.7,354.6,183.8z M330.5,258.9c-0.1,1-0.1,1,0.8,1.2c0-0.4,0-0.8,0-1.2C331.1,258.9,330.8,258.9,330.5,258.9
			z M363.7,185.2c0-0.5,0-0.9,0-1.4c-0.4,0.1-0.7,0.1-0.9,0.2C362.7,184.6,362.8,185.1,363.7,185.2z M335.8,183.5c0-0.5,0-0.8,0-1.4
			c-0.5,0.3-0.9,0.5-1.6,0.9C335,183.3,335.3,183.4,335.8,183.5z M369.1,186.8c0.4,0,0.9-0.1,1.3-0.1c0-0.2,0-0.4,0-0.6
			c-0.4,0-0.9,0.1-1.3,0.1C369.1,186.5,369.1,186.6,369.1,186.8z M376.7,178.8c0.1-0.1,0.2-0.2,0.2-0.3c-0.2-0.2-0.4-0.5-0.5-0.7
			c-0.2,0.2-0.4,0.4-0.6,0.6C376.2,178.5,376.5,178.7,376.7,178.8z M306.4,248.9c0-0.1,0-0.3,0-0.4c-0.3,0-0.7,0.1-1.1,0.1
			c0,0.2,0.1,0.4,0.1,0.6C305.8,249.1,306.1,249,306.4,248.9z M350.7,180.2c-0.4,0-0.7,0.1-1.1,0.1c0.4,0.3,0.7,0.6,1.1,0.9
			C350.7,180.7,350.7,180.5,350.7,180.2z M351.8,176.3c0.3,0,0.6-0.1,1-0.1c0-0.2,0-0.4,0-0.6c-0.3,0-0.6,0.1-1,0.1
			C351.8,175.9,351.8,176.1,351.8,176.3z M373.9,230.5c0-0.1,0-0.2,0-0.4c-0.2,0-0.4-0.1-0.7-0.1c0,0.4,0,0.7,0,1
			C373.5,230.8,373.7,230.7,373.9,230.5z M303.2,237.1c0-0.7-0.2-0.7-0.7-0.4c0,0.2,0.1,0.3,0.1,0.5
			C302.8,237.1,303,237.1,303.2,237.1z M321.4,187.8c0.2,0,0.4,0,0.7-0.1c0-0.2-0.1-0.4-0.1-0.6c-0.2,0.1-0.4,0.1-0.6,0.2
			C321.4,187.5,321.4,187.6,321.4,187.8z M311.2,199c0,0.7,0.2,0.7,0.7,0.4c0-0.2-0.1-0.3-0.1-0.5
			C311.6,198.9,311.5,198.9,311.2,199z M334.3,255.5c0,0.5,0,0.7,0,1c0.2-0.1,0.4-0.1,0.7-0.2C334.7,256.1,334.6,255.9,334.3,255.5z
			 M320.7,192.2c0.5-0.1,0.8-0.1,1-0.1c0-0.2-0.1-0.4-0.1-0.7C321.3,191.6,321.1,191.8,320.7,192.2z M343.4,183
			c-0.1,0.5-0.1,0.5,0.7,0.4C343.8,183.2,343.6,183.1,343.4,183z M383.7,226.6c-0.1-0.3-0.1-0.4-0.1-0.3c-0.1,0.1-0.4,0.2-0.8,0.4
			C383.2,226.7,383.4,226.7,383.7,226.6z M318.2,257.9c-0.1,0-0.3,0-0.5,0.1c0,0.2,0.1,0.4,0.1,0.8
			C318,258.3,318.1,258.1,318.2,257.9z M315.5,196.9c-0.1,0-0.2,0-0.3,0.1c0,0.2,0.1,0.4,0.1,0.5c0.1,0,0.1,0,0.2,0
			C315.5,197.2,315.5,197.1,315.5,196.9z M384.8,217v0.1c0.1,0,0.2,0,0.3,0V217C385,217,384.9,217,384.8,217z"/>
	</g>
	<g>
		<path class="st0" d="M-4.9,299.7c-1.2,0.1-2.4,0.2-3.5,0.4c-0.8,0.1-1.6,0.4-2.4,0.6c-0.8,0.1-1.7,0-2.5,0.3
			c-1.4,0.6-2.7,0.5-4.1,0.7c-0.7,0.1-1.3,0.3-1.8,0.7c0.2,1.5-0.6,3-0.4,4.6c-0.6,0.7-0.3,1.5-0.4,2.2c-0.1,0.6-0.2,1.2-0.4,1.7
			c-0.1,0.5,0.2,1.1-0.3,1.6c-0.1,0.1,0,0.2-0.1,0.3c-0.1,1.4-0.3,2.7-0.4,4.1c-0.1,0.6-0.2,1.3-0.4,1.9c-0.1,0.6,0.3,1.3-0.4,1.9
			c-0.1,0.1,0,0.2,0,0.3c-0.1,1.4-0.2,2.7-0.4,4.1c-0.2,1.4-0.4,2.8-0.8,4.1c-0.2,0.7-0.7,1.4-1.3,1.9c-0.9,0.8-2,1.4-3.2,1.6
			c-2.4,0.4-4.8,0.6-7.1,1.1c-1.7,0.4-3.3,0.5-4.9,0.9c-0.7,0.2-1.4,0.4-2.1,0.3c-1-0.1-1.5-0.8-2.2-1.4c0-0.9,0-1.9,0.1-2.9
			c0.1-0.6,0.4-1.2,0.4-1.9c0-0.6-0.1-1.2,0.4-1.7c-0.2-1.2,0.5-2.4,0.4-3.6c0-0.7,0.2-1.4,0.4-2.1c0.1-0.7-0.3-1.4,0.4-2.1
			c0.1-0.1,0-0.2,0-0.3c0.1-1.4,0.2-2.8,0.5-4.2c0.3-1.8,0.5-3.5,0.8-5.3c0.2-0.9,0.1-1.7,0.4-2.6c0.3-0.9,0.3-1.7,0.3-2.6
			c0-0.6,0.5-1.2,0.4-1.9c-0.1-0.6-0.2-1.2,0.3-1.7c0.1-0.1,0-0.2,0-0.3c0.1-1.4,0.3-2.7,0.4-4.1c0.1-0.6,0.2-1.2,0.4-1.7
			c0.1-0.6-0.1-1.2,0.3-1.9c0.3-0.5-0.1-1.3,0.1-1.8c0.4-0.9,0.1-1.8,0.4-2.6s0.3-1.6,0.4-2.4c0.1-0.6,0.3-1.3,0.4-1.9
			c0.1-0.6-0.1-1.3,0.4-1.9c0.1-0.1,0-0.2,0-0.3c0.1-1.4,0.2-2.8,0.5-4.2c0.2-0.9,0.1-1.8,0.4-2.6c0.3-0.9,0.1-1.8,0.4-2.6
			c0.3-0.9,0.1-1.9,0.4-2.7c0.3-0.9,0.1-1.7,0.4-2.6c0.3-1,0.1-2,0.4-2.9c0.3-1,0.2-1.8,0.4-2.7c0.1-0.5,0.3-1,0.3-1.6
			c0-0.5-0.1-1,0.2-1.6c0.3-0.4,0.1-1.1,0.2-1.6c0-0.6,0.5-1.2,0.4-1.9c-0.1-0.6-0.1-1.2,0.3-1.7c0.1-0.1,0-0.4,0-0.7
			c0.1-1.4,0.1-2.7,0.5-4.1c0.3-1,0.1-1.9,0.4-2.7c0.4-0.9,0.2-1.7,0.3-2.5c0.5-0.9,0.9-1.8,1.6-2.5c0.9-0.9,1.9-1.4,3-1.6
			c2.1-0.2,4.2-1.1,6.3-1c1.4-0.7,3-0.4,4.4-0.8c1.4-0.5,2.9-0.3,4.2-0.8c1.7-0.5,3.3-0.4,4.9-0.9c1.4-0.4,2.9-0.3,4.2-0.8
			c1.5-0.5,3-0.4,4.4-0.8c1.5-0.5,3-0.3,4.4-0.8c1.5-0.5,3-0.4,4.4-0.8c3.1-0.9,6.1-0.8,9.1-1.3c1.6,0.3,3.2,0,4.8,0.4
			c0.9,0.2,1.9,0.2,2.9,0.4c1.6,0.4,3.1,0.9,4.6,1.6c2.5,1.1,4.3,2.9,6.2,4.7c1.2,1.1,1.9,2.6,2.6,4.1c0.8,1.6,1.2,3.4,1.6,5.1
			c0.9,3.3,0.4,6.8,0.4,10.2c0,0.7-0.4,1.5-0.4,2.2s-0.2,1.4-0.4,2.1c-0.2,0.7-0.4,1.4-0.6,2.2c-0.2,0.7-0.3,1.4-0.5,2
			c-0.2,0.7-0.3,1.5-0.7,2.1c-1.1,1.7-1.3,3.8-2.8,5.4c-0.7,2-2,3.7-3.2,5.4s-2.7,3.2-4.1,4.8c-2.1,2.4-4.7,4.4-7.2,6.4
			c-1.3,1-2.9,1.8-4.3,2.8c0.9,1.3,1.9,2.6,2.8,3.9c1.2,1.6,2.5,3.1,3.7,4.7c0.5,0.7,1.1,1.3,1.5,2s1,1.4,1.5,2.1
			c1,1.2,1.9,2.6,2.8,3.9c1.5,2.2,3.1,4.4,4.6,6.6c0.2,0.3,0.5,0.6,0.7,1c-0.2,0.7,0.1,1.4-0.3,2.2c-0.6,1.3-1.7,2-2.9,2.2
			c-2.1,0.3-4.2,1.1-6.3,1c-1.5,0.7-3.1,0.4-4.6,0.9c-1.4,0.4-2.8,0.5-4.3,0.7c-0.4,0.1-0.7,0.3-1,0.4c-1.2,0.3-2.3,0.1-3.3-0.1
			c-1.1-0.2-1.7-1.1-2.4-1.9c-1.2-1.6-2.4-3.3-3.7-4.9c-0.8-0.9-1.4-1.9-2.1-2.9c-1.3-1.7-2.5-3.6-3.9-5.3c-1.5-1.8-2.7-3.9-4.1-5.8
			c-0.8-1.1-1.6-2.3-2.4-3.4C-4.6,300.2-4.7,299.9-4.9,299.7z M-16.4,283.9c0.5-0.2,1-0.4,1.4-0.5c1.4-0.3,2.7-0.3,4.1-0.7
			c1.5-0.5,3.2-0.4,4.7-0.9c1.3-0.4,2.7-0.1,4.1-0.8c2.3,0,4.5-1,6.8-1c0.7,0,1.4-0.5,2.1-0.5c0.8,0,1.4-0.3,2.1-0.6
			c1.3-0.6,2.6-1,3.8-1.9c2.1-1.4,3.7-3.3,5.4-5.2c0.5-0.6,1.1-1.2,1.4-1.9c1.3-2.5,2.2-5.2,2.5-7.9c0.2-1.6,0.2-3.2-0.1-4.9
			c-0.3-1.4-0.8-2.6-1.4-3.8c-0.5-1-1.2-1.9-2.1-2.3c-1.7-0.7-3.6-1.4-5.6-1.1c-1.4,0.2-2.7,0.1-4.1,0.7c-0.9,0.4-1.9,0.2-2.8,0.4
			c-1,0.2-1.9,0.4-2.9,0.6c-1.1,0.2-2.1,0.3-3.2,0.6c-1.6,0.5-3.3,0.6-4.9,0.8c-2.3,0.3-4.5,1.1-6.7,1.1c-0.2,1.7-0.4,3.2-0.5,4.8
			c0,0.1,0,0.3,0,0.3c-0.5,0.5-0.3,1-0.4,1.6s-0.3,1.2-0.4,1.7c-0.2,1.4-0.3,2.8-0.4,4.2c0,0.1,0,0.3,0,0.3
			c-0.7,0.6-0.2,1.3-0.4,1.9c-0.1,0.6-0.3,1.3-0.4,1.9c-0.2,1.4-0.1,2.7-0.5,4.1c-0.2,0.9-0.1,1.8-0.4,2.6s-0.3,1.4-0.3,2.1
			c0,0.8-0.5,1.5-0.4,2.2C-16.1,282.5-16.3,283.1-16.4,283.9z M-13,286.5c-0.9,0.8-1.7,1.5-2.8,2.4c0.6,0.3,1,0.6,1.4,0.8
			c0.4-0.2,0.7-0.4,1-0.6c0.3-0.6,0.5-1.1,0.8-1.6C-12.7,287.2-12.8,286.9-13,286.5z M12.7,306.2c0.3,0,0.5-0.1,0.8-0.1
			c0.2-0.4,0.4-0.8,0.5-1.1c-0.2-0.3-0.4-0.6-0.6-1c-0.4,0.2-0.7,0.4-0.9,0.6C12.6,305.2,12.7,305.6,12.7,306.2z M-22.3,262.1
			c-0.4-0.5-0.8-0.9-1.2-1.4c-0.1-0.1-0.3,0-0.5,0c0,0.5,0,0.9,0,1.2C-23.5,262.6-23,262.3-22.3,262.1z M29.8,265.1
			c0.7-0.5,0.6-1.1,0.4-1.6c-0.4,0.3-0.9,0.5-1.2,0.9c-0.2,0.2-0.2,0.5-0.4,0.9C29.1,265.1,29.5,265.1,29.8,265.1z M11.9,310.2
			c0.4,0,0.9-0.1,1.3-0.1c0-0.3,0-0.6,0-0.9c-0.4,0-0.9,0.1-1.3,0.1C11.9,309.6,11.9,309.9,11.9,310.2z M10.1,310.5
			c-0.3-0.1-0.6-0.2-0.9-0.3c-0.1,0.6-0.3,1.2,0.4,1.5c0.1,0.1,0.3,0,0.5,0C10.1,311.3,10.1,311,10.1,310.5z M-30.6,265.7
			c0.1,0,0.3,0,0.4,0.1c0.2-0.7,0.5-1.5,0.7-2.2l-0.1-0.1c-0.1,0-0.3,0-0.5,0C-30.2,264.2-30.4,264.9-30.6,265.7z M-10.9,292.2
			c0.3-0.4,0.5-0.6,0.8-1c-0.4-0.2-0.6-0.4-1-0.6c-0.2,0.4-0.4,0.7-0.5,1.1C-11.4,291.8-11.2,291.9-10.9,292.2z M2.4,300.3
			c0,0.3,0,0.6,0,1c0.4-0.1,0.7-0.1,1-0.2C3.3,300.5,3.1,300.2,2.4,300.3z M4,288.1c0.4,0,0.8-0.1,1.3-0.1c0-0.2,0-0.4,0-0.6
			c-0.4,0-0.8,0.1-1.3,0.1C4,287.7,4,287.9,4,288.1z M-7.8,241.7c-0.5,0.1-0.9,0.2-1.4,0.2c0.5,0.5,0.8,0.7,1.4,0.3
			C-7.9,242.2-7.8,242.1-7.8,241.7z M-3.9,246.9c-0.1,0.1-0.2,0.1-0.3,0.2c0,0.3,0.1,0.6,0.1,1.1c0.4-0.4,0.6-0.6,0.9-0.8
			C-3.5,247.2-3.7,247.1-3.9,246.9z M-21.5,280.3c0.3,0.2,0.6,0.3,1.1,0.5c-0.1-0.6-0.1-0.9-0.2-1.4
			C-20.9,279.8-21.2,280.1-21.5,280.3z M-18,273.8c-0.3,0-0.6,0.1-1,0.1c0,0.2,0,0.4,0,0.6c0.3,0,0.6-0.1,1-0.1
			C-18,274.2-18,274-18,273.8z M16.6,244.7c-0.3,0.3-0.6,0.6-0.8,0.9c0.2,0,0.5,0,0.8-0.1C16.6,245.1,16.6,244.9,16.6,244.7z
			 M12.9,300.2c0,0.5,0,0.7,0,1c0.2-0.1,0.4-0.1,0.7-0.2C13.3,300.7,13.2,300.6,12.9,300.2z M-29,271.6c0-0.7-0.2-0.7-0.7-0.4
			c0,0.2,0.1,0.3,0.1,0.5C-29.4,271.6-29.2,271.6-29,271.6z M-23.4,309.7c-0.5,0.1-0.8,0.1-1,0.1c0,0.2,0.1,0.4,0.1,0.7
			C-24,310.3-23.9,310.1-23.4,309.7z M16.6,287.8c0-0.5,0-0.7,0-1c-0.2,0.1-0.4,0.1-0.7,0.2C16.2,287.2,16.3,287.4,16.6,287.8z
			 M-34.2,310.5c-0.2,0-0.4,0-0.7,0.1c0,0.2,0.1,0.4,0.1,0.6c0.2-0.1,0.4-0.1,0.6-0.2C-34.2,310.8-34.2,310.7-34.2,310.5z
			 M18.6,303.3c-0.1,0.5-0.1,0.5,0.7,0.4C18.9,303.5,18.7,303.4,18.6,303.3z M24.7,276.9c-0.2,0.1-0.4,0.2-0.7,0.3l0.1,0.1
			c0.2,0,0.4,0,0.6-0.1C24.7,277,24.7,276.9,24.7,276.9z M32.4,254.1c0.1,0,0.3,0,0.5-0.1c0-0.2-0.1-0.4-0.1-0.8
			C32.6,253.7,32.5,253.9,32.4,254.1z M-29.7,309.6h0.1c0-0.1,0-0.2,0-0.3h-0.1C-29.7,309.4-29.7,309.5-29.7,309.6z M6.7,297.8H6.6
			c0,0.1,0,0.2,0,0.3h0.1C6.7,298,6.7,297.9,6.7,297.8z M-26.1,316.9h0.1c0-0.1,0-0.2,0-0.3h-0.1C-26.1,316.7-26.1,316.8-26.1,316.9
			z M26.3,312.9L26.3,312.9c0.1,0.1,0.2,0.1,0.3,0.1v-0.1C26.5,312.8,26.4,312.8,26.3,312.9z M-33.1,296h0.1c0-0.1,0-0.2,0-0.3h-0.1
			C-33.1,295.8-33.1,295.9-33.1,296z"/>
	</g>
	<g>
		<path class="st0" d="M478.8,200.4c0.3-1.3,0.4-2.4,0.6-3.6c0.1-0.9,0.1-1.9,0.3-2.7c0.3-0.9,0.1-1.7,0.4-2.6
			c0.3-0.9,0.2-1.8,0.4-2.7c0.2-0.9,0.1-1.8,0.4-2.6c0.3-0.9,0.1-1.8,0.3-2.6c0.3-0.9,0.3-1.7,0.3-2.6c0-0.6,0.5-1.2,0.4-1.9
			c-0.1-0.6-0.1-1.2,0.3-1.7c0.1-0.1,0-0.2,0-0.3c0.1-1.4,0.1-2.8,0.4-4.2c0.2-0.9,0.1-1.8,0.4-2.6c0.3-0.9,0.1-1.8,0.3-2.6
			c0.3-0.9,0.1-1.9,0.4-2.7c0.3-0.9,0.1-1.7,0.4-2.6c0.3-1,0.1-2,0.4-2.9c0.3-1,0.1-1.8,0.3-2.7c0.1-0.5,0.3-1,0.3-1.6
			c0-0.5-0.1-1,0.2-1.6c0.2-0.5,0.1-1.1,0.2-1.6c0-0.6,0.5-1.2,0.4-1.9c0-0.5,0.2-1.2,0.3-1.7c0.5-1.7,1.9-2.7,3.7-3.1
			c0.8-0.2,1.6-0.4,2.4-0.6c0.8-0.1,1.6,0,2.3-0.3c1.5-0.6,3-0.3,4.4-0.8c2.2-0.7,4.3-0.5,6.4-1c0.5,0.5,1,1,1.6,1.6
			c0,0.7,0,1.7,0,2.6c0,0.7-0.2,1.4-0.3,2.1c-0.1,0.6,0.3,1.3-0.3,1.9c-0.1,0.1,0,0.2,0,0.3c-0.1,1.4-0.2,2.8-0.4,4.2
			c-0.1,0.6-0.3,1.2-0.3,1.7c-0.1,0.5,0.1,1.1-0.4,1.6c-0.1,0.1,0,0.2,0,0.3c-0.1,1.4-0.1,2.8-0.4,4.2c-0.2,0.9-0.1,1.9-0.4,2.7
			c-0.3,0.9-0.2,1.8-0.4,2.7c-0.4,1.7-0.4,3.3-0.7,5c-0.2,1-0.1,2-0.4,2.9c-0.3,1,0,1.9-0.4,2.7c-0.3,0.9-0.1,1.8-0.4,2.6
			c-0.3,0.9-0.3,1.7-0.3,2.6c0,0.6-0.5,1.2-0.4,1.9c0.1,0.6,0.2,1.2-0.3,1.7c-0.1,0.1,0,0.3,0,0.5c0,0.8,0,1.6-0.3,2.4
			c-0.3,0.7,0.1,1.5-0.4,2.2c0,0,0,0.1,0,0.2c-0.1,1.4-0.3,2.8-0.4,4.2c0,0.6-0.5,1.2-0.4,1.9c0.1,0.5,0,1.1-0.3,1.7s0.1,1.3-0.1,2
			c-0.4,1.7-0.4,3.3-0.7,5c-0.2,0.9-0.1,1.9-0.4,2.7c-0.3,0.9-0.1,1.9-0.4,2.7c-0.3,0.9-0.1,1.9-0.4,2.7c-0.3,0.9-0.2,1.7-0.3,2.6
			c-0.3,1.8-0.4,3.5-0.8,5.3c-0.2,0.9-0.1,1.7-0.3,2.6c-0.3,0.9-0.3,1.7-0.3,2.6c0,0.6-0.5,1.2-0.4,1.9c0.1,0.5,0.1,1.1-0.3,1.7
			c-0.2,0.3,0,0.8,0,1.1c0,0.9-0.3,1.8-0.8,2.6c-0.7,1.1-1.7,1.9-3,1.7c-1.3-0.5-2.4-1.3-3.4-2.2c-0.6-0.5-1.3-1-2-1.5
			c-0.6-0.4-1-1.2-1.9-1.3c-0.1,0-0.2-0.2-0.4-0.3c-1.4-1.1-2.7-2.3-4.1-3.3c-1.9-1.4-3.7-2.8-5.5-4.2c-1.8-1.4-3.6-2.7-5.4-4.2
			c-1.8-1.5-3.8-2.9-5.6-4.4c-1.7-1.3-3.4-2.6-5.1-3.9c-1.8-1.4-3.7-2.8-5.5-4.2c-1.7-1.4-3.5-2.7-5.2-4c-1.9-1.5-3.8-2.9-5.6-4.4
			c-1.9-1.6-3.9-3-6-4.5c-0.2,0.2-0.4,0.4-0.5,0.5c-0.2,1.6-0.2,3.2-0.5,4.7c-0.2,0.9-0.1,1.9-0.4,2.7c-0.3,0.9-0.1,1.9-0.4,2.7
			c-0.3,0.9-0.1,1.8-0.4,2.6c-0.4,0.9-0.1,1.8-0.4,2.6c-0.3,0.9-0.1,1.9-0.4,2.7c-0.3,0.9-0.1,1.7-0.4,2.6c-0.3,0.9-0.1,1.9-0.4,2.7
			c-0.3,0.9-0.1,1.9-0.4,2.7c-0.3,0.9-0.1,1.8-0.4,2.6c-0.4,0.9-0.1,1.8-0.4,2.6c-0.3,0.9-0.1,1.9-0.4,2.7c-0.3,0.9-0.1,1.8-0.4,2.6
			c-0.3,0.9-0.1,1.9-0.4,2.7c-0.3,0.9-0.1,1.9-0.4,2.7c-0.3,0.9-0.1,1.7-0.4,2.6c-0.2,0.8-0.1,1.7-0.4,2.4c-0.5,1.2-0.2,2.3-0.6,3.5
			c-0.8,2.1-2.4,3.1-4.2,3.6c-0.7,0.2-1.4,0-2,0.3c-1.6,0.5-3.2,0.4-4.7,0.9c-1.5,0.4-2.9,0.5-4.4,0.7c-0.6,0.1-1.1,0.4-1.7,0.5
			c-0.6,0.1-1.1,0.1-1.5,0.2c-1.1-0.4-1.8-0.9-2.3-2.1c0.2-0.7-0.2-1.5,0.3-2.5c0.4-0.8-0.3-1.8,0.4-2.7c0.1-0.1,0-0.3,0-0.5
			c0.1-1.4,0.1-2.8,0.4-4.2c0.2-0.9,0.1-1.8,0.4-2.6c0.4-0.9,0.1-1.8,0.4-2.6c0.3-0.9,0.1-1.9,0.4-2.7c0.3-0.9,0.1-1.7,0.4-2.6
			c0.3-0.9,0.1-1.9,0.4-2.7c0.3-0.9,0.1-1.9,0.4-2.7c0.3-0.9,0.1-1.8,0.4-2.6c0.4-0.9,0.1-1.8,0.4-2.6c0.3-0.9,0.1-1.9,0.4-2.7
			c0.3-0.9,0.1-1.7,0.4-2.6c0.3-0.9,0.1-1.9,0.4-2.7c0.3-0.9,0.1-1.9,0.4-2.7c0.3-0.9,0.1-1.8,0.4-2.6c0.4-0.9,0.1-1.8,0.4-2.6
			c0.3-0.9,0.1-1.9,0.4-2.7c0.3-0.9,0.1-1.7,0.4-2.6c0.3-0.9,0.1-1.9,0.4-2.7c0.3-0.9,0.1-1.9,0.4-2.7c0.3-0.9,0.1-1.7,0.4-2.6
			c0.3-0.9,0.1-1.8,0.4-2.6c0.3-0.9,0.1-1.9,0.4-2.7c0.3-0.9,0.1-1.7,0.4-2.6c0.3-0.9,0.1-1.9,0.4-2.7c0.3-0.9,0.1-1.9,0.4-2.7
			c0.3-0.9,0.1-1.7,0.4-2.6c0.3-0.9,0.1-1.8,0.4-2.6c0.3-0.9,0.1-1.9,0.4-2.7c0.3-0.9,0.1-1.7,0.4-2.6c0.3-0.9,0.1-1.9,0.4-2.7
			c0.3-0.9,0.1-1.9,0.4-2.7c0.2-0.8,0.3-1.5,0.3-2.2c0.3-0.4,0.5-0.8,0.9-1.4c0.8-0.6,1.8-0.4,3-0.6c0.9,0.6,1.9,1.3,2.9,2
			c1.6,1.3,3.1,2.7,4.8,3.9c0.9,0.6,1.7,1.6,2.7,2.1c1.5,0.8,2.4,2.3,4,3c0.2,0.1,0.3,0.3,0.5,0.4c1.6,1.4,3.2,2.8,4.9,4
			c1.2,0.8,2.1,1.8,3.2,2.6c2.1,1.5,4.1,3.2,6.1,4.8c1.1,0.9,2.1,1.8,3.2,2.6c2.2,1.6,4.2,3.3,6.3,5c2,1.6,4.1,3.2,6.1,4.8
			c1.1,0.8,2,1.7,3.1,2.5c2.3,1.7,4.6,3.5,6.8,5.4C478.5,200.4,478.6,200.3,478.8,200.4z M496.1,179.2c-0.5,0.1-0.8,0.5-0.8,0.9
			c0,0.5,0.3,0.8,0.8,0.8s0.9-0.5,0.9-1C496.9,179.4,496.6,179.1,496.1,179.2z M499.8,169.1c0-0.4,0-0.6,0-0.8
			c-0.2,0-0.4-0.1-0.6-0.1c-0.2-0.1-0.3-0.2-0.5-0.3c-0.4,0.3-0.7,0.5-1.3,0.9c0.4,0.1,0.7,0.2,1,0.3c-0.1,0.1-0.1,0.1-0.2,0.2
			C498.7,169.2,499.2,169.2,499.8,169.1z M445.7,193.1c-0.2,1,0,1.3,0.7,1.3c0.4,0,0.8-0.4,0.8-1c-0.1-0.1-0.3-0.2-0.6-0.4
			C446.3,193.1,446,193.1,445.7,193.1z M472.8,215.6c-0.1-0.8-0.5-0.9-1.2-0.8c-0.2,0.2-0.4,0.5-0.6,0.8c0.3,0.2,0.5,0.4,0.8,0.6
			C472,216,472.4,215.8,472.8,215.6z M423,233.2c0,0-0.1,0.2-0.2,0.2c-0.2,0.1-0.4,0.2-0.6,0.3c0,0.3,0,0.6,0.1,0.8
			c0.5-0.1,0.8-0.1,1.2-0.1c0.2-0.3,0.3-0.5,0.6-0.8C423.6,233.5,423.3,233.4,423,233.2z M488.8,208.1c0.8,0.4,1.2,0,1.6-0.7
			c-0.3-0.2-0.5-0.4-0.9-0.7C489.2,207.2,489,207.6,488.8,208.1z M493.2,161.2c-0.3-0.1-0.6-0.2-1-0.3c0,0.5,0,0.9,0,1.3
			c0.2,0.1,0.5,0.3,0.9,0.5C493.1,162.1,493.2,161.7,493.2,161.2z M489.9,217.4c0.1,0.1,0.2,0.2,0.3,0.3c0.1,0.2,0.1,0.3,0.1,0.5
			c0.8-0.3,1-0.7,0.8-1.3c-0.3-0.1-0.6-0.2-0.8-0.3C490.2,216.8,490,217,489.9,217.4z M420.7,186.1c0.9-0.5,0.8-1.1,0.7-1.6
			c-0.4,0.4-0.8,0.8-1.2,1.3c0,0,0.2,0.2,0.3,0.3C420.5,186.1,420.6,186.1,420.7,186.1z M498,171.7c0.1-1.4,0.1-1.4-0.8-1.1
			C496.9,171.2,497.2,171.6,498,171.7z M490.3,167.4c0.2-0.9,0.1-1.3-0.2-1.3c-0.3,0.1-0.6,0.2-1,0.4
			C489.6,166.9,489.9,167,490.3,167.4z M419.4,217.5c0.3-0.4,0.4-0.6,0.6-0.9c-0.8-0.5-1.2-0.5-1.4,0
			C418.8,216.9,419,217.1,419.4,217.5z M449.2,187.8c-0.7,0.1-0.9,0.7-1.5,1.1c0.7-0.1,1.1-0.1,1.5-0.2
			C449.2,188.4,449.2,188.1,449.2,187.8z M439.2,179.5c0-0.3,0-0.7,0-0.9c-0.3,0-0.6,0.1-0.9,0.1c0,0.4,0.1,0.7,0.1,0.9
			C438.7,179.6,438.9,179.5,439.2,179.5z M497.4,150.4c0,0.4,0,0.7,0,1c0.4-0.1,0.7-0.1,0.9-0.2c0-0.4,0-0.6,0-0.9
			C498,150.4,497.7,150.4,497.4,150.4z M435.6,174.8c-0.5,0.4-0.8,0.6-1.2,0.9c0.3,0.2,0.5,0.3,0.7,0.5c0.1-0.1,0.2-0.3,0.4-0.4
			C435.6,175.5,435.6,175.2,435.6,174.8z M437.2,185.6c0.1,0.1,0.2,0.1,0.3,0.2c0.3-0.2,0.5-0.4,0.7-0.6c-0.2-0.2-0.3-0.4-0.5-0.6
			C437.5,184.9,437.3,185.2,437.2,185.6z M432.9,196.5c0-0.3,0-0.7,0-1c-0.2,0.1-0.4,0.1-0.6,0.2c0,0.3,0,0.6,0.1,0.9
			C432.6,196.5,432.8,196.5,432.9,196.5z M422.7,207.6c0.3,0.3-0.3,1.1,0.7,0.9c0-0.3,0-0.6,0-0.9
			C423.2,207.5,423.1,207.5,422.7,207.6z M457.4,205.8c0.5-0.1,0.8-0.1,1-0.1c0-0.2-0.1-0.4-0.1-0.7
			C458,205.3,457.9,205.4,457.4,205.8z M489.1,188c-0.5,0.1-0.8,0.1-1,0.1c0,0.2,0.1,0.4,0.1,0.7C488.5,188.5,488.7,188.4,489.1,188
			z M420.2,230.1c0.5-0.1,0.8-0.1,1-0.1c0-0.2-0.1-0.4-0.1-0.7C420.8,229.5,420.6,229.7,420.2,230.1z M429,200.8
			c-0.1-0.1-0.1-0.1-0.2-0.2c-0.2,0-0.3,0.1-0.5,0.2c0,0.2,0.1,0.4,0.1,0.8C428.7,201.2,428.8,201,429,200.8z"/>
	</g>
	<g>
		<path class="st0" d="M528,204.2c0.6-0.1,1.1,0,1.6-0.2c1-0.3,1.9,0.1,2.5,0.5c1.1,0.8,2.4,1.2,3.7,1.7c1.1,0.5,2.5,0.8,3.7,1.2
			c1.6,0.6,3.3,0.9,5,1.2c1.6,0.3,3.4,0.5,5,0.7c1.1,0.2,2.3-0.1,3.5,0.2c1.1,0.2,2.3-0.2,3.5-0.3c1.2-0.1,2.5-0.2,3.7-0.4
			c0.6-0.1,1.1-0.4,1.7-0.5c0.5-0.1,1.1,0,1.5-0.5c1.5-0.1,2.9-0.8,4.3-1.5c2.1-0.9,4.1-2.1,5.8-3.6c0.7-0.6,1.4-1.3,2.1-2
			c1.3-1.3,2.1-2.9,2.6-4.5c0.8-2.4-0.3-5.1-2.5-6.3c-2.4-1.4-4.6-1.6-6.9-1.6c-1.1-0.6-2.4,0.2-3.6-0.2c-0.7-0.2-1.6,0-2.4-0.1
			c-1.3-0.2-2.7,0-4,0.1c-0.8,0.1-1.5-0.3-2.4-0.1c-0.7,0.2-1.5,0.3-2.2-0.1c-0.1-0.1-0.3,0-0.5,0c-0.8,0.1-1.5,0.2-2.2-0.1
			c-0.7-0.2-1.4,0.2-2.2-0.1c-0.7-0.2-1.6-0.1-2.4-0.1c-1.4,0-2.8-0.3-4.2-0.3c-0.8,0-1.6-0.2-2.4-0.4c-0.8-0.2-1.5-0.6-2.3-0.7
			c-1.9-0.3-3.5-1.2-5.1-2c-2.2-1.1-4-2.7-5.7-4.5c-1.3-1.4-2.2-3-2.6-4.9c-0.3-1.2-0.6-2.5-0.6-3.8c0-1.1,0-2.2,0-3.3
			c0.2-3.2,0.8-6.4,2-9.6c0.6-1.7,1.3-3.4,2.2-5c0.7-1.4,1.6-2.6,2.4-3.9c1-1.6,2.3-2.9,3.6-4.2c2.1-2,4.3-3.9,6.8-5.5
			c1.1-0.7,2.1-1.5,3.2-2.1c2.6-1.4,5.2-2.8,8-3.9c0.7-0.3,1.4-0.6,2.1-0.8c0.7-0.2,1.4-0.6,2.2-0.7s1.5-0.4,2.2-0.7
			c0.8-0.3,1.6-0.1,2.2-0.6c0.7-0.5,1.4-0.2,2.1-0.5c1.3-0.5,2.6-0.4,3.9-0.8c2-0.7,4.1-0.6,6.1-0.9c1.1-0.2,2.2-0.3,3.4-0.3
			c0.7,0,1.5,0,2.2,0.1c0.7,0,1.5-0.4,2.2,0.1c0.1,0.1,0.3,0,0.5,0c1.9-0.2,3.7,0.2,5.4,0.5c1.6,0.3,3.2,0.6,4.7,1.1
			c2,0.7,4.2,1.1,6,2.3c0.6,0.4,1.3,0.4,1.9,0.8c0.8,0.5,1.6,1.1,2.3,1.6c0,1.1,0,2.1,0,3c-1.1,2-2.7,3.5-3.9,5.3
			c-0.5,0.8-1.2,1.4-1.7,2.1c-1.4,2-3,3.8-4.5,5.7c-0.8,1-1.7,1.6-3,1.6c-0.4,0-0.9,0.1-1.3,0c-1.9-0.7-3.8-1.5-5.7-2.2
			c-2.2-0.8-4.6-1.4-7.1-1.6c-1.4-0.1-2.7-0.2-4.1-0.3c-2.5-0.2-5,0.3-7.4,0.6c-1.4,0.2-2.9,0.6-4.3,1.1c-1.4,0.5-2.8,1.1-4.2,1.7
			s-2.6,1.4-3.8,2.2c-1.8,1.1-3.1,2.7-4.2,4.5c-0.5,0.8-0.7,1.7-0.8,2.6c-0.2,1-0.1,2,0.3,2.8c0.4,0.6,0.5,1.5,1.5,1.5
			c1.1,1,2.5,1.3,4,1.6c0.8,0.1,1.5,0.4,2.3,0.3c1.6-0.1,3.1,0.5,4.7,0.2c0.8,0.6,1.9-0.2,2.7,0.4c1.2-0.3,2.2,0.1,3.4,0
			c0.8-0.1,1.6,0,2.4,0.1c0.7,0,1.6-0.5,2.2,0.1c0.1,0,0.2,0,0.3,0c1.3-0.4,2.6,0,3.9,0c2,0,4.1,0.1,6.1,0.4
			c1.4,0.2,2.8,0.2,4.1,0.5s2.5,0.7,3.8,0.9c1.5,0.3,2.9,0.9,4.1,1.6c1.4,0.8,2.8,1.5,3.9,2.7c1.1,1.3,2.5,2.4,3.1,4.1
			c0.5,1.4,1,2.8,1.3,4.3c0.4,2.2,0.1,4.4,0.2,6.5c0,0.8-0.1,1.6-0.3,2.4s0.2,1.6-0.4,2.4c0.1,1.7-0.9,3.2-1.1,4.9
			c-0.1,0.6-0.5,1.3-0.8,1.9c-0.5,1-0.7,2.2-1.3,3.1c-0.7,1-1.2,2-1.8,3c-1.7,2.8-3.9,5.2-6.3,7.4c-2,1.9-4.2,3.5-6.5,5
			c-3.5,2.3-6,3.4-9.6,5c-1.7,0.8-3.6,1.3-5.3,1.9c-0.8,0.3-1.5,0.3-2.2,0.6c-0.7,0.3-1.4,0.4-2.1,0.5c-0.6,0.1-1.2,0.6-1.9,0.6
			c-0.6,0-1.1,0.2-1.7,0.4c-0.9,0.3-1.9,0.3-2.8,0.4c-2.2,0.2-4.4,0.9-6.6,1.1c-1,0.1-1.9-0.2-2.9-0.1s-2.1,0.4-3,0.3
			c-0.8-0.1-1.6-0.1-2.4,0c-0.8,0.1-1.6-0.1-2.4-0.1c-1.9-0.1-3.8-0.3-5.6-0.7c-1.5-0.3-2.9-0.6-4.4-1.1c-1.7-0.6-3.3-1.3-5-1.9
			c-2-0.7-3.8-1.8-5.5-3c-0.2-0.1-0.4-0.1-0.5-0.2c-0.3-0.5-0.5-0.9-0.8-1.5c-0.2-1.6,0.6-3,1.8-4.5c1.1-1.4,2.2-2.7,3.1-4.2
			c0.3-0.6,0.9-1.1,1.4-1.7c1.1-1.6,2.3-3.1,3.6-4.6C526.9,205.1,527.5,204.6,528,204.2z M556.9,216.2c-0.4-0.2-0.7-0.4-1.1-0.6
			c-0.3,0.2-0.6,0.4-0.9,0.5c0,0.2,0,0.4,0,0.7c0.6,0.2,1.2,0.6,2,0.2C556.9,216.8,556.9,216.5,556.9,216.2z M533.3,216.2
			c-0.5,0.4-0.9,0.7-1.2,1.1c0,0.3,0,0.5,0,0.7c0.5-0.1,0.9-0.1,1.2-0.1c0.2-0.4,0.3-0.8,0.5-1.1
			C533.6,216.6,533.5,216.4,533.3,216.2z M529.4,166.1c0,0.4,0,0.8,0,1.2c0.3,0,0.6-0.1,0.8-0.1c0.2-0.7,1-1.5-0.1-1.9
			C529.9,165.6,529.6,165.9,529.4,166.1z M570.8,173.7c-0.9-0.2-1.2,0.5-1.6,0.9c0.6,0.4,0.6,0.4,1.6,0.2
			C570.8,174.6,570.8,174.2,570.8,173.7z M580.6,179.3c0.5-0.1,0.9-0.1,1.3-0.1c0-0.3,0-0.5,0-0.7s0-0.4-0.1-0.6
			C580.6,178.1,580.6,178.1,580.6,179.3z M558.4,217.4c0.3,0.2,0.6,0.4,0.8,0.5c0.6-0.9,0.7-1.2,0.1-1.4
			C559.1,216.7,558.8,216.9,558.4,217.4z M542.8,149.6c0-0.3,0-0.7,0-0.9c-0.3,0-0.6,0.1-0.9,0.1c0,0.4,0.1,0.7,0.1,0.9
			C542.3,149.7,542.5,149.6,542.8,149.6z M558.4,173.4c-0.4,0-0.8,0.1-1.3,0.1c0,0.2,0,0.4,0,0.6c0.4,0,0.8-0.1,1.3-0.1
			C558.4,173.7,558.4,173.6,558.4,173.4z M540.5,161.3c-0.3-0.2-0.5-0.3-0.8-0.4c-0.2,0.2-0.4,0.4-0.6,0.6c0.2,0.2,0.5,0.3,0.8,0.6
			C540.1,161.8,540.3,161.6,540.5,161.3z M556.5,145.2c-0.1-0.5-0.1-0.8-0.2-1.3c-0.4,0.5-0.7,0.8-1.1,1.3
			C555.7,145.2,556,145.2,556.5,145.2z M554.5,218.9c0.3,0.2,0.6,0.3,1.1,0.5c-0.1-0.6-0.1-0.9-0.2-1.4
			C555.1,218.4,554.8,218.6,554.5,218.9z M564.1,216.4c0.3-0.1,0.4-0.1,0.7-0.2c0-0.3,0-0.6-0.1-1c-0.3,0.1-0.4,0.1-0.6,0.2
			C564.1,215.7,564.1,216,564.1,216.4z M543.7,223.5c0-0.2,0-0.4,0-0.7c-0.2,0.1-0.4,0.1-0.6,0.2c0,0.2,0.1,0.4,0.1,0.6
			C543.4,223.5,543.5,223.5,543.7,223.5z M585.5,177.1c0-0.5,0-0.7,0-1c-0.2,0.1-0.4,0.1-0.7,0.2C585,176.6,585.2,176.7,585.5,177.1
			z M533.9,150.2c0,0.7,0.2,0.7,0.7,0.4c0-0.2-0.1-0.3-0.1-0.5C534.3,150.2,534.1,150.2,533.9,150.2z M570.9,142.6
			c-0.1-0.3-0.1-0.4-0.1-0.3c-0.1,0.1-0.4,0.2-0.8,0.4C570.4,142.7,570.6,142.7,570.9,142.6z M554.1,183.7c0.1,0,0.3,0,0.5-0.1
			c0-0.2-0.1-0.4-0.1-0.8C554.3,183.2,554.2,183.5,554.1,183.7z M587.4,198c0,0.1,0,0.1,0,0.2c0.2,0,0.4,0,0.7-0.1
			c0-0.1,0-0.1,0-0.2C587.8,198,587.6,198,587.4,198z M566.1,181.6v0.1c0.1,0,0.2,0,0.3,0v-0.1C566.3,181.6,566.2,181.6,566.1,181.6
			z M593.6,191.6L593.6,191.6c0.1-0.1,0.1-0.2,0.1-0.3h-0.1C593.6,191.4,593.6,191.5,593.6,191.6z M583.3,206.2v-0.1
			c-0.1,0-0.2,0-0.3,0v0.1C583,206.3,583.2,206.3,583.3,206.2z M562.1,176.1V176c-0.1,0-0.2,0-0.3,0v0.1
			C561.9,176.2,562,176.2,562.1,176.1z M552.9,143.2L552.9,143.2c-0.1,0.1-0.1,0.2-0.1,0.3h0.1C552.9,143.4,552.9,143.3,552.9,143.2
			z"/>
	</g>
	<g>
		<path class="st0" d="M153,297.9c-0.4,1.7-1.5,2.2-2.8,2.8c-2,0-4.1,1-6.4,1c-1.5,0.7-3.1,0.4-4.6,0.9c-2.3,0.8-4.5,0.5-6.7,1
			c-1.3-0.7-2.2-1.6-2.7-3c-0.9-2.3-1.8-4.6-2.9-6.8c-0.5-0.9-0.8-1.9-1.2-2.9c-1.1,0.1-2.2,0-3.2,0.4c-1.5,0.5-3.1,0.4-4.6,0.8
			c-1.4,0.4-2.8,0.3-4.1,0.7c-1.6,0.5-3.2,0.4-4.7,0.9c-1.4,0.4-2.8,0.3-4.1,0.7c-1.5,0.5-3.1,0.4-4.6,0.8c-1.4,0.4-2.9,0.3-4.2,0.8
			c-1.7,0.5-3.3,0.4-4.9,0.9c-1.4,0.4-2.8,0.3-4.1,0.7c-1.6,0.5-3.2,0.6-4.8,0.8c-0.6,0.1-1.1,0.4-1.7,0.6c-0.3,0.4-0.5,1-0.9,1.5
			c-1.1,1.8-2.1,3.6-3.2,5.4c-1.3,2.1-2.5,4.3-3.8,6.4c-0.7,1.1-1.8,1.9-2.9,2.6c-0.1,0.1-0.3,0.2-0.4,0.2c-1.4,0.1-2.7,0.7-4.1,0.8
			c-1.9,0.1-3.8,0.9-5.8,0.9c-1.4,0.7-2.9,0.5-4.4,0.8c-0.7,0.1-1.4,0.4-2.1,0.5c-1.5,0.2-2.7-0.1-3.2-1.7c0.5-2.2,1.8-4,3-5.9
			c1.6-2.5,3.1-5.1,4.7-7.6s3.1-5,4.7-7.5c1.3-2.1,2.7-4.2,4-6.3c1-1.7,2-3.3,3.2-4.9c0.7-1,1.4-2.1,1.9-3.1
			c0.8-1.5,1.9-2.9,2.7-4.4c1.2-2.3,2.7-4.4,4.1-6.6c1.3-2.2,2.7-4.3,4.1-6.5c1.5-2.4,3.1-4.8,4.5-7.3c1.5-2.6,3.3-5,4.8-7.6
			c1.3-2.1,2.7-4.2,3.9-6.3c1.4-2.5,3.2-4.9,4.7-7.5c1.3-2.2,2.8-4.2,4-6.5c0.6-1.3,1.6-2.4,2.4-3.6c1.1-1.7,2.1-3.4,3.1-5.1
			c1-1.6,2.1-3.3,3.1-4.9c1.1-0.6,2-1.7,3.5-1.2c0.6,0.2,1,0.4,1.2,1c0.6,1.3,1.2,2.5,1.6,3.8c0.3,0.9,0.8,1.7,1.1,2.6
			c1.2,2.6,2.4,5.3,3.5,7.9c1,2.3,2,4.5,2.9,6.8c0.7,1.6,1.4,3.2,2.1,4.9c0.7,1.8,1.5,3.6,2.3,5.4s1.6,3.7,2.5,5.5
			c0.5,0.9,1,1.9,1.2,2.8c0.3,1,0.9,1.7,1.1,2.8c0.2,1.2,1.1,2.2,1.5,3.3c0.7,1.9,1.6,3.7,2.3,5.6c0.5,1.2,1.1,2.4,1.7,3.6
			c0.8,1.9,1.7,3.8,2.5,5.8c0.3,0.8,0.7,1.6,1.1,2.4c0.9,1.9,1.6,3.8,2.5,5.7c0.5,1.3,1.1,2.5,1.6,3.8s1.1,2.5,1.6,3.8
			c0.4,1,0.9,2,1.4,2.9C152.9,295.4,153.1,296.8,153,297.9z M109.6,252.7c-5.2,8.8-10.3,17.5-15.5,26.4c1.1-0.2,2.1-0.2,3.2-0.6
			c0.8-0.3,1.7-0.2,2.5-0.3c0.9-0.1,1.7-0.4,2.6-0.6c1.2-0.2,2.5,0,3.7-0.7c2.3,0,4.5-0.8,6.8-1.1c1.7-0.2,3.5-0.6,5.3-1
			C115.3,267.4,112.5,260.1,109.6,252.7z M122.5,258.7c0.4,0.1,0.7,0.2,1.1,0.3c0.2-0.5,0.4-0.8,0.6-1.2c-0.2-0.4-0.5-0.8-0.8-1.3
			c-0.4,0.4-0.7,0.7-0.9,0.9C122.5,257.9,122.5,258.3,122.5,258.7z M101.3,289.5c0-0.5,0-0.9,0-1.3c-0.4-0.2-0.8-0.4-1.2-0.5
			c-0.2,0.2-0.3,0.4-0.5,0.6c0.2,0.4,0.4,0.7,0.6,1.1c0.1,0.1,0.2,0.1,0.3,0.2C100.8,289.6,101,289.6,101.3,289.5z M110.6,232.8
			c0-0.5-0.3-0.8-0.8-0.8c-0.6,0-1,0.4-0.9,1c0,0.4,0.4,0.7,0.8,0.7C110.2,233.7,110.5,233.3,110.6,232.8z M119.5,245.2
			c-0.2-0.1-0.5-0.3-0.7-0.4c-0.3,0-0.7,0.1-1.1,0.1c0,0.5,0,0.9,0,1.3C118.4,246.1,119.1,246.2,119.5,245.2z M140.6,281.4
			c-0.2-0.6-0.4-1-0.9-0.8c-0.3,0.1-0.6,0.3-0.9,0.5C139.3,281.8,139.9,281.5,140.6,281.4z M116.8,258.3c0,0.5,0,1.1,0,1.6
			c0.2,0,0.4,0,0.6-0.1c0-0.5,0-1.1,0-1.6C117.2,258.3,117,258.3,116.8,258.3z M117.2,280.3c-0.5,0.4-0.8,0.8-0.4,1.3
			c0.3,0,0.6-0.1,0.9-0.1c0-0.3,0-0.6,0-0.8C117.5,280.5,117.4,280.4,117.2,280.3z M130.5,281.3c-0.8-0.5-1.1-0.5-1.4,0
			c0.3,0.2,0.6,0.3,0.9,0.5C130.2,281.7,130.3,281.5,130.5,281.3z M127.6,251.6c-0.4,0.1-1-0.3-1,0.7c0.4,0,0.7-0.1,1-0.1
			C127.6,251.9,127.6,251.8,127.6,251.6z M115.8,254.5c-0.5,0.1-0.8,0.1-1,0.1c0,0.2,0.1,0.4,0.1,0.7
			C115.2,255,115.4,254.9,115.8,254.5z M75.8,292.8c0.2,0,0.4,0,0.7-0.1c0-0.2-0.1-0.4-0.1-0.6c-0.2,0.1-0.4,0.1-0.6,0.2
			C75.8,292.5,75.8,292.6,75.8,292.8z M112,283.4c0.3,0,0.6-0.1,1.3-0.1c-0.6-0.2-0.9-0.3-1.2-0.4C112,283.1,112,283.2,112,283.4z
			 M115.6,250.8c0.8,0,0.8-0.3,0.5-0.7c-0.2,0.1-0.3,0.1-0.5,0.1C115.6,250.4,115.6,250.5,115.6,250.8z M116.2,285
			c0-0.1,0-0.2,0-0.3c-0.2,0.1-0.4,0.1-0.6,0.2c0,0.1,0,0.1,0,0.2C115.9,285,116,285,116.2,285z M135.7,291c0.1,0,0.1,0,0.2,0
			c0-0.2,0-0.4,0-0.7c-0.1,0-0.1,0-0.2,0C135.8,290.5,135.7,290.7,135.7,291z M121.6,264.1h-0.1c0,0.1,0,0.2,0,0.3h0.1
			C121.6,264.4,121.6,264.2,121.6,264.1z M70.3,299.4L70.3,299.4c-0.1-0.1-0.2-0.1-0.3-0.1v0.1C70.1,299.4,70.2,299.4,70.3,299.4z
			 M108.9,237.5h0.1c0-0.1,0-0.2,0-0.3h-0.1C108.9,237.3,108.9,237.4,108.9,237.5z"/>
	</g>
	<g>
		<path class="st0" d="M-294.6,292.1c0-2.5-0.4-2.5,1.5-4.4c0.6-0.2,1.1-0.4,1.6-0.6c0.6-0.1,1.2,0,1.7-0.2c1.4-0.6,2.9-0.4,4.3-0.8
			c1.5-0.5,3.1-0.4,4.6-0.8c2.1-0.7,4.1-0.6,6.1-0.9c1.4-0.2,2.8,0.6,3.2,1.9c0.4,1.7,1.1,3.2,1.6,4.8c0.6,1.5,0.9,3.2,1.8,4.5
			c0.7,3.2,2.1,6.2,3.2,9.2c1.1,2.9,2.2,5.8,3.3,8.7c0.8,2.1,1.6,4.4,2.3,6.5c0.7,2,1.5,4.1,2.3,6.1c0.7,1.7,1.3,3.4,1.9,5.1
			c0,0,0.1,0,0.2,0c0.3-0.4,0.7-0.9,1-1.4c1.7-2.9,3.4-5.8,5.2-8.7c1-1.6,1.8-3.2,2.8-4.9c1.1-2,2.4-4,3.5-6c0.9-1.7,2-3.3,3-5
			c1.2-2,2.5-4.1,3.7-6.1c0.8-1.4,1.6-2.8,2.4-4.1c1.4-2.4,2.9-4.8,4.3-7.2c0.8-1.4,1.7-2.9,2.5-4.3c1.3-2.3,2.6-4.6,4-6.8
			c0.8-1.3,2.1-2.1,3.5-2.6c1.1-0.4,2.2-0.6,3.4-0.7c1.9-0.2,3.8-0.9,5.8-0.9c1.3-0.7,2.7-0.5,4.1-0.8c0.6-0.1,1.1-0.4,1.7-0.5
			c1.2-0.2,2.5-0.4,3.8,0.1c0.6,0.7,0.2,1.9,0.3,2.8c-1.2,2.4-2.6,4.6-3.9,6.8c-1.8,3-3.7,5.9-5.4,8.9c-1.8,3.1-3.7,6.1-5.5,9.2
			c-1.9,3.3-4,6.6-5.9,9.9c-1,1.7-2.1,3.3-3.1,5s-1.9,3.3-2.9,5c-2.1,3.3-4,6.7-6.1,10.1c-1.9,3.1-3.8,6.2-5.7,9.4
			c-1.1,1.8-2.2,3.6-3.2,5.4c-0.9,1.5-1.7,2.9-2.6,4.4c-1.1,1.9-2.3,3.8-3.5,5.7c-1.1,1.8-2.2,3.6-3.2,5.4c-1.3,2.2-2.7,4.3-4,6.5
			c-1,1.9-2.2,3.7-3.3,5.5c-0.5,0.8-1.2,1.6-1.8,2.3c-0.9,0.1-1.7,0.2-2.4,0.2c-1.4-0.7-1.6-2.3-2.2-3.5c-0.7-1.7-1.3-3.4-1.9-5.1
			c-0.6-1.6-1.3-3.2-1.9-4.8c-0.6-1.6-1.2-3.3-1.9-5c-0.7-1.7-1.3-3.4-1.9-5.1c-0.6-1.6-1.3-3.2-1.9-4.8c-0.6-1.7-1.2-3.4-1.9-5.1
			c-0.6-1.6-1.3-3.2-1.9-4.8c-0.6-1.7-1.2-3.4-1.9-5.1c-0.6-1.5-1.2-3-1.7-4.5c-0.9-2.3-1.8-4.7-2.7-7c-0.6-1.7-1.2-3.3-1.9-5
			c-0.6-1.6-1.3-3.1-1.9-4.6c-0.7-1.7-1.2-3.4-1.9-5.1c-0.6-1.6-1.3-3.2-1.9-4.8c-0.7-1.8-1.3-3.5-1.9-5.3
			C-293.9,293.5-294.3,292.9-294.6,292.1z M-248.4,341.5c-0.4,0.5-0.8,1.1-1.2,1.6c-0.1,0.2,0,0.5,0,0.8c0.3,0,0.5-0.1,0.9-0.1
			c0.5-0.5,1.2-1.1,1.2-2c0-0.1-0.1-0.3-0.1-0.4C-247.9,341.5-248.1,341.5-248.4,341.5z M-260.9,348.4c0-0.5,0-1.1,0-1.6
			c-0.2-0.2-0.4-0.3-0.7-0.5c-0.3,0.5-0.4,0.8-0.6,1.2c0.2,0.3,0.4,0.7,0.5,1C-261.3,348.5-261.1,348.5-260.9,348.4z M-253.5,337.9
			c-0.8,0.5-1.2,0.9-0.9,1.6c0.3,0,0.5-0.1,0.9-0.1C-253.5,338.9-253.5,338.5-253.5,337.9z M-244.1,328c0.4,0,0.7-0.1,1-0.1
			c0-0.4,0-0.7,0-0.9c-0.4,0-0.6,0.1-0.9,0.1C-244.1,327.4-244.1,327.7-244.1,328z M-281.5,292.2c-0.3,0.3-0.7,0.7-0.2,1.4
			c0.3-0.3,0.6-0.6,1-0.9C-281,292.4-281.2,292.3-281.5,292.2z M-264.7,328c-0.4,0-0.8,0.1-1.3,0.1c0,0.2,0,0.3,0,0.6
			c0.4,0,0.8-0.1,1.3-0.1C-264.7,328.3-264.7,328.2-264.7,328z M-275.9,322c0.3,0,0.7-0.1,1.1-0.1c0-0.2-0.1-0.4-0.1-0.6
			c-0.3,0.1-0.6,0.1-0.9,0.2C-275.9,321.7-275.9,321.8-275.9,322z M-278.4,311.3c0-0.3,0-0.6,0-0.9c-0.2,0-0.4,0-0.6,0.1
			c0,0.3,0,0.6,0,0.9C-278.7,311.4-278.6,311.4-278.4,311.3z M-275.3,299c0.2,0,0.4,0,0.7-0.1c0-0.2-0.1-0.4-0.1-0.6
			c-0.2,0.1-0.4,0.1-0.6,0.2C-275.3,298.7-275.3,298.8-275.3,299z M-257.6,333.4c-0.3-0.2-0.4-0.4-0.8-0.7c0.1,0.5,0.1,0.7,0.2,0.9
			C-258.1,333.5-257.9,333.5-257.6,333.4z M-262.6,349.5c-0.5-0.1-0.5-0.1-0.5,0.8C-262.9,349.8-262.7,349.6-262.6,349.5z
			 M-260.3,335.1L-260.3,335.1c0.1-0.1,0.1-0.2,0.1-0.3h-0.1C-260.3,334.9-260.3,335-260.3,335.1z M-266.3,344L-266.3,344
			c0.1-0.1,0.1-0.2,0.1-0.3h-0.1C-266.3,343.8-266.3,343.9-266.3,344z M-239.7,326.1L-239.7,326.1c0.1,0.1,0.2,0.1,0.3,0.1v-0.1
			C-239.5,326-239.6,326-239.7,326.1z M-277.2,311.9L-277.2,311.9c0.1-0.1,0.1-0.2,0.1-0.3h-0.1
			C-277.2,311.7-277.2,311.8-277.2,311.9z"/>
	</g>
	<g>
		<path class="st0" d="M179.4,219.4c-1.3,0.1-2.3,0.1-3.3,0.4c-1.7,0.5-3.4,0.4-5.1,0.9c-1.4,0.4-2.7,0.3-4.1,0.7
			c-1.5,0.5-3.1,0.4-4.6,0.8c-1.4,0.4-2.8,0.5-4.2,0.7c-0.6,0.1-1.1,0.4-1.7,0.5c-1.2,0.1-2.4,0.1-3.6,0.2c-0.4-0.5-0.8-1-1.2-1.6
			c0.2-1.6,0.2-3.4,0.6-5.1c0.2-0.8,0.1-1.6,0.3-2.4c0.4-1.7,0.5-3.3,0.8-5c0.3-1.9,2.4-4,4.3-4.2c2.1-0.2,4.2-1,6.3-1
			c1.4-0.7,2.9-0.4,4.2-0.8c1.5-0.5,3.1-0.4,4.6-0.8c1.4-0.4,2.7-0.3,4.1-0.7c1.6-0.5,3.2-0.4,4.7-0.9c1.3-0.4,2.6-0.3,3.9-0.7
			c1.7-0.5,3.4-0.4,5.1-0.9c1.4-0.4,2.9-0.3,4.2-0.8c1.5-0.5,3.1-0.4,4.6-0.8c1.4-0.4,2.7-0.3,4.1-0.7c1.6-0.5,3.2-0.4,4.7-0.9
			c1.3-0.4,2.6-0.3,3.9-0.7c1.6-0.5,3.3-0.4,4.9-0.9c1.2-0.4,2.4-0.4,3.6-0.6c0.9-0.2,1.8-0.5,2.7-0.6c0.9-0.2,2,0,2.8-0.4
			c0.9-0.4,1.7-0.4,2.5-0.5c0.4,0.2,0.7,0.5,1.1,0.5c0.9,0.2,1.1,0.9,1.1,1.6c0,1.2,0.1,2.4-0.3,3.7c-0.4,1.3-0.2,2.7-0.5,4.1
			c-0.4,1.8-0.2,3.6-1.1,5.4c-0.1,0.1,0,0.3,0,0.6c-0.9,0.7-1.8,1.5-2.7,2.2c-2.2,0.3-4.2,1-6.2,1c-1.3,0.7-2.7,0.4-4.1,0.8
			c-1.6,0.5-3.2,0.4-4.7,0.9c-1.4,0.4-2.7,0.4-4.1,0.7c-0.8,0.2-1.6,0.4-2.4,0.6c-0.8,0.1-1.7,0.1-2.5,0.3c-0.5,0.1-1.1,0.5-1.5,0.8
			c-0.2,1.7-0.3,3.2-0.5,4.7c-0.2,1-0.2,1.9-0.4,2.9s-0.1,2-0.4,2.9c-0.3,0.8-0.1,1.7-0.4,2.4c-0.4,0.9-0.2,1.6-0.3,2.4
			c-0.1,0.6-0.5,1.2-0.4,1.9c0.1,0.6,0.2,1.2-0.3,1.7c-0.1,0.1,0,0.2,0,0.3c-0.1,1.4-0.2,2.8-0.4,4.2c-0.1,0.6-0.4,1.1-0.4,1.7
			c0,0.5,0.1,1-0.2,1.6c-0.3,0.5,0,1.2-0.2,1.8c-0.4,0.9-0.1,1.9-0.4,2.7c-0.3,0.9-0.1,1.7-0.4,2.6c-0.3,1-0.1,2-0.4,2.9
			c-0.3,1-0.1,1.9-0.4,2.7c-0.3,0.9-0.1,1.8-0.4,2.6c-0.3,0.9-0.3,1.7-0.4,2.6c-0.1,0.6-0.3,1.2-0.3,1.7c-0.1,0.5,0.1,1.1-0.4,1.6
			c-0.1,0.1,0,0.2,0,0.3c-0.1,1.4-0.2,2.7-0.4,4.1c-0.2,1-0.2,1.9-0.4,2.9s-0.2,1.9-0.4,2.9c-0.1,0.5-0.3,1-0.3,1.6
			c0,0.5,0.1,1-0.2,1.6c-0.3,0.4,0,1.1-0.2,1.6c-0.4,1-0.1,2-0.4,2.9s-0.1,1.9-0.4,2.7c-0.3,1-0.1,1.9-0.4,2.7
			c-0.3,0.9-0.2,1.7-0.3,2.3c-0.3,0.7-0.5,1.2-0.8,1.7c-0.6,1.4-2.3,2.4-3.5,2.5c-1,0.1-1.9,0.6-2.9,0.7c-1,0.1-2.1,0-3,0.4
			c-1.5,0.5-3.1,0.3-4.6,0.8c-1.7,0.6-3.4,0.5-5,0.8c-0.4-0.3-0.8-0.5-1.2-0.8c-0.2-0.9-1.1-1.7-0.5-3c0.1-0.2,0.1-0.4,0.2-0.6
			c0.1-1.3,0.1-2.6,0.5-3.9c0.2-0.9,0.1-1.9,0.4-2.7c0.3-0.9,0.1-1.9,0.4-2.7c0.3-0.9,0.1-1.9,0.4-2.7c0.3-0.9,0.1-1.7,0.4-2.6
			c0.3-0.9,0.2-1.8,0.4-2.7s0.2-1.8,0.4-2.6c0.3-0.9,0.1-1.8,0.4-2.6c0.3-0.9,0.3-1.7,0.3-2.6c0-0.6,0.5-1.2,0.4-1.9
			c-0.1-0.6-0.2-1.2,0.3-1.7c0.1-0.1,0-0.2,0-0.3c0.1-1.4,0.3-2.7,0.4-4.1c0.1-0.6,0.2-1.2,0.4-1.7c0.1-0.6-0.1-1.2,0.3-1.9
			c0.3-0.5-0.1-1.3,0.1-1.8c0.4-0.9,0.1-1.8,0.4-2.6c0.3-0.8,0.3-1.6,0.3-2.4c0.1-0.6,0.3-1.3,0.4-1.9s-0.1-1.3,0.4-1.9
			c0.1-0.1,0-0.2,0-0.3c0.1-1.4,0.1-2.8,0.5-4.2c0.2-0.9,0.1-1.8,0.4-2.6c0.3-0.9,0.1-1.8,0.4-2.6c0.3-0.9,0.1-1.9,0.4-2.7
			c0.3-0.9,0.1-1.7,0.4-2.6c0.3-1,0.1-2,0.4-2.9c0.3-1,0.1-1.9,0.4-2.7C179,222.5,179,221,179.4,219.4z M178.1,266
			c0.3,0.2,0.5,0.5,0.8,0.7c0.3-0.2,0.6-0.3,0.9-0.5c0-0.4,0-0.8-0.1-1.2c-0.3,0-0.6,0.1-0.8,0.1C178.7,265.4,178.4,265.7,178.1,266
			z M178,284.5c1.4-0.2,1.4-0.2,1.4-1.5c-0.4,0.2-0.8,0.3-1,0.5C178.2,283.6,178.2,284,178,284.5z M191,239.3
			c-0.2-0.3-0.4-0.5-0.8-0.9c-0.2,0.7-0.4,1.1-0.5,1.5c0,0.1,0.1,0.3,0.1,0.4c0.3,0,0.5-0.1,0.7-0.1
			C190.6,240,190.8,239.7,191,239.3z M176.9,276.2c-0.8,0.5-1.2,0.9-0.9,1.6c0.3-0.1,0.6-0.1,0.8-0.2
			C176.9,277.1,176.9,276.8,176.9,276.2z M175.9,207.3c0,0.6,0,0.8,0,1.3c0.5-0.3,0.9-0.5,1.7-0.8
			C176.8,207.6,176.4,207.5,175.9,207.3z M187.9,243c0.2,0.2,0.5,0.3,0.8,0.5c0.3-0.4,0.5-0.7,0.8-1.1c-0.5,0-0.8,0-1,0
			C188.2,242.7,188.1,242.9,187.9,243z M186.4,272c0,0.7,0.2,0.7,0.7,0.4c0-0.2-0.1-0.3-0.1-0.5C186.8,272,186.7,272,186.4,272z
			 M187.5,228.9c-0.8,0-0.8,0.3-0.5,0.7c0.2-0.1,0.3-0.1,0.5-0.1C187.5,229.3,187.5,229.2,187.5,228.9z M174.4,212.7
			c0,0.1,0,0.2,0,0.3c0.2-0.1,0.4-0.1,0.5-0.2c0-0.1,0-0.1,0-0.2C174.8,212.6,174.6,212.7,174.4,212.7z M211,206.1L211,206.1
			c-0.1,0.1-0.1,0.2-0.1,0.3h0.1C211,206.4,211,206.2,211,206.1z"/>
	</g>
	<g>
		<path class="st0" d="M-190.6,361.7c-0.4-0.3-0.8-0.7-1-0.9c-0.1-0.6-0.2-0.9-0.3-1.3c0-0.1-0.1-0.3-0.1-0.5c0-0.1,0-0.3,0-0.3
			c0.7-0.9,0.1-1.9,0.6-2.9c0.1-0.1,0.2-0.3,0.2-0.4c0.2-1.4,0.3-2.7,0.5-4.1c0.1-0.6,0.2-1.3,0.4-1.9c0.1-0.6-0.3-1.3,0.4-1.9
			c0.1-0.1,0-0.2,0-0.3c0.1-1.4,0.3-2.8,0.4-4.2c0.1-0.6,0.5-1.2,0.4-1.9c-0.1-0.6-0.1-1.2,0.4-1.7c-0.2-1.2,0.4-2.4,0.4-3.6
			c0-0.7,0.2-1.4,0.4-2.1c0.1-0.7-0.3-1.4,0.4-2.1c0.1-0.1,0-0.2,0-0.3c0.1-1.4,0.2-2.8,0.5-4.2c0.2-0.9,0.2-1.8,0.4-2.7
			s0.1-1.8,0.4-2.6c0.3-0.9,0.1-1.7,0.4-2.6c0.3-0.9,0.4-1.7,0.4-2.6c0-0.6,0.5-1.2,0.4-1.9c-0.1-0.5-0.2-1.2,0.3-1.7
			c0.1-0.1,0-0.2,0-0.3c0.1-1.4,0.3-2.8,0.4-4.2c0.1-0.6,0.3-1.2,0.4-1.7c0.1-0.5-0.1-1.1,0.4-1.6c0.1-0.1,0-0.2,0-0.3
			c0.1-1.4,0.2-2.8,0.5-4.2c0.2-0.9,0.1-1.9,0.4-2.7c0.3-0.9,0.1-1.9,0.4-2.7c0.3-0.9,0.1-1.9,0.4-2.7c0.3-0.9,0.2-1.7,0.4-2.6
			c0.3-0.9,0.1-1.9,0.4-2.7c0.4-0.9,0-1.8,0.4-2.6c0.4-0.9,0.1-1.8,0.4-2.6s0.3-1.6,0.4-2.4c0.1-0.6,0.3-1.3,0.4-1.9
			c0.1-0.6-0.1-1.3,0.4-1.9c0.1-0.2,0.1-0.4,0-0.7c-0.2-0.9,0.4-1.8,0.4-2.7c0.1-0.9,0.2-1.8,0.4-2.7c0.2-1.1,1.7-2.8,2.9-3.3
			c0.6-0.3,1.2-0.5,1.9-0.5c2.1-0.1,4.2-1,6.3-1c1.3-0.7,2.7-0.5,4.1-0.8c0.6-0.1,1.3-0.4,1.9-0.5c0.7-0.1,1.3-0.2,2-0.2
			c1,0.3,1.8,0.9,2.2,2.1c-0.1,0.6,0.1,1.4-0.3,2.3c-0.4,0.8,0.2,1.7-0.4,2.6c-0.1,0.1,0,0.2,0,0.3c-0.1,1.4-0.3,2.8-0.4,4.2
			c-0.1,0.6-0.3,1.2-0.4,1.7c-0.1,0.5,0.1,1.1-0.4,1.6c-0.1,0.1,0,0.2,0,0.3c-0.1,1.4-0.2,2.8-0.5,4.2c-0.2,0.9-0.2,1.9-0.4,2.7
			c-0.3,0.9-0.1,1.9-0.4,2.7c-0.3,0.9-0.1,1.7-0.4,2.6c-0.3,0.9-0.1,1.8-0.4,2.6c-0.3,0.9-0.1,1.9-0.4,2.7c-0.3,0.9-0.1,1.7-0.4,2.6
			c-0.3,0.9-0.2,1.9-0.4,2.7c-0.3,0.9-0.1,1.9-0.4,2.7c-0.3,0.9-0.1,1.7-0.4,2.6c-0.3,0.9-0.1,1.8-0.4,2.6c-0.3,0.9-0.1,1.9-0.4,2.7
			c-0.3,0.9-0.1,1.7-0.4,2.6c-0.3,0.9-0.2,1.9-0.4,2.7c-0.3,0.9-0.1,1.9-0.4,2.7c-0.3,0.9-0.1,1.9-0.4,2.7c-0.3,0.9-0.3,1.7-0.4,2.6
			c-0.1,0.6-0.3,1.2-0.4,1.7c-0.1,0.5,0.1,1.1-0.4,1.6c-0.1,0.1,0,0.2,0,0.3c-0.1,1.4-0.1,2.8-0.5,4.2c-0.2,0.9-0.1,1.9-0.4,2.7
			c-0.3,0.9-0.2,1.8-0.4,2.7c-0.4,1.7-0.5,3.3-0.8,5c-0.2,0.9-0.2,1.9-0.4,2.7c-0.3,0.9-0.1,1.9-0.4,2.7c-0.3,0.9-0.1,1.9-0.4,2.7
			c-0.3,0.9-0.2,1.8-0.4,2.7c-0.5,2-1.4,3.8-3.6,4.5c-0.6,0.2-1.3,0.5-1.9,0.5c-2.3,0.1-4.5,1.1-6.8,1c-1.4,0.7-2.8,0.5-4.3,0.8
			c-0.4,0.1-0.8,0.3-1.2,0.4C-189.1,362.1-189.8,361.6-190.6,361.7z M-166.3,294.5c-0.1-0.3-0.3-0.5-0.4-0.8c-0.3,0-0.5,0.1-0.8,0.1
			c-0.1,0.7-0.2,1.2,0.4,1.6C-166.8,295.1-166.6,294.8-166.3,294.5z M-176.2,302.8c-1.1-0.1-1.2,0-1.3,0.9
			C-176.8,303.8-176.4,303.6-176.2,302.8z M-181.8,350c0.3-0.4,0.5-0.7,0.8-1.1c-0.7-0.2-1.1-0.1-1.4,0.5
			C-182.2,349.6-182.1,349.7-181.8,350z M-180.9,345.1c0,0.3,0,0.7,0,0.9c0.4,0,0.6-0.1,0.9-0.1c0-0.4,0-0.7-0.1-0.9
			C-180.4,345-180.6,345.1-180.9,345.1z M-168.9,286.9c0-0.3,0-0.7,0-1c-0.2,0.1-0.4,0.1-0.6,0.2c0,0.3,0,0.6,0.1,0.9
			C-169.2,286.9-169.1,286.9-168.9,286.9z M-177.5,312.7c0.3,0,0.6-0.1,1-0.1c0-0.2,0-0.3,0-0.6c-0.3,0-0.6,0.1-1,0.1
			C-177.4,312.4-177.4,312.5-177.5,312.7z M-182.2,336.5c-0.1,0.1-0.2,0.2-0.3,0.3c0.2,0.3,0.3,0.5,0.5,0.8c0.2-0.2,0.4-0.4,0.6-0.6
			C-181.7,336.8-182,336.7-182.2,336.5z M-177.4,338.3c0.2,0,0.3,0,0.7,0.1c0-0.4-0.1-0.7-0.1-1.1
			C-177.1,337.7-177.2,338-177.4,338.3z"/>
	</g>
	<g>
		<path class="st0" d="M260.9,276.8c-0.3,0.6-0.5,1-0.7,1.5c-0.6,1.6-2.5,2.5-3.6,2.6c-0.9,0.1-1.8,0.5-2.7,0.6
			c-0.9,0.2-2,0-2.8,0.4c-1.6,0.6-3.2,0.4-4.7,0.8c-1.6,0.5-3.2,0.5-4.7,0.8c-0.9-0.3-1.6-0.7-2-1.6c0-0.8,0.1-1.7,0-2.5
			c-0.1-0.7,0.3-1.4,0.4-2.1c0.1-0.6-0.3-1.3,0.3-1.9c0.1-0.1,0-0.2,0-0.3c0.1-1.4,0.2-2.7,0.4-4.1c0.1-0.6,0.3-1.3,0.4-1.9
			c0.1-0.6-0.2-1.3,0.4-1.9c0.1-0.1,0-0.2,0-0.3c0.1-1.4,0.2-2.7,0.4-4.1c0.1-0.9,0.2-1.9,0.4-2.7c0.3-1,0-1.9,0.4-2.7
			c0.3-0.9,0.1-1.8,0.4-2.6c0.3-0.9,0.3-1.7,0.3-2.6c0-0.6,0.5-1.2,0.4-1.9c-0.1-0.6-0.2-1.2,0.3-1.7c0.1-0.1,0-0.2,0-0.3
			c0.1-1.4,0.2-2.8,0.4-4.2c0.2-0.9,0.1-1.8,0.4-2.6c0.3-0.9,0.1-1.8,0.4-2.6c0.3-0.9,0.1-1.9,0.4-2.7c0.3-0.9,0.1-1.7,0.4-2.6
			c0.3-1,0.1-2,0.4-2.9c0.3-1,0.1-1.9,0.4-2.7c0.3-0.8,0.1-1.7,0.4-2.4c0.3-0.8,0.3-1.6,0.3-2.4c0-0.6,0.5-1.2,0.4-1.9
			c-0.1-0.5-0.2-1.2,0.3-1.7c0.1-0.1,0-0.2,0-0.3c0.1-1.4,0.2-2.7,0.4-4.1c0.1-0.9,0.3-1.8,0.4-2.7c0.1-0.9,0.1-1.9,0.4-2.7
			c0.3-0.9,0.1-1.8,0.4-2.6c0.3-0.9,0.3-1.7,0.3-2.6c0-0.6,0.5-1.2,0.4-1.9c-0.1-0.6-0.1-1.2,0.3-1.7c0.1-0.1,0-0.4,0-0.7
			c0.1-1.4,0.1-2.7,0.5-4.1c0.2-0.9,0.1-1.8,0.4-2.6c0.3-0.8,0.3-1.6,0.3-2.4c1.2-2.1,1.2-2.1,3-3.4c1.2-0.3,2.1-0.6,3.1-0.8
			c0.9-0.2,2,0,2.8-0.4c1.4-0.6,2.9-0.3,4.2-0.8c2.2-0.7,4.3-0.5,6.5-1c0.5,0.5,1,1.1,1.6,1.7c-0.2,1.8-0.3,3.7-0.5,5.5
			c-0.1,0.5-0.3,1-0.3,1.6c0,0.5,0.1,1-0.2,1.6c-0.2,0.5-0.1,1.1-0.2,1.6c0,0.6-0.5,1.2-0.4,1.9c0.1,0.5,0.2,1.2-0.3,1.7
			c-0.1,0.1,0,0.2,0,0.3c-0.1,1.4-0.1,2.8-0.4,4.2c-0.2,0.9-0.2,1.8-0.4,2.7c-0.2,0.9-0.1,1.9-0.4,2.7c-0.2,0.9-0.1,1.8-0.4,2.6
			c-0.4,0.9-0.1,1.8-0.4,2.6c-0.3,0.9-0.1,1.9-0.4,2.7c-0.3,0.9-0.1,1.7-0.4,2.6c-0.3,1-0.1,2-0.4,2.9c-0.3,1-0.1,1.8-0.4,2.7
			c-0.1,0.5-0.3,1-0.3,1.6c0,0.5,0.1,1-0.2,1.6c-0.3,0.4-0.1,1.1-0.2,1.6c-0.1,0.6-0.5,1.2-0.4,1.9c0.1,0.6,0.2,1.2-0.3,1.7
			c-0.1,0.1,0,0.2,0,0.3c-0.1,1.4-0.1,2.8-0.4,4.2c-0.2,0.9-0.1,1.9-0.4,2.7c-0.3,0.9-0.1,1.9-0.4,2.7c-0.3,0.9-0.1,1.8-0.4,2.6
			c-0.4,0.9-0.1,1.8-0.4,2.6c-0.3,0.9-0.1,1.9-0.4,2.7c-0.3,0.9-0.1,1.7-0.4,2.6c-0.3,0.9-0.1,1.9-0.4,2.7c-0.3,0.9-0.1,1.9-0.4,2.7
			c-0.3,0.9-0.1,1.8-0.4,2.6c-0.3,0.9-0.1,1.6-0.4,2.4c-0.3,1-0.1,2-0.4,2.9c-0.3,1-0.1,1.9-0.4,2.7c-0.3,1-0.1,1.9-0.4,2.7
			C260.9,275.3,261,276.2,260.9,276.8z M264.3,198.9c-0.6,0.5-0.5,1-0.4,1.6c1.2-0.1,1.2-0.2,1.2-1.3
			C264.9,199.1,264.6,199,264.3,198.9z M260.9,248c-0.7,0.6-1.1,1-0.8,1.6c0.4,0,0.8-0.1,1.4-0.2C261.3,248.9,261.1,248.5,260.9,248
			z M262.4,225.1c0-0.3,0.1-0.6,0.1-1c-0.5,0.1-0.9,0.1-1.3,0.1c0.2,0.3,0.3,0.6,0.5,0.9C261.8,225.1,262.1,225.1,262.4,225.1z
			 M259.2,259c-0.5,0-1,0-1.3,0.7c0.4,0,0.8-0.1,1.3-0.1C259.2,259.4,259.2,259.3,259.2,259z M249.3,261.7c-0.1,0.1-0.2,0.2-0.3,0.3
			c0.2,0.2,0.4,0.5,0.5,0.7c0.2-0.2,0.4-0.4,0.6-0.6C249.8,261.9,249.5,261.8,249.3,261.7z M257.7,248.2c-0.4,0-0.7,0.1-1.2,0.1
			c0.4,0.3,0.7,0.4,1.1,0.7C257.6,248.7,257.7,248.5,257.7,248.2z M251.7,254.7c0.3,0,0.5,0,0.8,0.1c0-0.4,0-0.7,0-1.2
			C252.2,254,252,254.3,251.7,254.7z M256.3,269c-0.3-0.3-0.4-0.5-0.6-0.7c-0.3,0.3-0.5,0.5-0.8,0.9
			C255.4,269.1,255.7,269,256.3,269z M263.7,207c-0.2,0-0.4,0-0.7,0.1c0,0.2,0.1,0.4,0.1,0.6c0.2-0.1,0.4-0.1,0.6-0.2
			C263.7,207.3,263.7,207.2,263.7,207z M247.7,258.6c0-0.2,0-0.4,0-0.7c-0.2,0.1-0.4,0.1-0.6,0.2c0,0.2,0.1,0.4,0.1,0.6
			C247.4,258.6,247.5,258.6,247.7,258.6z M253.5,262.5c0.5,0.1,0.5,0.1,0.5-0.8C253.8,262.1,253.6,262.3,253.5,262.5z M263.9,195.6
			c-0.1,0-0.2,0-0.3,0c0,0.2,0.1,0.4,0.1,0.5c0.1,0,0.1,0,0.2,0C263.9,196,263.9,195.8,263.9,195.6z"/>
	</g>
</g>
</svg>
